<?xml version="1.0" encoding="utf-8"?>
<svg viewBox="0 0 500 500" xmlns="http://www.w3.org/2000/svg" xmlns:bx="https://boxy-svg.com">
  <title>coins-2-outline</title>
  <g transform="matrix(1, 0, 0, 1, 68.868973, 54.797482)"/>
  <g transform="matrix(1, 0, 0, 1, 68.868973, 54.797482)"/>
  <g transform="matrix(1, 0, 0, 1, 68.868973, 54.797482)"/>
  <g transform="matrix(1, 0, 0, 1, 68.868973, 54.797482)"/>
  <g transform="matrix(1, 0, 0, 1, 68.868973, 54.797482)"/>
  <g transform="matrix(1, 0, 0, 1, 68.868973, 54.797482)"/>
  <g transform="matrix(1, 0, 0, 1, 68.868973, 54.797482)"/>
  <g transform="matrix(1, 0, 0, 1, 68.868973, 54.797482)"/>
  <g transform="matrix(1, 0, 0, 1, 68.868973, 54.797482)"/>
  <g transform="matrix(1, 0, 0, 1, 68.868973, 54.797482)"/>
  <g transform="matrix(1, 0, 0, 1, 68.868973, 54.797482)"/>
  <g transform="matrix(1, 0, 0, 1, 68.868973, 54.797482)"/>
  <g transform="matrix(1, 0, 0, 1, 68.868973, 54.797482)"/>
  <g transform="matrix(1, 0, 0, 1, 68.868973, 54.797482)"/>
  <g transform="matrix(1, 0, 0, 1, 68.868973, 54.797482)"/>
  <g transform="matrix(1, 0, 0, 1, -349.134368, 186.443957)">
    <path style="fill: rgb(146, 183, 239);" d="M 570.657 158.597 C 570.657 158.597 582.8349524897923 280.1952162370579 584.565 298.699 C 584.9921311446747 303.2673961237166 583.1414503057998 305.2705080646531 585.315 307.248 C 590.3569924259913 311.835196412892 625.9389750005251 310.5828325926579 631.493 306.93 C 633.4169722973625 305.66462061912915 633.0203725736974 304.6635132696223 633.723 301.857 C 636.4382064921289 291.01161770397255 638.349356579385 245.06909160382233 640.045 219.346 C 641.5324799836145 196.78076994503058 647.4730492383485 162.65422359761405 643.557 155.761 C 642.4391506497305 153.7933062732727 641.1764419478811 154.35722441625128 638.96 153.354 C 633.6772562270653 150.96288051100342 621.5197496049088 142.74375099574718 611.453 142.757 C 599.1871539677629 142.7731432689422 570.657 158.597 570.657 158.597 C 570.6569999999999 158.59699999999998 570.657 158.597 570.657 158.597 C 570.657 158.597 570.657 158.597 570.657 158.597" bx:d="M 570.657 158.597 R 584.565 298.699 R 585.315 307.248 R 631.493 306.93 R 633.723 301.857 R 640.045 219.346 R 643.557 155.761 R 638.96 153.354 R 611.453 142.757 R 570.657 158.597 R 570.657 158.597 Z 1@4081e242"/>
    <path style="fill: rgb(146, 183, 239);" d="M 609.307 -148.005 C 609.307 -148.005 582.335 -156.108 570.1 -153.265 C 557.405 -150.315 542.716 -138.259 534.709 -129.568 C 528.715 -123.063 529.552 -114.121 523.097 -108.72 C 514.659 -101.659 495.095 -103.734 484.532 -95.473 C 472.999 -86.453 463.435 -67.341 458.129 -54.662 C 454.11 -45.059 452.17 -37.898 452.087 -27.445 C 451.975 -13.298 455.994 10.739 462.364 22.582 C 466.832 30.889 474.454 34.269 480.113 40.37 C 485.705 46.399 493.315 51.369 496.135 58.959 C 499.289 67.449 495.397 80.076 496.135 89.66 C 496.793 98.194 497.026 107.674 499.864 113.715 C 501.993 118.247 505.531 120.024 508.942 123.974 C 513.492 129.244 518.543 137.961 524.648 142.617 C 530.374 146.984 536.845 148.979 544.121 151.606 C 552.766 154.727 563.682 159.733 573.379 159.406 C 583.163 159.076 596.345 152.171 602.562 149.479 C 605.634 148.149 606.612 146.028 609.206 145.94 C 612.73 145.82 616.745 150.071 621.88 151.619 C 629.091 153.794 640.135 155.994 648.901 156.104 C 657.178 156.208 665.333 155.006 673.088 152.711 C 680.912 150.395 689.546 146.943 695.622 142.207 C 701.162 137.889 704.617 132.55 708.662 126.173 C 713.644 118.318 719.794 106.44 722.236 97.906 C 724.084 91.448 724.364 85.619 724.202 80.057 C 724.058 75.138 721.115 70.66 721.852 66.208 C 722.618 61.58 725.576 57.833 729.079 52.856 C 734.454 45.22 746.564 36.611 752.93 26.234 C 759.809 15.022 766.097 -0.46 768.019 -12.666 C 769.621 -22.839 768.449 -33.004 766.348 -41.6 C 764.517 -49.092 761.413 -55.608 757.335 -61.688 C 753.158 -67.916 746.156 -73.094 741.423 -78.434 C 737.333 -83.049 734.859 -87.9 730.432 -91.735 C 725.708 -95.828 719.136 -99.001 713.652 -101.967 C 708.66 -104.667 702.412 -106.032 698.946 -108.961 C 696.307 -111.191 694.84 -113.726 693.525 -116.691 C 692.07 -119.97 693.111 -124.376 690.964 -127.954 C 688.116 -132.701 681.056 -137.544 675.594 -141.261 C 670.331 -144.842 664.72 -147.815 658.862 -150.002 C 652.988 -152.195 646.214 -154.513 640.395 -154.39 C 635.124 -154.278 625.41 -150.151 625.41 -150.151" bx:d="M 609.307 -148.005 R 570.1 -153.265 R 534.709 -129.568 R 523.097 -108.72 R 484.532 -95.473 R 458.129 -54.662 R 452.087 -27.445 R 462.364 22.582 R 480.113 40.37 R 496.135 58.959 R 496.135 89.66 R 499.864 113.715 R 508.942 123.974 R 524.648 142.617 R 544.121 151.606 R 573.379 159.406 R 602.562 149.479 R 609.206 145.94 R 621.88 151.619 R 648.901 156.104 R 673.088 152.711 R 695.622 142.207 R 708.662 126.173 R 722.236 97.906 R 724.202 80.057 R 721.852 66.208 R 729.079 52.856 R 752.93 26.234 R 768.019 -12.666 R 766.348 -41.6 R 757.335 -61.688 R 741.423 -78.434 R 730.432 -91.735 R 713.652 -101.967 R 698.946 -108.961 R 693.525 -116.691 R 690.964 -127.954 R 675.594 -141.261 R 658.862 -150.002 R 640.395 -154.39 R 625.41 -150.151 1@45fb5362"/>
    <path style="fill: rgb(146, 183, 239);" d="M 557.941 301.031 C 557.941 301.031 557.0039851414938 306.00011293526796 557.973 307.407 C 558.8903859066277 308.7389283539075 560.3268744554343 308.9089885601829 563.302 309.471 C 575.837415230226 311.83898301675475 657.6076956892704 316.55526634850446 664.754 309.865 C 666.5293034129813 308.20298671791494 666.4028035263996 305.1338431555542 665.142 303.616 C 662.8085745531776 300.80685982129984 653.167573124768 301.6303728980933 643.857 300.996 C 626.2817298769831 299.7985146364992 567.447 299.958 567.447 299.958" transform="matrix(0.999399, -0.034666, 0.034666, 0.999399, -10.261845, 21.393348)" bx:d="M 557.941 301.031 R 557.973 307.407 R 563.302 309.471 R 664.754 309.865 R 665.142 303.616 R 643.857 300.996 R 567.447 299.958 1@8a862839"/>
    <path style="filter: none;" d="M 690.359 -120.833 C 687.208 -121.904 684.756 -124.154 683.631 -127.007 C 674.037 -151.322 648.989 -167.658 621.303 -167.658 C 614.316 -167.658 607.424 -166.642 600.82 -164.634 C 597.215 -163.539 593.245 -163.539 589.642 -164.634 C 583.038 -166.642 576.146 -167.658 569.159 -167.658 C 541.473 -167.658 516.426 -151.322 506.833 -127.007 C 505.707 -124.154 503.255 -121.905 500.104 -120.833 C 460.313 -107.302 433.578 -71.581 433.578 -31.945 C 433.578 -2.138 448.132 25.316 473.508 43.376 C 478.362 46.831 480.593 52.54 479.191 57.919 C 477.534 64.281 476.784 70.858 476.959 77.469 C 478.006 116.59 511.538 148.359 553.297 149.794 C 554.516 149.836 558.03 148.519 553.796 150.016 L 565.925 292.779 L 544.451 292.596 C 538.818 292.596 537.804 292.095 537.804 297.369 C 537.804 302.643 538.817 301.863 544.45 301.863 L 646.012 301.381 C 651.645 301.381 653.786 302.559 653.786 297.286 C 653.786 292.012 651.645 292.597 646.012 292.597 L 624.084 292.597 L 633.522 149.837 C 633.737 149.839 633.951 149.846 634.168 149.846 C 635.164 149.846 636.165 149.829 637.167 149.795 C 678.926 148.36 712.458 116.591 713.505 77.469 C 713.681 70.859 712.931 64.282 711.273 57.919 C 709.871 52.54 712.102 46.831 716.956 43.377 C 742.333 25.315 756.886 -2.139 756.886 -31.945 C 756.886 -71.58 730.151 -107.302 690.359 -120.833 Z M 613.123 292.597 L 577.338 292.597 L 565.128 147.385 C 571.347 145.785 589.557 143.287 595.23 140.281 C 600.904 143.288 617.554 146.139 623.772 147.739 L 613.122 292.597 L 613.123 292.597 Z M 715.145 36.385 C 703.828 44.441 703.434 47.656 706.76 60.42 C 707.991 65.146 704.696 82.208 704.564 87.133 C 703.786 116.19 667.234 144.043 636.222 145.109 C 625.255 145.487 613.14 141.267 603.728 136.316 L 603.262 103.568 L 627.107 81.805 C 631.09 78.076 631.09 78.665 627.107 74.935 C 623.124 71.206 622.639 71.523 618.655 75.252 L 604.289 89.809 L 601.023 24.507 L 630.362 -0.642 C 634.345 -4.372 637.563 -3.81 633.579 -7.539 C 629.595 -11.269 627.446 -12.813 623.463 -9.084 L 600.108 11.895 L 601.233 -67.952 L 627.105 -92.181 C 631.088 -95.91 629.871 -94.571 625.888 -98.3 C 621.905 -102.029 620.972 -100.216 616.989 -96.487 L 594.839 -74.89 L 577.779 -91.933 C 573.795 -95.662 567.862 -103.806 563.879 -100.077 C 559.896 -96.348 559.371 -95.911 563.355 -92.182 L 588.947 -66.894 L 589.101 14.293 L 545.988 -26.187 C 542.006 -29.916 535.547 -36.119 531.564 -32.39 C 527.581 -28.661 527.581 -27.126 531.564 -23.397 L 587.765 28.422 L 588.359 89.198 L 572.839 75.575 C 568.856 71.846 568.892 72.011 564.908 75.74 C 560.925 79.469 559.369 78.074 563.352 81.804 L 587.575 101.902 L 587.37 137.874 C 577.956 142.823 564.795 145.83 553.846 145.271 C 522.833 143.689 485.663 108.035 484.886 78.978 C 484.754 74.05 486.423 62.138 487.654 57.414 C 490.979 44.65 488.557 46.849 478.61 37.785 C 460.373 21.169 441.286 -8.158 441.286 -31.945 C 441.286 -63.576 471.811 -105.295 503.567 -116.093 C 512.369 -119.086 506.367 -114.276 509.576 -122.408 C 516.223 -139.26 549.788 -162.391 568.975 -162.391 C 573.821 -162.391 583.014 -160.773 587.581 -159.386 C 595.246 -157.057 595.296 -156.038 602.96 -158.366 C 607.527 -159.755 616.454 -161.844 621.301 -161.844 C 640.487 -161.844 672.234 -141.269 678.883 -124.418 C 682.092 -116.285 680.236 -118.718 689.038 -115.725 C 720.794 -104.927 751.231 -62.24 751.231 -30.609 C 751.234 -6.821 735.404 21.968 715.145 36.385 Z"/>
  </g>
  <g transform="matrix(1, 0, 0, 1, -349.134368, 186.443957)"/>
  <g transform="matrix(1, 0, 0, 1, -349.134368, 186.443957)"/>
  <g transform="matrix(1, 0, 0, 1, -349.134368, 186.443957)"/>
  <g transform="matrix(1, 0, 0, 1, -349.134368, 186.443957)"/>
  <g transform="matrix(1, 0, 0, 1, -349.134368, 186.443957)"/>
  <g transform="matrix(1, 0, 0, 1, -349.134368, 186.443957)"/>
  <g transform="matrix(1, 0, 0, 1, -349.134368, 186.443957)"/>
  <g transform="matrix(1, 0, 0, 1, -349.134368, 186.443957)"/>
  <g transform="matrix(1, 0, 0, 1, -349.134368, 186.443957)"/>
  <g transform="matrix(1, 0, 0, 1, -349.134368, 186.443957)"/>
  <g transform="matrix(1, 0, 0, 1, -349.134368, 186.443957)"/>
  <g transform="matrix(1, 0, 0, 1, -349.134368, 186.443957)"/>
  <g transform="matrix(1, 0, 0, 1, -349.134368, 186.443957)"/>
  <g transform="matrix(1, 0, 0, 1, -349.134368, 186.443957)"/>
  <g transform="matrix(1, 0, 0, 1, -349.134368, 186.443957)"/>
</svg>