<?xml version="1.0" encoding="utf-8"?>
<svg viewBox="0 0 500 500" xmlns="http://www.w3.org/2000/svg" xmlns:bx="https://boxy-svg.com">
  <title>coins-2-outline</title>
  <g transform="matrix(1, 0, 0, 1, 68.868973, 54.797482)"/>
  <g transform="matrix(1, 0, 0, 1, 68.868973, 54.797482)"/>
  <g transform="matrix(1, 0, 0, 1, 68.868973, 54.797482)"/>
  <g transform="matrix(1, 0, 0, 1, 68.868973, 54.797482)"/>
  <g transform="matrix(1, 0, 0, 1, 68.868973, 54.797482)"/>
  <g transform="matrix(1, 0, 0, 1, 68.868973, 54.797482)"/>
  <g transform="matrix(1, 0, 0, 1, 68.868973, 54.797482)"/>
  <g transform="matrix(1, 0, 0, 1, 68.868973, 54.797482)"/>
  <g transform="matrix(1, 0, 0, 1, 68.868973, 54.797482)"/>
  <g transform="matrix(1, 0, 0, 1, 68.868973, 54.797482)"/>
  <g transform="matrix(1, 0, 0, 1, 68.868973, 54.797482)"/>
  <g transform="matrix(1, 0, 0, 1, 68.868973, 54.797482)"/>
  <g transform="matrix(1, 0, 0, 1, 68.868973, 54.797482)"/>
  <g transform="matrix(1, 0, 0, 1, 68.868973, 54.797482)"/>
  <g transform="matrix(1, 0, 0, 1, 68.868973, 54.797482)"/>
  <path style="fill: rgb(146, 183, 239);" d="M 273.161 115.958 C 273.161 115.958 228.4087106001169 146.06693491744423 206.21 153.512 C 186.86247859135602 160.00082534973617 155.47262114197386 154.7172840517257 148.437 161.418 C 145.30264881432396 164.40315178028192 146.84920890346294 167.24678043749202 146.311 172.794 C 144.89084930433958 187.43123039509155 141.81128520912208 226.87403165281782 145.611 253.368 C 149.47193838413452 280.28885721413997 158.49337761147697 312.7298481968415 169.686 333.003 C 178.02641686398758 348.1099634367924 186.40778034659184 356.9522757035226 199.984 367.876 C 218.3427139866903 382.6478242005714 263.1024997372937 407.3056766234651 274.134 408.348 C 277.13944173500863 408.63197245185256 277.161996489296 407.67116867654636 280.103 406.428 C 289.7765785904637 402.33895697437805 321.8249931137173 390.29755770385793 340.001 374.584 C 361.7651451713969 355.7684178336011 386.39909766364315 327.33232479377966 397.594 296.205 C 410.3266704207912 260.8019249420799 406.8266247661545 189.89819618175574 404.735 170.588 C 404.0934217786395 164.66485282710013 404.07717918596984 160.96982415198553 401.548 159.187 C 398.9576537809233 157.36105906746639 394.520460786018 160.10710863406462 389.161 160.058 C 379.2306406819611 159.9670083123376 361.27102614207433 160.1428734304462 346.697 156.289 C 329.713172912227 151.79789237313074 307.25775469302613 140.2542629501181 294.037 132.233 C 285.097397757045 126.8091870691064 273.161 115.958 273.161 115.958 C 273.16100000000006 115.95800000000001 273.161 115.958 273.161 115.958 C 273.161 115.958 273.16100000000006 115.95800000000001 273.161 115.958" bx:d="M 273.161 115.958 R 206.21 153.512 R 148.437 161.418 R 146.311 172.794 R 145.611 253.368 R 169.686 333.003 R 199.984 367.876 R 274.134 408.348 R 280.103 406.428 R 340.001 374.584 R 397.594 296.205 R 404.735 170.588 R 401.548 159.187 R 389.161 160.058 R 346.697 156.289 R 294.037 132.233 R 273.161 115.958 R 273.161 115.958 Z 1@f638f448"/>
  <g transform="matrix(1, 0, 0, 1, -349.134368, 186.443957)">
    <g transform="matrix(1.48605, 0, 0, 1.392824, 449.095398, -88.630959)" style="">
      <path d="M 196.926 55.171 C 196.871 52.279 196.817 49.466 196.777 46.716 C 196.737 43.966 196.711 41.278 196.711 38.634 C 196.711 36.563 195.872 34.688 194.515 33.331 C 193.158 31.974 191.283 31.134 189.211 31.134 C 173.174 31.134 159.05 28.83 146.39 24.051 C 133.731 19.273 122.537 12.02 112.359 2.124 C 110.903 0.708 109.016 0 107.13 0 C 105.244 0.001 103.357 0.709 101.902 2.124 C 91.725 12.02 80.532 19.273 67.875 24.051 C 55.217 28.83 41.094 31.134 25.058 31.134 C 22.987 31.134 21.112 31.974 19.755 33.331 C 18.397 34.688 17.558 36.563 17.558 38.634 C 17.558 41.278 17.532 43.967 17.492 46.718 C 17.452 49.469 17.398 52.282 17.343 55.175 C 16.829 82.093 16.22 113.985 26.96 143.036 C 37.701 172.088 59.79 198.3 104.674 213.857 C 105.072 213.995 105.478 214.099 105.889 214.168 C 106.3 214.237 106.715 214.271 107.13 214.271 C 107.545 214.271 107.96 214.237 108.371 214.168 C 108.782 214.099 109.188 213.995 109.586 213.857 C 154.473 198.299 176.565 172.087 187.307 143.034 C 198.048 113.982 197.44 82.09 196.926 55.171 Z M 107.131 209.13 C 68.638 195.147 43.812 169.982 32.598 139.632 C 21.383 109.282 23.781 73.747 24.297 46.687 C 24.328 45.063 24.443 43.808 24.556 42.573 C 24.668 41.339 24.778 38.445 24.799 36.902 C 39.819 36.268 55.081 34.66 69.159 29.292 C 83.237 23.924 96.13 16.475 106.412 7.518 C 116.695 16.475 129.867 24.231 144.223 29.907 C 158.579 35.582 174.12 38.18 189.141 38.813 C 189.162 40.356 189.306 44.481 189.452 47.63 C 189.598 50.778 189.747 53.947 189.778 55.57 C 190.294 82.631 191.397 115.296 180.23 143.424 C 169.063 171.553 145.628 195.146 107.131 209.13 Z"/>
      <path d="M 134.023 87.263 L 96.759 121.42 L 81.312 106.525 C 78.383 103.597 77.134 100.693 74.206 103.621 C 71.277 106.551 71.556 107.648 74.485 110.577 L 90.977 125.973 C 92.441 127.437 94.6 130.326 96.519 130.326 C 98.438 130.326 100.598 128.121 102.062 126.657 L 138.284 92.2 C 141.214 89.271 143.561 88.191 140.632 85.263 C 137.704 82.334 136.952 84.334 134.023 87.263 Z"/>
    </g>
    <g transform="matrix(1.48605, 0, 0, 1.392824, 449.095398, -88.630959)" style=""/>
    <g transform="matrix(1.48605, 0, 0, 1.392824, 449.095398, -88.630959)" style=""/>
    <g transform="matrix(1.48605, 0, 0, 1.392824, 449.095398, -88.630959)" style=""/>
    <g transform="matrix(1.48605, 0, 0, 1.392824, 449.095398, -88.630959)" style=""/>
    <g transform="matrix(1.48605, 0, 0, 1.392824, 449.095398, -88.630959)" style=""/>
    <g transform="matrix(1.48605, 0, 0, 1.392824, 449.095398, -88.630959)" style=""/>
    <g transform="matrix(1.48605, 0, 0, 1.392824, 449.095398, -88.630959)" style=""/>
    <g transform="matrix(1.48605, 0, 0, 1.392824, 449.095398, -88.630959)" style=""/>
    <g transform="matrix(1.48605, 0, 0, 1.392824, 449.095398, -88.630959)" style=""/>
    <g transform="matrix(1.48605, 0, 0, 1.392824, 449.095398, -88.630959)" style=""/>
    <g transform="matrix(1.48605, 0, 0, 1.392824, 449.095398, -88.630959)" style=""/>
    <g transform="matrix(1.48605, 0, 0, 1.392824, 449.095398, -88.630959)" style=""/>
    <g transform="matrix(1.48605, 0, 0, 1.392824, 449.095398, -88.630959)" style=""/>
    <g transform="matrix(1.48605, 0, 0, 1.392824, 449.095398, -88.630959)" style=""/>
    <g transform="matrix(1.48605, 0, 0, 1.392824, 449.095398, -88.630959)" style=""/>
  </g>
  <g transform="matrix(1, 0, 0, 1, -349.134368, 186.443957)"/>
  <g transform="matrix(1, 0, 0, 1, -349.134368, 186.443957)"/>
  <g transform="matrix(1, 0, 0, 1, -349.134368, 186.443957)"/>
  <g transform="matrix(1, 0, 0, 1, -349.134368, 186.443957)"/>
  <g transform="matrix(1, 0, 0, 1, -349.134368, 186.443957)"/>
  <g transform="matrix(1, 0, 0, 1, -349.134368, 186.443957)"/>
  <g transform="matrix(1, 0, 0, 1, -349.134368, 186.443957)"/>
  <g transform="matrix(1, 0, 0, 1, -349.134368, 186.443957)"/>
  <g transform="matrix(1, 0, 0, 1, -349.134368, 186.443957)"/>
  <g transform="matrix(1, 0, 0, 1, -349.134368, 186.443957)"/>
  <g transform="matrix(1, 0, 0, 1, -349.134368, 186.443957)"/>
  <g transform="matrix(1, 0, 0, 1, -349.134368, 186.443957)"/>
  <g transform="matrix(1, 0, 0, 1, -349.134368, 186.443957)"/>
  <g transform="matrix(1, 0, 0, 1, -349.134368, 186.443957)"/>
  <g transform="matrix(1, 0, 0, 1, -349.134368, 186.443957)"/>
</svg>