<?xml version="1.0" encoding="utf-8"?>
<svg viewBox="0 0 500 500" xmlns="http://www.w3.org/2000/svg">
  <title>coins-2-outline</title>
  <g transform="matrix(1, 0, 0, 1, 62.97663884005081, 24.86863967978114)"/>
  <g transform="matrix(1, 0, 0, 1, 62.97663884005081, 24.86863967978114)"/>
  <g transform="matrix(1, 0, 0, 1, 62.97663884005081, 24.86863967978114)"/>
  <g transform="matrix(1, 0, 0, 1, 62.97663884005081, 24.86863967978114)"/>
  <g transform="matrix(1, 0, 0, 1, 62.97663884005081, 24.86863967978114)"/>
  <g transform="matrix(1, 0, 0, 1, 62.97663884005081, 24.86863967978114)"/>
  <g transform="matrix(1, 0, 0, 1, 62.97663884005081, 24.86863967978114)"/>
  <g transform="matrix(1, 0, 0, 1, 62.97663884005081, 24.86863967978114)"/>
  <g transform="matrix(1, 0, 0, 1, 62.97663884005081, 24.86863967978114)"/>
  <g transform="matrix(1, 0, 0, 1, 62.97663884005081, 24.86863967978114)"/>
  <g transform="matrix(1, 0, 0, 1, 62.97663884005081, 24.86863967978114)"/>
  <g transform="matrix(1, 0, 0, 1, 62.97663884005081, 24.86863967978114)"/>
  <g transform="matrix(1, 0, 0, 1, 62.97663884005081, 24.86863967978114)"/>
  <g transform="matrix(1, 0, 0, 1, 62.97663884005081, 24.86863967978114)"/>
  <g transform="matrix(1, 0, 0, 1, 62.97663884005081, 24.86863967978114)"/>
  <g transform="matrix(1, 0, 0, 1, -355.02671809354297, 156.51511261068936)">
    <path style="fill: rgb(146, 183, 239);" d="M 723.691 -35.247 C 723.691 -35.247 721.684 -36.237 718.472 -37.757 C 715.26 -39.277 710.844 -41.327 706.026 -43.447 C 701.208 -45.567 695.988 -47.757 691.17 -49.557 C 686.352 -51.357 681.934 -52.767 678.72 -53.327 C 676.46 -53.721 674.398 -53.966 672.435 -54.086 C 670.472 -54.206 668.608 -54.201 666.744 -54.094 C 664.88 -53.988 663.016 -53.781 661.053 -53.497 C 659.09 -53.213 657.028 -52.851 654.768 -52.437 C 651.631 -51.862 648.04 -51.094 644.24 -50.156 C 640.44 -49.217 636.43 -48.107 632.458 -46.848 C 628.485 -45.589 624.549 -44.18 620.894 -42.643 C 617.239 -41.106 613.866 -39.441 611.019 -37.669 C 608.712 -36.233 606.589 -34.637 604.61 -32.934 C 602.631 -31.232 600.796 -29.422 599.067 -27.559 C 597.337 -25.697 595.712 -23.781 594.153 -21.865 C 592.594 -19.949 591.101 -18.033 589.635 -16.17 C 588.322 -14.504 587.245 -12.598 586.275 -10.622 C 585.304 -8.646 584.439 -6.6 583.551 -4.652 C 582.664 -2.704 581.333 -0.442 580.515 1.629 C 579.697 3.7 579.391 5.579 577.895 6.461 C 576.484 7.293 574.722 6.211 572.8 5.926 C 570.878 5.64 568.795 6.149 566.938 6.028 C 565.081 5.906 563.156 5.699 561.207 5.562 C 559.258 5.425 557.286 5.357 555.334 5.512 C 553.006 5.697 550.541 5.789 548.001 5.877 C 545.461 5.965 542.847 6.049 540.218 6.218 C 537.59 6.387 534.948 6.64 532.354 7.067 C 529.76 7.493 527.214 8.092 524.776 8.954 C 522.159 9.878 519.456 11.006 516.755 12.308 C 514.053 13.61 511.354 15.087 508.745 16.711 C 506.136 18.335 503.618 20.106 501.278 21.996 C 498.938 23.886 496.777 25.895 494.883 27.996 C 493.013 30.07 491.552 32.678 490.301 35.513 C 489.051 38.349 488.012 41.412 486.987 44.396 C 485.962 47.379 484.157 52.116 483.41 55.39 C 482.663 58.664 482.974 60.476 481.216 61.918 C 479.877 63.016 478.608 61.782 476.664 61.872 C 474.731 61.961 472.144 62.159 470.523 62.417 C 468.903 62.674 467.218 62.859 465.476 63.109 C 463.734 63.358 461.935 63.672 460.083 64.189 C 457.578 64.888 454.746 65.498 451.751 66.113 C 448.757 66.727 445.598 67.345 442.438 68.06 C 439.279 68.774 436.117 69.585 433.117 70.584 C 430.116 71.583 427.277 72.771 424.76 74.239 C 422.329 75.657 419.95 77.176 417.66 78.83 C 415.369 80.483 413.167 82.272 411.087 84.232 C 409.008 86.192 407.051 88.323 405.253 90.66 C 403.454 92.996 401.814 95.539 400.367 98.324 C 398.392 102.125 396.538 106.84 394.919 112.056 C 393.3 117.271 391.916 122.986 390.88 128.788 C 389.845 134.59 389.158 140.478 388.933 146.04 C 388.708 151.602 388.945 156.837 389.757 161.332 C 390.438 165.098 391.62 168.829 393.15 172.452 C 394.681 176.074 396.56 179.589 398.635 182.922 C 400.71 186.255 402.981 189.406 405.295 192.304 C 407.609 195.201 409.966 197.843 412.212 200.159 C 414.013 202.015 415.909 203.661 417.873 205.143 C 419.837 206.625 421.87 207.944 423.946 209.146 C 426.023 210.348 428.142 211.433 430.28 212.449 C 432.417 213.465 434.573 214.411 436.72 215.335 C 438.8 216.229 440.623 216.998 442.4 217.674 C 444.177 218.351 445.908 218.936 447.805 219.464 C 449.702 219.992 451.765 220.464 454.204 220.913 C 456.643 221.363 459.459 221.79 462.863 222.231 C 474.142 223.69 496.589 224.503 524.352 224.878 C 552.114 225.253 585.192 225.19 617.729 224.898 C 650.267 224.606 682.265 224.085 707.869 223.543 C 733.473 223.001 752.683 222.439 759.644 222.065 C 760.788 222.003 761.644 221.999 762.338 222.007 C 763.031 222.015 763.563 222.036 764.059 222.024 C 764.555 222.012 765.015 221.969 765.566 221.848 C 766.116 221.728 766.757 221.53 767.613 221.211 C 769.674 220.444 772.454 219.162 775.623 217.483 C 778.793 215.804 782.351 213.728 785.968 211.371 C 789.584 209.014 793.259 206.376 796.661 203.574 C 800.062 200.772 803.19 197.805 805.715 194.791 C 808.534 191.426 811.354 187.504 814.022 183.253 C 816.69 179.003 819.207 174.423 821.419 169.741 C 823.631 165.06 825.538 160.277 826.988 155.62 C 828.437 150.964 829.429 146.434 829.811 142.258 C 830.138 138.678 830.071 135.038 829.68 131.411 C 829.29 127.785 828.577 124.171 827.613 120.642 C 826.649 117.114 825.433 113.671 824.038 110.385 C 822.644 107.1 821.07 103.973 819.388 101.075 C 817.759 98.269 815.714 95.523 813.422 92.886 C 811.13 90.249 808.591 87.721 805.973 85.351 C 803.355 82.982 800.66 80.77 798.056 78.764 C 795.452 76.759 792.938 74.96 790.685 73.416 C 789.074 72.313 787.323 71.545 785.55 70.934 C 783.777 70.323 781.983 69.869 780.285 69.393 C 778.587 68.917 776.693 68.55 775.014 67.981 C 773.335 67.412 771.871 66.643 771.032 65.362 C 770.084 63.913 769.972 62.006 770.164 59.882 C 770.357 57.757 770.854 55.416 771.123 53.096 C 771.393 50.776 771.727 48.348 771.888 45.92 C 772.048 43.493 772.034 41.067 771.606 38.75 C 771.086 35.935 770.454 32.98 769.69 29.95 C 768.926 26.92 768.029 23.815 766.978 20.702 C 765.927 17.589 764.723 14.468 763.344 11.403 C 761.965 8.339 760.412 5.333 758.663 2.449 C 756.643 -0.881 753.447 -4.903 749.79 -9.061 C 746.133 -13.22 742.014 -17.515 738.147 -21.395 C 734.281 -25.274 730.667 -28.737 728.019 -31.23 C 725.372 -33.723 723.691 -35.247 723.691 -35.247"/>
    <path d="M 647.802 -63.088 C 659.322 -63.088 672.411 -60.725 684.977 -55.247 C 697.542 -49.77 710.075 -41.854 720.047 -31.5 C 730.019 -21.146 737.43 -8.355 742.737 4.595 C 748.044 17.545 750.892 30.804 751.029 42.392 C 750.975 42.821 749.818 43.138 748.113 43.401 C 746.408 43.663 744.155 43.87 741.907 44.079 C 739.659 44.288 737.416 44.499 735.732 44.768 C 734.048 45.037 732.922 45.365 732.909 45.807 L 732.37 48.178 L 731.832 50.549 L 731.293 52.92 L 730.754 55.291 L 736.772 55.043 L 742.791 54.795 L 748.809 54.547 L 754.827 54.299 C 760.471 56.284 767.067 59.764 773.566 64.506 C 780.065 69.248 786.467 75.253 791.723 82.285 C 796.978 89.318 801.088 97.378 803.884 105.17 C 806.68 112.962 808.162 120.486 808.162 126.446 C 808.162 134.26 806.368 143.217 802.676 152.16 C 798.983 161.103 793.39 170.032 785.793 177.788 C 778.196 185.545 768.594 192.129 758.956 196.774 C 749.318 201.419 739.644 204.125 731.905 204.125 L 661.612 203.801 L 591.32 203.476 L 521.027 203.151 L 450.735 202.826 C 443.002 202.826 433.646 200.583 424.416 196.459 C 415.186 192.335 406.082 186.329 398.855 178.803 C 391.628 171.277 386.279 162.231 382.736 153.112 C 379.193 143.994 377.457 134.804 377.457 126.991 C 377.457 119.261 378.89 110.746 381.691 102.411 C 384.493 94.076 388.664 85.922 394.14 78.914 C 399.616 71.907 406.398 66.046 413.718 61.905 C 421.038 57.765 428.949 55.477 436.382 54.27 C 436.711 54.319 439.693 53.633 441.502 53.506 C 443.311 53.379 444.152 53.129 446.396 52.839 C 448.64 52.549 449.648 52.974 451.464 52.866 C 453.28 52.758 455.963 53.339 456.305 53.36 L 461.03 54.141 L 462.513 52.236 L 464.145 49.405 L 465.745 45.934 L 467.646 42.286 L 469.877 37.834 L 472.317 33.191 L 474.563 28.01 C 477.916 22.738 481.594 18.794 485.402 14.646 C 489.211 10.498 493.795 7.109 498.871 4.433 C 503.946 1.758 509.513 -0.204 515.287 -1.497 C 521.061 -2.79 526.927 -4.666 532.831 -4.666 C 533.516 -4.666 535.79 -4.951 537.163 -4.778 C 538.536 -4.605 540.153 -4.523 541.815 -3.991 C 543.477 -3.459 544.373 -3.166 545.912 -2.658 C 547.379 -2.173 550.122 -1.562 551.136 -1.383 L 555.433 -0.489 L 557.079 -3.306 L 559.659 -7.258 L 561.828 -10.31 L 564.064 -13.579 L 566.058 -16.743 L 568.338 -20.165 L 571.111 -24.603 C 574.864 -31.337 580.036 -34.61 585.505 -39.801 C 590.974 -44.991 597.171 -49.386 603.838 -52.94 C 610.505 -56.493 617.769 -58.18 625.115 -60.004 C 632.461 -61.827 639.888 -63.148 647.395 -63.148 M 647.743 -70.819 C 637.237 -70.819 627.095 -69.343 617.491 -66.589 C 607.888 -63.836 598.823 -59.805 590.47 -54.695 C 582.118 -49.586 574.478 -43.397 567.724 -36.329 C 560.97 -29.261 555.102 -21.313 550.294 -12.684 C 549.095 -12.899 547.89 -13.099 546.676 -13.279 C 545.463 -13.459 544.243 -13.619 543.013 -13.752 C 541.784 -13.886 540.546 -13.992 539.298 -14.065 C 538.051 -14.138 536.794 -14.178 535.527 -14.178 C 526.335 -14.178 517.508 -12.681 509.259 -9.917 C 501.01 -7.153 493.339 -3.122 486.459 1.946 C 479.58 7.014 473.491 13.119 468.406 20.032 C 463.322 26.944 459.242 34.664 456.379 42.962 C 455.961 42.934 455.547 42.889 455.133 42.837 C 454.72 42.785 454.307 42.726 453.893 42.671 C 453.479 42.615 453.062 42.563 452.642 42.525 C 452.221 42.487 451.797 42.463 451.365 42.463 C 439.749 42.463 428.681 44.841 418.613 49.142 C 408.544 53.443 399.476 59.665 391.86 67.354 C 384.244 75.042 378.079 84.197 373.819 94.361 C 369.559 104.525 367.203 115.698 367.203 127.425 C 367.203 139.151 369.559 150.325 373.819 160.489 C 378.079 170.652 384.244 179.807 391.86 187.496 C 399.476 195.184 408.544 201.407 418.613 205.708 C 428.681 210.008 439.749 212.387 451.365 212.387 L 521.5 212.387 L 591.635 212.387 L 661.77 212.387 L 731.905 212.387 C 743.521 212.387 754.589 210.008 764.657 205.708 C 774.725 201.407 783.794 195.184 791.41 187.496 C 799.026 179.807 805.19 170.652 809.451 160.489 C 813.711 150.325 816.067 139.151 816.067 127.425 C 816.067 118.146 814.584 109.233 811.846 100.904 C 809.108 92.574 805.115 84.827 800.094 77.878 C 795.074 70.929 789.026 64.779 782.178 59.644 C 775.331 54.508 767.684 50.388 759.465 47.497 C 759.479 47.068 759.517 46.646 759.566 46.228 C 759.614 45.81 759.675 45.395 759.733 44.98 C 759.791 44.566 759.848 44.151 759.89 43.732 C 759.932 43.314 759.959 42.892 759.959 42.463 C 759.959 26.823 756.819 11.923 751.14 -1.63 C 745.461 -15.182 736.771 -27.269 726.617 -37.52 C 716.463 -47.77 704.846 -56.183 691.42 -61.916 C 677.995 -67.649 663.236 -70.819 647.743 -70.819 Z" style=""/>
  </g>
  <g transform="matrix(1, 0, 0, 1, -355.02671809354297, 156.51511261068936)"/>
  <g transform="matrix(1, 0, 0, 1, -355.02671809354297, 156.51511261068936)"/>
  <g transform="matrix(1, 0, 0, 1, -355.02671809354297, 156.51511261068936)"/>
  <g transform="matrix(1, 0, 0, 1, -355.02671809354297, 156.51511261068936)"/>
  <g transform="matrix(1, 0, 0, 1, -355.02671809354297, 156.51511261068936)"/>
  <g transform="matrix(1, 0, 0, 1, -355.02671809354297, 156.51511261068936)"/>
  <g transform="matrix(1, 0, 0, 1, -355.02671809354297, 156.51511261068936)"/>
  <g transform="matrix(1, 0, 0, 1, -355.02671809354297, 156.51511261068936)"/>
  <g transform="matrix(1, 0, 0, 1, -355.02671809354297, 156.51511261068936)"/>
  <g transform="matrix(1, 0, 0, 1, -355.02671809354297, 156.51511261068936)"/>
  <g transform="matrix(1, 0, 0, 1, -355.02671809354297, 156.51511261068936)"/>
  <g transform="matrix(1, 0, 0, 1, -355.02671809354297, 156.51511261068936)"/>
  <g transform="matrix(1, 0, 0, 1, -355.02671809354297, 156.51511261068936)"/>
  <g transform="matrix(1, 0, 0, 1, -355.02671809354297, 156.51511261068936)"/>
  <g transform="matrix(1, 0, 0, 1, -355.02671809354297, 156.51511261068936)"/>
</svg>