<?xml version="1.0" encoding="UTF-8" standalone="no"?>
<svg
   height="24px"
   viewBox="0 0 24 24"
   width="24px"
   fill="#000000"
   version="1.1"
   id="svg1110"
   sodipodi:docname="icon-battery.svg"
   inkscape:version="1.1.2 (b8e25be833, 2022-02-05)"
   xmlns:inkscape="http://www.inkscape.org/namespaces/inkscape"
   xmlns:sodipodi="http://sodipodi.sourceforge.net/DTD/sodipodi-0.dtd"
   xmlns="http://www.w3.org/2000/svg"
   xmlns:svg="http://www.w3.org/2000/svg">
  <defs
     id="defs1114" />
  <sodipodi:namedview
     id="namedview1112"
     pagecolor="#ffffff"
     bordercolor="#666666"
     borderopacity="1.0"
     inkscape:pageshadow="2"
     inkscape:pageopacity="0.0"
     inkscape:pagecheckerboard="0"
     showgrid="false"
     inkscape:zoom="36.375"
     inkscape:cx="12.027491"
     inkscape:cy="14.213058"
     inkscape:window-width="3840"
     inkscape:window-height="2066"
     inkscape:window-x="-11"
     inkscape:window-y="-11"
     inkscape:window-maximized="1"
     inkscape:current-layer="svg1110" />
  <path
     d="M 16.67,5.0000005 H 15 v -2 h -4 v 2 H 9.33 c -0.73,0 -1.33,0.6 -1.33,1.33 V 21.659999 c 0,0.74 0.6,1.34 1.33,1.34 h 7.33 c 0.74,0 1.34,-0.6 1.34,-1.33 V 6.3300005 c 0,-0.73 -0.6,-1.33 -1.33,-1.33 z M 12,20.999999 V 15.5 H 10 L 14,8.0000005 V 13.5 h 2 z"
     id="path1108-2"
     style="fill:#5a7995;fill-opacity:1" />
  <rect
     style="fill:#5a7995;fill-opacity:1"
     id="rect1263"
     width="8.7972507"
     height="16.659794"
     x="8.429554"
     y="5.405499" />
  <path
     d="M 14.67,3.0000005 H 13 v -2 H 9 v 2 H 7.33 c -0.73,0 -1.33,0.6 -1.33,1.33 V 19.66 C 6,20.4 6.6,21 7.33,21 h 7.33 C 15.4,21 16,20.4 16,19.67 V 4.3300005 c 0,-0.73 -0.6,-1.33 -1.33,-1.33 z M 10,19 V 13.500001 H 8 l 4,-7.5000005 v 5.5000005 h 2 z"
     id="path1108" />
  <path
     d="M0 0h24v24H0z"
     fill="none"
     id="path1106" />
</svg>
