<?xml version="1.0" encoding="utf-8"?>
<svg viewBox="0 0 500 500" xmlns="http://www.w3.org/2000/svg" xmlns:bx="https://boxy-svg.com">
  <title>coins-2-outline</title>
  <path style="fill: rgb(146, 183, 239);" transform="matrix(-0.09942, -1.157333, 2.292861, 0.003805, -50.046234, 921.55835)" d="M 654.883 139.132 A 58.539 58.539 0 0 1 654.883 246.088 A 3626.231 3626.231 0 0 1 654.883 139.132 Z" bx:shape="crescent 631.073 192.61 58.539 132 0.7 1@99b6082b"/>
  <ellipse style="fill: rgb(146, 183, 239);" cx="182.808" cy="300.031" rx="135.569" ry="130.386"/>
  <path style="fill: rgb(146, 183, 239);" transform="matrix(0.084926, 0.955144, -2.292865, 0.003045, 712.760254, -266.477631)" d="M 654.883 139.132 A 58.539 58.539 0 0 1 654.883 246.088 A 3626.231 3626.231 0 0 1 654.883 139.132 Z" bx:shape="crescent 631.073 192.61 58.539 132 0.7 1@99b6082b"/>
  <rect x="204.033" y="163.466" width="244.302" height="196.191" style="paint-order: stroke; fill: rgb(146, 183, 239);"/>
  <path class="cls-1" d="M 206.52 312.492 C 206.52 328.714 195.775 339.928 176.738 343.392 L 176.738 349.897 C 176.738 354.142 175.355 355.508 171.057 355.508 L 159.397 355.508 C 155.281 355.508 153.716 354.142 153.716 349.897 L 153.716 343.684 C 138.673 341.408 128.849 333.983 124.074 321.55 C 122.69 317.609 124.062 314.883 128.191 313.37 L 138.631 309.727 C 143.086 308.101 145.219 308.971 147.228 313.37 C 149.698 319.583 155.363 322.616 164.116 322.616 C 175.783 322.616 181.613 319.428 181.613 312.907 C 181.613 306.849 175.627 304.873 163.498 303.661 C 154.902 302.596 150.447 302.14 142.617 299.115 C 139.109 298.013 135.871 296.205 133.106 293.806 C 128.347 289.74 124.354 281.982 124.354 272.135 C 124.354 256.213 134.638 245.301 153.675 242.276 L 153.675 236.055 C 153.675 231.99 155.206 230.599 159.356 230.599 L 171.024 230.599 C 175.322 230.599 176.705 231.965 176.705 236.055 L 176.705 242.276 C 189.139 244.398 197.891 250.912 203.103 261.979 C 205.409 266.223 204.33 268.484 199.571 270.468 L 188.982 275.168 C 184.865 276.99 182.84 276.38 180.534 272.135 C 177.463 266.223 173.478 263.345 165.038 263.345 C 154.144 263.345 149.533 265.622 149.533 272.135 C 149.533 277.746 155.98 279.868 167.796 281.08 C 173.711 281.568 179.574 282.542 185.326 283.991 C 188.252 284.734 191.047 285.91 193.618 287.479 C 200.534 291.578 207.138 299.457 206.52 312.492 Z M 435.479 179.785 L 435.705 339.585 L 435.505 345.755 C 412.079 362.831 371.06 372.712 312.623 372.712 C 297.111 372.734 292.718 371.766 277.292 370.169 C 206.091 447.014 66.247 433.188 34.458 333.87 C 6.546 246.666 72.461 157.801 165.071 157.781 C 169.311 157.781 173.511 157.984 177.652 158.358 C 189.517 130.605 251.404 116.148 312.623 116.148 C 380.71 116.148 435.479 145.633 435.479 179.785 Z M 429.146 267.986 C 399.997 279.972 358.047 288.488 313.015 288.488 C 309.348 288.488 306.244 287.729 302.627 287.637 C 302.097 294.607 300.09 317.249 298.477 324.055 C 303.154 324.222 307.869 324.309 312.623 324.315 C 359.038 324.315 402.612 316.354 428.558 303.336 L 429.146 267.986 Z M 428.775 227.675 C 399.626 239.661 357.655 247.608 312.623 247.608 C 307.82 247.608 298.013 247.25 293.303 247.087 C 295.928 253.96 301.497 274.523 301.648 282.527 C 305.275 282.625 308.926 282.676 312.599 282.682 C 359.063 282.682 402.612 274.713 428.558 261.702 L 428.775 227.675 Z M 428.754 186.552 C 403.154 201.709 356.929 206.509 311.938 206.509 C 300.847 206.509 274.533 204.754 263.738 203.819 C 268.309 210.669 286.295 232.907 289.535 240.463 C 296.533 240.837 305.443 241.048 312.632 241.048 C 359.047 241.048 402.621 233.087 428.566 220.069 L 428.754 186.552 Z M 182.384 159.872 C 204.947 165.746 240.673 179.767 257.478 195.756 C 274.869 198.382 295.03 199.48 312.623 199.398 C 387.635 199.398 426.615 187.101 426.615 176.505 C 426.615 165.91 386.221 119.816 312.58 121.065 C 250.011 122.126 193.549 148.96 182.384 159.872 Z M 296.402 293.09 C 296.402 229.989 228.774 164.705 164.879 164.705 C 100.983 164.705 34.417 229.989 34.417 293.09 C 34.417 356.191 101.142 415.121 165.071 415.121 C 228.999 415.121 296.402 356.223 296.402 293.09 Z M 428.558 345.132 L 428.95 310.592 C 399.801 322.578 357.361 330.822 312.329 330.822 C 305.289 330.822 305.31 330.313 298.475 329.979 C 295.543 337.002 285.329 358.398 281.244 364.835 C 291.125 365.55 301.565 365.949 312.615 365.949 C 368.54 365.949 409.809 355.89 428.558 345.124 L 428.558 345.132 Z" style="fill: rgb(20, 31, 56);"/>
</svg>