<?xml version="1.0" encoding="utf-8"?>
<svg viewBox="0 0 500 500" xmlns="http://www.w3.org/2000/svg" xmlns:bx="https://boxy-svg.com">
  <title>coins-2-outline</title>
  <g transform="matrix(1, 0, 0, 1, 38.804218, 134.138138)"/>
  <g transform="matrix(1, 0, 0, 1, 38.804218, 134.138138)"/>
  <g transform="matrix(1, 0, 0, 1, 38.804218, 134.138138)"/>
  <g transform="matrix(1, 0, 0, 1, 38.804218, 134.138138)"/>
  <g transform="matrix(1, 0, 0, 1, 38.804218, 134.138138)"/>
  <g transform="matrix(1, 0, 0, 1, 38.804218, 134.138138)"/>
  <g transform="matrix(1, 0, 0, 1, 38.804218, 134.138138)"/>
  <g transform="matrix(1, 0, 0, 1, 38.804218, 134.138138)"/>
  <g transform="matrix(1, 0, 0, 1, 38.804218, 134.138138)"/>
  <g transform="matrix(1, 0, 0, 1, 38.804218, 134.138138)"/>
  <g transform="matrix(1, 0, 0, 1, 38.804218, 134.138138)"/>
  <g transform="matrix(1, 0, 0, 1, 38.804218, 134.138138)"/>
  <g transform="matrix(1, 0, 0, 1, 38.804218, 134.138138)"/>
  <g transform="matrix(1, 0, 0, 1, 38.804218, 134.138138)"/>
  <g transform="matrix(1, 0, 0, 1, 38.804218, 134.138138)"/>
  <g transform="matrix(1, 0, 0, 1, -379.199127, 295.468842)">
    <title>coins-2-outline</title>
    <g transform="matrix(1, 0, 0, 1, 459.956543, -252.107264)"/>
    <g transform="matrix(1, 0, 0, 1, 459.956543, -252.107264)"/>
    <g transform="matrix(1, 0, 0, 1, 459.956543, -252.107264)"/>
    <g transform="matrix(1, 0, 0, 1, 459.956543, -252.107264)"/>
    <g transform="matrix(1, 0, 0, 1, 459.956543, -252.107264)"/>
    <g transform="matrix(1, 0, 0, 1, 459.956543, -252.107264)"/>
    <g transform="matrix(1, 0, 0, 1, 459.956543, -252.107264)"/>
    <g transform="matrix(1, 0, 0, 1, 459.956543, -252.107264)"/>
    <g transform="matrix(1, 0, 0, 1, 459.956543, -252.107264)"/>
    <g transform="matrix(1, 0, 0, 1, 459.956543, -252.107264)"/>
    <g transform="matrix(1, 0, 0, 1, 459.956543, -252.107264)"/>
    <g transform="matrix(1, 0, 0, 1, 459.956543, -252.107264)"/>
    <g transform="matrix(1, 0, 0, 1, 459.956543, -252.107264)"/>
    <g transform="matrix(1, 0, 0, 1, 459.956543, -252.107264)"/>
    <g transform="matrix(1, 0, 0, 1, 459.956543, -252.107264)"/>
    <g transform="matrix(1, 0, 0, 1, 41.953186, -120.460787)">
      <path style="fill: rgb(146, 183, 239);" d="M 570.657 158.597 C 570.657 158.597 582.8349524897923 280.1952162370579 584.565 298.699 C 584.9921311446747 303.2673961237166 583.1414503057998 305.2705080646531 585.315 307.248 C 590.3569924259913 311.835196412892 625.9389750005251 310.5828325926579 631.493 306.93 C 633.4169722973625 305.66462061912915 633.0203725736974 304.6635132696223 633.723 301.857 C 636.4382064921289 291.01161770397255 638.349356579385 245.06909160382233 640.045 219.346 C 641.5324799836145 196.78076994503058 647.4730492383485 162.65422359761405 643.557 155.761 C 642.4391506497305 153.7933062732727 641.1764419478811 154.35722441625128 638.96 153.354 C 633.6772562270653 150.96288051100342 621.5197496049088 142.74375099574718 611.453 142.757 C 599.1871539677629 142.7731432689422 570.657 158.597 570.657 158.597 C 570.6569999999999 158.59699999999998 570.657 158.597 570.657 158.597 C 570.657 158.597 570.657 158.597 570.657 158.597" bx:d="M 570.657 158.597 R 584.565 298.699 R 585.315 307.248 R 631.493 306.93 R 633.723 301.857 R 640.045 219.346 R 643.557 155.761 R 638.96 153.354 R 611.453 142.757 R 570.657 158.597 R 570.657 158.597 Z 1@4081e242"/>
      <path style="fill: rgb(146, 183, 239);" d="M 609.307 -148.005 C 609.307 -148.005 582.335 -156.108 570.1 -153.265 C 557.405 -150.315 542.716 -138.259 534.709 -129.568 C 528.715 -123.063 529.552 -114.121 523.097 -108.72 C 514.659 -101.659 495.095 -103.734 484.532 -95.473 C 472.999 -86.453 463.435 -67.341 458.129 -54.662 C 454.11 -45.059 452.17 -37.898 452.087 -27.445 C 451.975 -13.298 455.994 10.739 462.364 22.582 C 466.832 30.889 474.454 34.269 480.113 40.37 C 485.705 46.399 493.315 51.369 496.135 58.959 C 499.289 67.449 495.397 80.076 496.135 89.66 C 496.793 98.194 497.026 107.674 499.864 113.715 C 501.993 118.247 505.531 120.024 508.942 123.974 C 513.492 129.244 518.543 137.961 524.648 142.617 C 530.374 146.984 536.845 148.979 544.121 151.606 C 552.766 154.727 563.682 159.733 573.379 159.406 C 583.163 159.076 596.345 152.171 602.562 149.479 C 605.634 148.149 606.612 146.028 609.206 145.94 C 612.73 145.82 616.745 150.071 621.88 151.619 C 629.091 153.794 640.135 155.994 648.901 156.104 C 657.178 156.208 665.333 155.006 673.088 152.711 C 680.912 150.395 689.546 146.943 695.622 142.207 C 701.162 137.889 704.617 132.55 708.662 126.173 C 713.644 118.318 719.794 106.44 722.236 97.906 C 724.084 91.448 724.364 85.619 724.202 80.057 C 724.058 75.138 721.115 70.66 721.852 66.208 C 722.618 61.58 725.576 57.833 729.079 52.856 C 734.454 45.22 746.564 36.611 752.93 26.234 C 759.809 15.022 766.097 -0.46 768.019 -12.666 C 769.621 -22.839 768.449 -33.004 766.348 -41.6 C 764.517 -49.092 761.413 -55.608 757.335 -61.688 C 753.158 -67.916 746.156 -73.094 741.423 -78.434 C 737.333 -83.049 734.859 -87.9 730.432 -91.735 C 725.708 -95.828 719.136 -99.001 713.652 -101.967 C 708.66 -104.667 702.412 -106.032 698.946 -108.961 C 696.307 -111.191 694.84 -113.726 693.525 -116.691 C 692.07 -119.97 693.111 -124.376 690.964 -127.954 C 688.116 -132.701 681.056 -137.544 675.594 -141.261 C 670.331 -144.842 664.72 -147.815 658.862 -150.002 C 652.988 -152.195 646.214 -154.513 640.395 -154.39 C 635.124 -154.278 625.41 -150.151 625.41 -150.151" bx:d="M 609.307 -148.005 R 570.1 -153.265 R 534.709 -129.568 R 523.097 -108.72 R 484.532 -95.473 R 458.129 -54.662 R 452.087 -27.445 R 462.364 22.582 R 480.113 40.37 R 496.135 58.959 R 496.135 89.66 R 499.864 113.715 R 508.942 123.974 R 524.648 142.617 R 544.121 151.606 R 573.379 159.406 R 602.562 149.479 R 609.206 145.94 R 621.88 151.619 R 648.901 156.104 R 673.088 152.711 R 695.622 142.207 R 708.662 126.173 R 722.236 97.906 R 724.202 80.057 R 721.852 66.208 R 729.079 52.856 R 752.93 26.234 R 768.019 -12.666 R 766.348 -41.6 R 757.335 -61.688 R 741.423 -78.434 R 730.432 -91.735 R 713.652 -101.967 R 698.946 -108.961 R 693.525 -116.691 R 690.964 -127.954 R 675.594 -141.261 R 658.862 -150.002 R 640.395 -154.39 R 625.41 -150.151 1@45fb5362"/>
      <path style="fill: rgb(146, 183, 239);" d="M 557.941 301.031 C 557.941 301.031 557.0039851414938 306.00011293526796 557.973 307.407 C 558.8903859066277 308.7389283539075 560.3268744554343 308.9089885601829 563.302 309.471 C 575.837415230226 311.83898301675475 657.6076956892704 316.55526634850446 664.754 309.865 C 666.5293034129813 308.20298671791494 666.4028035263996 305.1338431555542 665.142 303.616 C 662.8085745531776 300.80685982129984 653.167573124768 301.6303728980933 643.857 300.996 C 626.2817298769831 299.7985146364992 567.447 299.958 567.447 299.958" transform="matrix(0.999399, -0.034666, 0.034666, 0.999399, -10.261845, 21.393348)" bx:d="M 557.941 301.031 R 557.973 307.407 R 563.302 309.471 R 664.754 309.865 R 665.142 303.616 R 643.857 300.996 R 567.447 299.958 1@8a862839"/>
      <path style="filter: none;" d="M 690.359 -120.833 C 689.572 -121.1 688.828 -121.442 688.137 -121.848 C 687.446 -122.254 686.809 -122.725 686.235 -123.252 C 685.662 -123.778 685.151 -124.36 684.714 -124.989 C 684.277 -125.618 683.913 -126.293 683.631 -127.007 C 681.233 -133.085 677.868 -138.665 673.738 -143.616 C 669.609 -148.567 664.713 -152.889 659.252 -156.451 C 653.791 -160.012 647.765 -162.814 641.373 -164.726 C 634.981 -166.637 628.225 -167.658 621.303 -167.658 C 619.557 -167.658 617.816 -167.594 616.084 -167.468 C 614.352 -167.341 612.629 -167.151 610.918 -166.899 C 609.207 -166.646 607.508 -166.331 605.824 -165.954 C 604.14 -165.576 602.471 -165.136 600.82 -164.634 C 599.919 -164.36 598.995 -164.155 598.06 -164.018 C 597.124 -163.881 596.177 -163.813 595.23 -163.813 C 594.284 -163.813 593.337 -163.881 592.402 -164.018 C 591.467 -164.155 590.543 -164.36 589.642 -164.634 C 587.991 -165.136 586.322 -165.576 584.638 -165.954 C 582.954 -166.331 581.255 -166.646 579.544 -166.899 C 577.833 -167.151 576.11 -167.341 574.379 -167.468 C 572.647 -167.594 570.906 -167.658 569.159 -167.658 C 562.238 -167.658 555.481 -166.637 549.09 -164.726 C 542.698 -162.814 536.672 -160.012 531.211 -156.451 C 525.751 -152.889 520.855 -148.567 516.726 -143.616 C 512.596 -138.665 509.232 -133.085 506.833 -127.007 C 506.552 -126.294 506.187 -125.618 505.75 -124.99 C 505.313 -124.361 504.802 -123.778 504.228 -123.252 C 503.654 -122.725 503.017 -122.255 502.326 -121.849 C 501.635 -121.442 500.891 -121.101 500.104 -120.833 C 490.156 -117.45 481.025 -112.681 472.923 -106.81 C 464.82 -100.939 457.748 -93.966 451.919 -86.178 C 446.09 -78.39 441.505 -69.786 438.377 -60.652 C 435.249 -51.518 433.578 -41.854 433.578 -31.945 C 433.578 -24.493 434.488 -17.189 436.249 -10.141 C 438.01 -3.093 440.622 3.698 444.027 10.121 C 447.432 16.545 451.631 22.601 456.564 28.18 C 461.496 33.759 467.164 38.861 473.508 43.376 C 474.721 44.24 475.771 45.245 476.641 46.35 C 477.511 47.455 478.201 48.661 478.696 49.926 C 479.19 51.192 479.489 52.518 479.577 53.864 C 479.665 55.209 479.541 56.575 479.191 57.919 C 478.777 59.509 478.419 61.113 478.119 62.728 C 477.818 64.343 477.574 65.968 477.388 67.601 C 477.201 69.234 477.072 70.875 477.001 72.52 C 476.929 74.166 476.915 75.817 476.959 77.469 C 477.221 87.25 479.513 96.57 483.456 105.072 C 487.399 113.575 492.994 121.258 499.861 127.764 C 506.728 134.27 514.867 139.598 523.9 143.39 C 532.932 147.181 542.858 149.436 553.297 149.794 C 553.602 149.805 554.05 149.73 554.485 149.636 C 554.919 149.542 555.34 149.428 555.591 149.359 C 555.842 149.291 555.922 149.268 555.676 149.355 C 555.429 149.443 555.571 149.079 554.513 149.453 L 556.828 185.707 L 559.86 221.397 L 562.892 257.088 L 565.925 292.779 L 560.556 292.734 L 555.188 292.688 L 549.819 292.642 L 544.451 292.596 C 543.042 292.596 541.923 292.565 541.036 292.6 C 540.149 292.636 539.494 292.738 539.015 293.005 C 538.536 293.272 538.233 293.704 538.05 294.398 C 537.867 295.093 537.804 296.051 537.804 297.369 C 537.804 298.688 537.867 299.628 538.05 300.296 C 538.233 300.965 538.536 301.362 539.015 301.594 C 539.493 301.826 540.148 301.893 541.035 301.903 C 541.922 301.912 543.042 301.863 544.45 301.863 L 569.84 301.743 L 595.231 301.622 L 620.621 301.502 L 646.012 301.381 C 647.42 301.381 648.61 301.455 649.603 301.483 C 650.596 301.511 651.391 301.494 652.011 301.311 C 652.631 301.129 653.075 300.782 653.363 300.151 C 653.652 299.52 653.786 298.605 653.786 297.286 C 653.786 295.968 653.652 295.015 653.363 294.329 C 653.075 293.642 652.631 293.221 652.011 292.964 C 651.391 292.708 650.596 292.616 649.603 292.588 C 648.61 292.561 647.42 292.597 646.012 292.597 L 640.53 292.597 L 635.048 292.597 L 629.566 292.597 L 624.084 292.597 L 626.443 256.907 L 628.803 221.217 L 631.162 185.527 L 633.522 149.837 C 633.576 149.838 633.63 149.838 633.683 149.839 C 633.737 149.84 633.79 149.841 633.844 149.842 C 633.898 149.843 633.952 149.844 634.006 149.845 C 634.06 149.846 634.114 149.846 634.168 149.846 C 634.417 149.846 634.666 149.845 634.916 149.843 C 635.165 149.841 635.415 149.838 635.665 149.833 C 635.915 149.829 636.165 149.824 636.416 149.817 C 636.666 149.811 636.916 149.804 637.167 149.795 C 647.607 149.437 657.532 147.182 666.565 143.391 C 675.597 139.599 683.736 134.271 690.603 127.765 C 697.47 121.259 703.065 113.575 707.008 105.073 C 710.951 96.571 713.243 87.25 713.505 77.469 C 713.549 75.817 713.535 74.166 713.464 72.52 C 713.393 70.875 713.263 69.234 713.077 67.601 C 712.89 65.969 712.647 64.344 712.346 62.729 C 712.045 61.114 711.687 59.51 711.273 57.919 C 710.922 56.575 710.799 55.209 710.887 53.864 C 710.975 52.518 711.274 51.192 711.769 49.926 C 712.263 48.661 712.953 47.455 713.823 46.35 C 714.693 45.245 715.742 44.241 716.956 43.377 C 723.3 38.862 728.968 33.759 733.901 28.18 C 738.834 22.6 743.032 16.544 746.437 10.12 C 749.842 3.697 752.455 -3.094 754.216 -10.141 C 755.976 -17.189 756.886 -24.493 756.886 -31.945 C 756.886 -41.853 755.215 -51.518 752.087 -60.652 C 748.958 -69.786 744.373 -78.39 738.544 -86.178 C 732.715 -93.966 725.643 -100.938 717.541 -106.809 C 709.439 -112.68 700.307 -117.45 690.359 -120.833 Z M 614.618 292.639 L 604.177 292.597 L 595.231 292.597 L 586.285 292.597 L 576.014 292.597 L 572.364 256.473 L 569.054 220.529 L 565.912 184.226 L 562.861 147.385 C 564.416 146.985 568.987 146.529 571.658 146.023 C 574.328 145.517 577.364 144.961 580.384 144.36 C 583.403 143.76 586.406 143.116 589.008 142.434 C 591.61 141.752 593.812 141.033 595.23 140.281 C 596.648 141.033 598.753 141.775 601.209 142.49 C 603.665 143.205 606.473 143.894 609.297 144.538 C 612.121 145.182 614.963 145.782 617.487 146.322 C 620.011 146.861 623.234 147.488 624.788 147.888 L 622.215 183.954 L 619.581 220.168 L 617.399 256.251 L 615.031 292.597 L 614.618 292.639 Z M 715.145 36.385 C 712.316 38.399 710.17 40.11 708.593 41.744 C 707.017 43.378 706.01 44.934 705.461 46.637 C 704.913 48.34 704.822 50.19 705.076 52.413 C 705.33 54.635 705.561 57.176 706.152 60.42 C 706.46 62.11 707.093 63.554 706.955 65.895 C 706.817 68.236 707.473 70.576 707.369 73.422 C 707.265 76.268 707.198 79.048 706.89 81.414 C 706.582 83.78 706.588 84.347 706.196 86.774 C 705.038 93.949 701.939 101.587 697.919 108.301 C 693.898 115.015 688.287 121.254 681.731 126.618 C 675.175 131.982 667.674 136.472 659.874 139.687 C 652.074 142.902 643.975 143.782 636.222 144.048 C 633.48 144.143 630.666 143.572 627.842 143.152 C 625.017 142.732 622.3 142.059 619.512 141.245 C 616.724 140.432 614.252 139.607 611.566 138.837 C 608.88 138.067 606.081 137.554 603.728 136.316 L 603.612 128.129 L 603.495 119.942 L 603.379 111.755 L 603.262 103.568 L 609.224 98.128 L 615.185 92.687 L 621.146 87.246 L 627.107 81.805 C 628.103 80.873 628.85 80.211 629.348 79.683 C 629.845 79.156 630.094 78.763 630.094 78.37 C 630.094 77.977 629.845 77.585 629.348 77.057 C 628.85 76.53 628.103 75.867 627.107 74.935 C 626.112 74.003 625.335 73.324 624.667 72.887 C 623.999 72.451 623.44 72.258 622.881 72.297 C 622.323 72.337 621.764 72.609 621.096 73.105 C 620.428 73.601 619.651 74.32 618.655 75.252 L 615.064 78.892 L 611.472 82.531 L 607.881 86.17 L 604.289 89.809 L 603.473 73.483 L 602.656 57.158 L 601.84 40.832 L 601.023 24.507 L 608.358 18.22 L 615.693 11.933 L 623.028 5.645 L 630.362 -0.642 C 631.358 -1.575 632.306 -2.239 633.106 -2.769 C 633.905 -3.299 634.556 -3.695 634.958 -4.091 C 635.361 -4.487 635.514 -4.883 635.317 -5.413 C 635.121 -5.942 634.575 -6.607 633.579 -7.539 C 632.583 -8.472 631.702 -9.267 630.878 -9.878 C 630.054 -10.489 629.288 -10.916 628.521 -11.109 C 627.755 -11.302 626.988 -11.262 626.164 -10.94 C 625.34 -10.619 624.459 -10.016 623.463 -9.084 L 617.625 -3.839 L 611.786 1.406 L 605.947 6.65 L 600.108 11.895 L 600.39 -8.067 L 600.671 -28.028 L 600.952 -47.99 L 601.233 -67.952 L 607.701 -74.009 L 614.169 -80.066 L 620.637 -86.124 L 627.105 -92.181 C 628.101 -93.113 628.772 -93.729 629.156 -94.186 C 629.539 -94.643 629.636 -94.942 629.484 -95.24 C 629.332 -95.539 628.931 -95.838 628.319 -96.295 C 627.707 -96.752 626.884 -97.368 625.888 -98.3 C 624.893 -99.232 624.088 -99.818 623.378 -100.114 C 622.668 -100.41 622.054 -100.417 621.439 -100.19 C 620.825 -99.964 620.21 -99.504 619.5 -98.868 C 618.79 -98.232 617.985 -97.419 616.989 -96.487 L 611.452 -91.088 L 605.914 -85.688 L 600.377 -80.289 L 594.839 -74.89 L 590.574 -79.151 L 586.309 -83.411 L 582.044 -87.672 L 577.779 -91.933 C 576.783 -92.865 575.665 -94.073 574.487 -95.303 C 573.308 -96.533 572.069 -97.784 570.829 -98.802 C 569.59 -99.82 568.35 -100.605 567.171 -100.902 C 565.993 -101.199 564.875 -101.009 563.879 -100.077 C 562.884 -99.145 562.104 -98.418 561.557 -97.794 C 561.01 -97.171 560.695 -96.65 560.629 -96.129 C 560.564 -95.609 560.747 -95.088 561.196 -94.464 C 561.645 -93.841 562.359 -93.114 563.355 -92.182 L 569.753 -85.86 L 576.151 -79.538 L 582.549 -73.216 L 588.947 -66.894 L 588.986 -46.597 L 589.024 -26.3 L 589.063 -6.004 L 589.101 14.293 L 578.323 4.173 L 567.545 -5.947 L 556.767 -16.067 L 545.988 -26.187 C 544.993 -27.119 543.842 -28.206 542.615 -29.253 C 541.387 -30.301 540.082 -31.31 538.776 -32.085 C 537.471 -32.861 536.166 -33.403 534.938 -33.518 C 533.711 -33.634 532.56 -33.322 531.564 -32.39 C 530.569 -31.458 529.822 -30.662 529.324 -29.936 C 528.826 -29.209 528.577 -28.551 528.577 -27.893 C 528.577 -27.235 528.826 -26.577 529.324 -25.851 C 529.822 -25.124 530.569 -24.329 531.564 -23.397 L 545.615 -10.442 L 559.665 2.513 L 573.715 15.467 L 587.765 28.422 L 587.914 43.616 L 588.062 58.81 L 588.211 74.004 L 588.359 89.198 L 584.479 85.792 L 580.599 82.387 L 576.719 78.981 L 572.839 75.575 C 571.844 74.643 571.099 73.954 570.48 73.504 C 569.861 73.053 569.368 72.84 568.874 72.861 C 568.381 72.881 567.887 73.135 567.268 73.617 C 566.649 74.098 565.904 74.808 564.908 75.74 C 563.913 76.672 563.069 77.284 562.425 77.736 C 561.781 78.188 561.338 78.48 561.143 78.772 C 560.949 79.063 561.003 79.355 561.355 79.807 C 561.707 80.259 562.357 80.871 563.352 81.804 L 569.408 86.828 L 575.464 91.853 L 581.52 96.877 L 587.575 101.902 L 587.524 110.895 L 587.473 119.888 L 587.422 128.881 L 587.37 136.49 C 585.017 137.727 582.141 137.645 579.412 138.615 C 576.683 139.584 573.869 140.428 570.951 141.078 C 568.033 141.728 565.4 142.556 562.325 143.014 C 559.25 143.472 556.584 143.97 553.846 143.83 C 546.093 143.434 536.186 142.888 528.328 138.869 C 520.47 134.85 512.855 129.696 506.222 123.325 C 499.589 116.953 493.895 109.726 490.235 101.677 C 486.575 93.628 485.081 86.242 484.886 78.978 C 484.853 77.746 484.933 76.077 485.09 74.194 C 485.247 72.31 485.482 70.212 485.759 68.12 C 486.036 66.027 486.356 63.941 486.684 62.083 C 487.011 60.225 487.347 58.595 487.654 57.414 C 488.486 54.223 488.958 51.967 489.043 50.237 C 489.128 48.506 488.826 47.301 488.109 46.212 C 487.393 45.122 486.261 44.149 484.687 42.881 C 483.114 41.613 481.097 40.051 478.61 37.785 C 474.051 33.631 468.243 29.858 463.889 24.401 C 459.535 18.943 455.131 13.053 451.605 6.862 C 448.08 0.671 445.388 -6.698 443.44 -13.052 C 441.492 -19.406 441.286 -25.998 441.286 -31.945 C 441.286 -39.853 442.962 -48.458 445.842 -57.278 C 448.722 -66.098 453.372 -74.097 459.172 -81.963 C 464.973 -89.83 473.111 -96.914 480.439 -102.838 C 487.766 -108.762 495.628 -113.394 503.567 -116.093 C 505.768 -116.841 507.043 -117.102 507.768 -117.199 C 508.493 -117.296 509.931 -118.566 509.931 -118.66 C 509.932 -118.754 511.073 -120.366 511.099 -121.105 C 511.126 -121.845 511.159 -123.635 511.961 -125.668 C 513.623 -129.881 514.582 -131.227 518.964 -135.765 C 523.345 -140.303 528.763 -144.775 534.573 -148.719 C 540.384 -152.664 546.586 -156.082 552.535 -158.513 C 558.483 -160.945 564.179 -162.391 568.975 -162.391 C 570.187 -162.391 571.67 -162.29 573.285 -162.116 C 574.899 -161.943 576.646 -161.698 578.383 -161.409 C 580.121 -161.12 581.849 -160.788 583.429 -160.441 C 585.009 -160.094 586.44 -159.733 587.581 -159.386 C 589.498 -158.804 590.938 -158.303 592.14 -157.916 C 593.342 -157.53 594.307 -157.257 595.271 -157.13 C 596.236 -157.003 597.2 -157.021 598.402 -157.216 C 599.604 -157.411 601.044 -157.784 602.96 -158.366 C 604.102 -158.713 605.516 -159.104 607.071 -159.495 C 608.626 -159.887 610.322 -160.278 612.026 -160.626 C 613.73 -160.974 615.443 -161.279 617.033 -161.496 C 618.623 -161.714 620.09 -161.612 621.301 -161.612 C 626.098 -161.612 631.679 -160.558 637.457 -158.366 C 643.235 -156.174 649.98 -154.189 655.563 -150.564 C 661.147 -146.939 665.568 -141.673 669.779 -137.375 C 673.99 -133.076 676.376 -128.93 678.038 -124.717 C 678.841 -122.684 679.782 -120.773 680.197 -119.81 C 680.612 -118.848 681.345 -118.535 681.863 -118.144 C 682.382 -117.753 683.076 -117.522 684.189 -117.202 C 685.303 -116.882 686.838 -116.473 689.038 -115.725 C 696.977 -113.026 704.834 -108.333 712.153 -102.318 C 719.472 -96.304 727.51 -89.907 733.299 -81.919 C 739.089 -73.932 743.709 -64.805 746.398 -55.947 C 749.087 -47.089 751.231 -38.517 751.231 -30.609 C 751.232 -24.662 750.243 -18.403 748.443 -12.133 C 746.643 -5.864 744.031 0.415 740.786 6.402 C 737.542 12.388 733.664 18.082 729.331 23.18 C 724.998 28.278 720.21 32.781 715.145 36.385 Z"/>
    </g>
    <g transform="matrix(1, 0, 0, 1, 41.953186, -120.460787)"/>
    <g transform="matrix(1, 0, 0, 1, 41.953186, -120.460787)"/>
    <g transform="matrix(1, 0, 0, 1, 41.953186, -120.460787)"/>
    <g transform="matrix(1, 0, 0, 1, 41.953186, -120.460787)"/>
    <g transform="matrix(1, 0, 0, 1, 41.953186, -120.460787)"/>
    <g transform="matrix(1, 0, 0, 1, 41.953186, -120.460787)"/>
    <g transform="matrix(1, 0, 0, 1, 41.953186, -120.460787)"/>
    <g transform="matrix(1, 0, 0, 1, 41.953186, -120.460787)"/>
    <g transform="matrix(1, 0, 0, 1, 41.953186, -120.460787)"/>
    <g transform="matrix(1, 0, 0, 1, 41.953186, -120.460787)"/>
    <g transform="matrix(1, 0, 0, 1, 41.953186, -120.460787)"/>
    <g transform="matrix(1, 0, 0, 1, 41.953186, -120.460787)"/>
    <g transform="matrix(1, 0, 0, 1, 41.953186, -120.460787)"/>
    <g transform="matrix(1, 0, 0, 1, 41.953186, -120.460787)"/>
    <g transform="matrix(1, 0, 0, 1, 41.953186, -120.460787)"/>
  </g>
  <g transform="matrix(1, 0, 0, 1, -379.199127, 265.784607)"/>
  <g transform="matrix(1, 0, 0, 1, -379.199127, 265.784607)"/>
  <g transform="matrix(1, 0, 0, 1, -379.199127, 265.784607)"/>
  <g transform="matrix(1, 0, 0, 1, -379.199127, 265.784607)"/>
  <g transform="matrix(1, 0, 0, 1, -379.199127, 265.784607)"/>
  <g transform="matrix(1, 0, 0, 1, -379.199127, 265.784607)"/>
  <g transform="matrix(1, 0, 0, 1, -379.199127, 265.784607)"/>
  <g transform="matrix(1, 0, 0, 1, -379.199127, 265.784607)"/>
  <g transform="matrix(1, 0, 0, 1, -379.199127, 265.784607)"/>
  <g transform="matrix(1, 0, 0, 1, -379.199127, 265.784607)"/>
  <g transform="matrix(1, 0, 0, 1, -379.199127, 265.784607)"/>
  <g transform="matrix(1, 0, 0, 1, -379.199127, 265.784607)"/>
  <g transform="matrix(1, 0, 0, 1, -379.199127, 265.784607)"/>
  <g transform="matrix(1, 0, 0, 1, -379.199127, 265.784607)"/>
  <g transform="matrix(1, 0, 0, 1, -379.199127, 265.784607)"/>
</svg>