<?xml version="1.0" encoding="UTF-8" standalone="no"?>
<svg
   width="48px"
   height="60px"
   viewBox="0 0 48 60"
   version="1.1"
   id="svg301"
   xmlns="http://www.w3.org/2000/svg"
   xmlns:svg="http://www.w3.org/2000/svg"
   xmlns:rdf="http://www.w3.org/1999/02/22-rdf-syntax-ns#"
   xmlns:cc="http://creativecommons.org/ns#"
   xmlns:dc="http://purl.org/dc/elements/1.1/">
  <defs
     id="defs305" />
  <!-- Generator: Sketch 52.5 (67469) - http://www.bohemiancoding.com/sketch -->
  <title
     id="title291">icon-software</title>
  <desc
     id="desc293">Created with Sketch.</desc>
  <g
     id="Design"
     stroke="none"
     stroke-width="1"
     fill="none"
     fill-rule="evenodd">
    <g
       id="Home-v3"
       transform="translate(-331.000000, -1195.000000)">
      <g
         id="Group-10"
         transform="translate(130.000000, 1054.000000)">
        <g
           id="Group-4"
           transform="translate(201.000000, 141.000000)">
          <rect
             id="Rectangle-7"
             fill="#78BAB0"
             opacity="0.800000012"
             x="6"
             y="12"
             width="42"
             height="42"
             rx="5"
             style="fill:#d46e7d;fill-opacity:1" />
          <path
             d="M11.8962433,20.7763864 L20.2862254,29.1663685 C20.7635063,29.6532924 20.7635063,30.4325752 20.2862254,30.9194991 L11.8962433,39.3094812 C11.6022552,39.7014653 11.1066555,39.8859748 10.6279043,39.781678 C10.1491531,39.6773812 9.77521272,39.3034408 9.67091591,38.8246896 C9.5666191,38.3459384 9.7511286,37.8503387 10.1431127,37.5563506 L17.6565295,30.0429338 L10.1431127,22.529517 C9.76920723,22.0309764 9.81878512,21.3333625 10.2594369,20.8927106 C10.7000888,20.4520588 11.3977027,20.4024809 11.8962433,20.7763864 Z M32.6207513,36.4293381 C33.3123423,36.4293381 33.8729875,36.9899833 33.8729875,37.6815742 C33.8729875,38.3731652 33.3123423,38.9338104 32.6207513,38.9338104 L22.2271914,38.9338104 C21.5356005,38.9338104 20.9749553,38.3731652 20.9749553,37.6815742 C20.9749553,36.9899833 21.5356005,36.4293381 22.2271914,36.4293381 L32.6207513,36.4293381 Z M43.5778175,13.5134168 C43.5778175,9.36387129 40.2139462,6 36.0644007,6 L7.51341682,6 C3.36387129,6 0,9.36387129 0,13.5134168 L0,42.0644007 C0,46.2139462 3.36387129,49.5778175 7.51341682,49.5778175 L36.0644007,49.5778175 C40.2139462,49.5778175 43.5778175,46.2139462 43.5778175,42.0644007 L43.5778175,13.5134168 Z M41.0733453,42.1270125 C41.0733453,44.8933762 38.8307644,47.1359571 36.0644007,47.1359571 L7.51341682,47.1359571 C4.74705313,47.1359571 2.50447227,44.8933762 2.50447227,42.1270125 L2.50447227,13.5134168 C2.50447227,10.7470531 4.74705313,8.50447227 7.51341682,8.50447227 L36.0644007,8.50447227 C38.8307644,8.50447227 41.0733453,10.7470531 41.0733453,13.5134168 L41.0733453,42.1270125 Z"
             id="Shape"
             fill="#000000"
             fill-rule="nonzero" />
        </g>
      </g>
    </g>
  </g>
  <metadata
     id="metadata307">
    <rdf:RDF>
      <cc:Work
         rdf:about="">
        <dc:title>icon-software</dc:title>
      </cc:Work>
    </rdf:RDF>
  </metadata>
</svg>
