<?xml version="1.0" encoding="utf-8"?>
<svg viewBox="0 0 500 500" xmlns="http://www.w3.org/2000/svg" xmlns:bx="https://boxy-svg.com">
  <defs>
    <path id="path-0" d="M 43.64367440050199 194.8176208275455 L 80.4399386152736 220.89640869550195" style="fill: none;"/>
  </defs>
  <title>coins-2-outline</title>
  <g transform="matrix(1, 0, 0, 1, 38.804218, 134.138138)"/>
  <g transform="matrix(1, 0, 0, 1, 38.804218, 134.138138)"/>
  <g transform="matrix(1, 0, 0, 1, 38.804218, 134.138138)"/>
  <g transform="matrix(1, 0, 0, 1, 38.804218, 134.138138)"/>
  <g transform="matrix(1, 0, 0, 1, 38.804218, 134.138138)"/>
  <g transform="matrix(1, 0, 0, 1, 38.804218, 134.138138)"/>
  <g transform="matrix(1, 0, 0, 1, 38.804218, 134.138138)"/>
  <g transform="matrix(1, 0, 0, 1, 38.804218, 134.138138)"/>
  <g transform="matrix(1, 0, 0, 1, 38.804218, 134.138138)"/>
  <g transform="matrix(1, 0, 0, 1, 38.804218, 134.138138)"/>
  <g transform="matrix(1, 0, 0, 1, 38.804218, 134.138138)"/>
  <g transform="matrix(1, 0, 0, 1, 38.804218, 134.138138)"/>
  <g transform="matrix(1, 0, 0, 1, 38.804218, 134.138138)"/>
  <g transform="matrix(1, 0, 0, 1, 38.804218, 134.138138)"/>
  <g transform="matrix(1, 0, 0, 1, 38.804218, 134.138138)"/>
  <g transform="matrix(1, 0, 0, 1, -379.199127, 265.784607)"/>
  <g transform="matrix(1, 0, 0, 1, -379.199127, 265.784607)"/>
  <g transform="matrix(1, 0, 0, 1, -379.199127, 265.784607)"/>
  <g transform="matrix(1, 0, 0, 1, -379.199127, 265.784607)"/>
  <g transform="matrix(1, 0, 0, 1, -379.199127, 265.784607)"/>
  <g transform="matrix(1, 0, 0, 1, -379.199127, 265.784607)"/>
  <g transform="matrix(1, 0, 0, 1, -379.199127, 265.784607)"/>
  <g transform="matrix(1, 0, 0, 1, -379.199127, 265.784607)"/>
  <g transform="matrix(1, 0, 0, 1, -379.199127, 265.784607)"/>
  <g transform="matrix(1, 0, 0, 1, -379.199127, 265.784607)"/>
  <g transform="matrix(1, 0, 0, 1, -379.199127, 265.784607)"/>
  <g transform="matrix(1, 0, 0, 1, -379.199127, 265.784607)"/>
  <g transform="matrix(1, 0, 0, 1, -379.199127, 265.784607)"/>
  <g transform="matrix(1, 0, 0, 1, -379.199127, 265.784607)"/>
  <g transform="matrix(1, 0, 0, 1, -379.199127, 265.784607)"/>
  <title>coins-2-outline</title>
  <path style="fill: rgb(146, 183, 239);" transform="matrix(-0.099421, -1.157349, 2.28979, 0.0038, -70.671478, 848.20459)" d="M 654.883 139.132 A 58.539 58.539 0 0 1 654.883 246.088 A 3626.231 3626.231 0 0 1 654.883 139.132 Z" bx:shape="crescent 631.073 192.61 58.539 132 0.7 1@99b6082b"/>
  <ellipse style="fill: rgb(146, 183, 239);" cx="161.754" cy="226.666" rx="135.569" ry="130.386"/>
  <path style="fill: rgb(146, 183, 239);" transform="matrix(0.084926, 0.955144, -2.292865, 0.003045, 691.706726, -339.842804)" d="M 654.883 139.132 A 58.539 58.539 0 0 1 654.883 246.088 A 3626.231 3626.231 0 0 1 654.883 139.132 Z" bx:shape="crescent 631.073 192.61 58.539 132 0.7 1@99b6082b"/>
  <rect x="182.979" y="90.101" width="244.302" height="196.191" style="paint-order: stroke; fill: rgb(146, 183, 239);" rx="0.484" ry="0.484"/>
  <path class="cls-1" d="M 185.466 239.127 C 185.466 241.155 185.298 243.105 184.967 244.97 C 184.636 246.836 184.142 248.619 183.49 250.312 C 182.838 252.005 182.027 253.609 181.063 255.119 C 180.098 256.629 178.981 258.045 177.714 259.361 C 176.448 260.677 175.032 261.894 173.473 263.005 C 171.914 264.117 170.211 265.123 168.369 266.019 C 166.527 266.915 164.545 267.701 162.429 268.37 C 160.314 269.04 158.064 269.594 155.684 270.027 L 155.684 270.84 L 155.684 271.653 L 155.684 272.467 L 155.684 273.28 L 155.684 274.093 L 155.684 274.906 L 155.684 275.719 L 155.684 276.532 C 155.684 277.062 155.663 277.548 155.616 277.992 C 155.57 278.436 155.5 278.837 155.401 279.2 C 155.303 279.562 155.177 279.885 155.02 280.172 C 154.863 280.46 154.676 280.711 154.455 280.929 C 154.235 281.147 153.98 281.332 153.689 281.487 C 153.399 281.641 153.071 281.766 152.704 281.863 C 152.337 281.961 151.931 282.031 151.481 282.076 C 151.032 282.122 150.541 282.143 150.003 282.143 L 148.546 282.143 L 147.088 282.143 L 145.631 282.143 L 144.173 282.143 L 142.716 282.143 L 141.258 282.143 L 139.801 282.143 L 138.343 282.143 C 137.829 282.143 137.354 282.122 136.917 282.076 C 136.481 282.03 136.082 281.96 135.719 281.863 C 135.357 281.766 135.03 281.642 134.737 281.487 C 134.444 281.332 134.186 281.147 133.959 280.929 C 133.733 280.711 133.538 280.46 133.374 280.172 C 133.21 279.885 133.077 279.562 132.971 279.2 C 132.866 278.837 132.788 278.436 132.737 277.992 C 132.687 277.548 132.662 277.062 132.662 276.532 L 132.662 275.755 L 132.662 274.979 L 132.662 274.202 L 132.662 273.426 L 132.662 272.649 L 132.662 271.872 L 132.662 271.095 L 132.662 270.319 C 130.782 270.035 128.983 269.67 127.265 269.224 C 125.548 268.779 123.912 268.254 122.356 267.649 C 120.801 267.043 119.326 266.358 117.932 265.593 C 116.537 264.829 115.224 263.984 113.99 263.061 C 112.757 262.137 111.604 261.134 110.531 260.051 C 109.458 258.969 108.464 257.808 107.55 256.568 C 106.637 255.328 105.803 254.009 105.048 252.612 C 104.293 251.215 103.617 249.739 103.02 248.185 C 102.847 247.692 102.717 247.218 102.63 246.764 C 102.543 246.309 102.5 245.873 102.499 245.457 C 102.498 245.04 102.54 244.642 102.626 244.263 C 102.711 243.885 102.84 243.525 103.011 243.184 C 103.183 242.843 103.397 242.521 103.655 242.218 C 103.912 241.916 104.213 241.632 104.557 241.367 C 104.901 241.102 105.288 240.856 105.718 240.629 C 106.148 240.402 106.621 240.194 107.137 240.005 L 108.442 239.549 L 109.747 239.094 L 111.052 238.638 L 112.357 238.183 L 113.662 237.727 L 114.967 237.272 L 116.272 236.817 L 117.577 236.362 C 118.134 236.158 118.655 235.994 119.143 235.871 C 119.632 235.748 120.088 235.666 120.517 235.627 C 120.946 235.587 121.347 235.591 121.725 235.64 C 122.103 235.689 122.458 235.783 122.793 235.924 C 123.129 236.065 123.445 236.253 123.746 236.49 C 124.048 236.727 124.334 237.013 124.61 237.351 C 124.886 237.688 125.152 238.077 125.411 238.519 C 125.67 238.96 125.923 239.455 126.174 240.005 C 126.483 240.781 126.842 241.508 127.25 242.186 C 127.659 242.863 128.117 243.491 128.624 244.071 C 129.132 244.65 129.689 245.18 130.295 245.661 C 130.902 246.142 131.558 246.574 132.262 246.958 C 132.967 247.341 133.721 247.677 134.523 247.964 C 135.326 248.251 136.178 248.489 137.078 248.68 C 137.978 248.87 138.927 249.013 139.925 249.108 C 140.922 249.204 141.968 249.251 143.062 249.251 C 144.521 249.251 145.888 249.201 147.164 249.101 C 148.44 249.001 149.625 248.852 150.718 248.651 C 151.812 248.45 152.814 248.2 153.725 247.898 C 154.637 247.597 155.457 247.245 156.186 246.842 C 156.915 246.439 157.553 245.985 158.099 245.48 C 158.646 244.975 159.102 244.418 159.466 243.81 C 159.831 243.202 160.104 242.543 160.286 241.831 C 160.468 241.12 160.559 240.357 160.559 239.542 C 160.559 238.785 160.466 238.091 160.278 237.455 C 160.091 236.819 159.81 236.24 159.434 235.712 C 159.059 235.184 158.589 234.707 158.025 234.274 C 157.461 233.841 156.803 233.453 156.05 233.102 C 155.297 232.751 154.449 232.438 153.506 232.157 C 152.563 231.875 151.525 231.625 150.391 231.4 C 149.258 231.175 148.029 230.975 146.704 230.793 C 145.38 230.611 143.96 230.448 142.444 230.296 C 141.37 230.163 140.36 230.04 139.4 229.919 C 138.44 229.799 137.531 229.682 136.656 229.562 C 135.782 229.442 134.943 229.319 134.124 229.187 C 133.306 229.055 132.508 228.914 131.716 228.758 C 130.925 228.602 130.139 228.43 129.344 228.237 C 128.55 228.044 127.747 227.83 126.92 227.587 C 126.094 227.345 125.244 227.074 124.356 226.77 C 123.468 226.466 122.542 226.128 121.563 225.75 C 121.125 225.612 120.69 225.463 120.261 225.304 C 119.831 225.144 119.406 224.974 118.986 224.793 C 118.566 224.612 118.151 224.421 117.741 224.219 C 117.332 224.017 116.928 223.805 116.529 223.582 C 116.131 223.36 115.738 223.127 115.351 222.885 C 114.965 222.642 114.585 222.39 114.211 222.128 C 113.838 221.866 113.471 221.594 113.111 221.313 C 112.751 221.032 112.398 220.741 112.052 220.441 C 111.457 219.933 110.874 219.367 110.309 218.746 C 109.745 218.126 109.198 217.451 108.676 216.724 C 108.155 215.998 107.658 215.22 107.191 214.393 C 106.725 213.567 106.29 212.693 105.891 211.773 C 105.493 210.854 105.132 209.889 104.814 208.882 C 104.497 207.875 104.222 206.827 103.998 205.739 C 103.774 204.651 103.599 203.524 103.481 202.362 C 103.362 201.199 103.3 200.001 103.3 198.77 C 103.3 196.78 103.461 194.868 103.779 193.04 C 104.097 191.212 104.573 189.468 105.204 187.813 C 105.835 186.159 106.62 184.593 107.558 183.123 C 108.495 181.653 109.584 180.278 110.822 179.004 C 112.059 177.73 113.446 176.557 114.978 175.49 C 116.51 174.423 118.187 173.463 120.008 172.614 C 121.828 171.766 123.792 171.029 125.895 170.41 C 127.998 169.791 130.241 169.289 132.621 168.911 L 132.621 168.134 L 132.621 167.356 L 132.621 166.579 L 132.621 165.801 L 132.621 165.023 L 132.621 164.245 L 132.621 163.468 L 132.621 162.69 C 132.621 162.182 132.645 161.716 132.695 161.289 C 132.745 160.862 132.821 160.474 132.925 160.123 C 133.029 159.772 133.162 159.458 133.325 159.178 C 133.487 158.898 133.68 158.652 133.905 158.438 C 134.13 158.224 134.388 158.042 134.681 157.889 C 134.973 157.736 135.3 157.612 135.664 157.515 C 136.027 157.418 136.428 157.348 136.867 157.302 C 137.306 157.256 137.783 157.234 138.302 157.234 L 139.76 157.234 L 141.219 157.234 L 142.677 157.234 L 144.136 157.234 L 145.594 157.234 L 147.053 157.234 L 148.511 157.234 L 149.97 157.234 C 150.507 157.234 150.999 157.255 151.448 157.301 C 151.897 157.346 152.304 157.415 152.671 157.511 C 153.038 157.607 153.365 157.73 153.656 157.882 C 153.947 158.034 154.201 158.215 154.422 158.428 C 154.643 158.641 154.83 158.886 154.987 159.166 C 155.143 159.446 155.269 159.761 155.368 160.112 C 155.466 160.464 155.537 160.852 155.583 161.281 C 155.629 161.71 155.651 162.179 155.651 162.69 L 155.651 163.468 L 155.651 164.245 L 155.651 165.023 L 155.651 165.801 L 155.651 166.579 L 155.651 167.356 L 155.651 168.134 L 155.651 168.911 C 157.205 169.176 158.702 169.51 160.142 169.913 C 161.581 170.315 162.963 170.787 164.288 171.328 C 165.613 171.869 166.882 172.479 168.093 173.159 C 169.305 173.839 170.459 174.589 171.558 175.408 C 172.656 176.227 173.698 177.116 174.684 178.076 C 175.67 179.035 176.6 180.065 177.474 181.165 C 178.348 182.265 179.166 183.435 179.928 184.677 C 180.691 185.918 181.397 187.231 182.049 188.614 C 182.337 189.145 182.573 189.644 182.755 190.116 C 182.937 190.588 183.065 191.032 183.139 191.452 C 183.213 191.872 183.234 192.267 183.2 192.642 C 183.165 193.016 183.076 193.37 182.932 193.706 C 182.788 194.042 182.589 194.36 182.334 194.664 C 182.079 194.968 181.768 195.258 181.401 195.536 C 181.033 195.815 180.61 196.083 180.13 196.343 C 179.649 196.603 179.112 196.855 178.517 197.103 L 177.193 197.691 L 175.87 198.278 L 174.546 198.866 L 173.222 199.453 L 171.898 200.041 L 170.575 200.628 L 169.251 201.216 L 167.928 201.803 C 167.413 202.031 166.931 202.22 166.477 202.37 C 166.023 202.519 165.597 202.629 165.195 202.695 C 164.793 202.761 164.414 202.785 164.054 202.763 C 163.694 202.742 163.352 202.676 163.025 202.562 C 162.698 202.448 162.385 202.287 162.081 202.075 C 161.778 201.864 161.483 201.604 161.194 201.291 C 160.905 200.978 160.621 200.613 160.337 200.194 C 160.053 199.774 159.768 199.301 159.48 198.77 C 159.096 198.031 158.698 197.34 158.278 196.695 C 157.859 196.051 157.418 195.454 156.95 194.903 C 156.481 194.352 155.984 193.848 155.452 193.391 C 154.921 192.933 154.354 192.523 153.745 192.158 C 153.136 191.794 152.486 191.475 151.786 191.202 C 151.086 190.93 150.338 190.703 149.534 190.522 C 148.73 190.341 147.87 190.206 146.947 190.115 C 146.024 190.025 145.039 189.98 143.984 189.98 C 142.622 189.98 141.359 190.016 140.19 190.09 C 139.022 190.165 137.948 190.28 136.966 190.437 C 135.983 190.595 135.093 190.796 134.291 191.044 C 133.489 191.292 132.775 191.587 132.146 191.933 C 131.517 192.279 130.974 192.675 130.512 193.127 C 130.051 193.578 129.671 194.085 129.37 194.649 C 129.068 195.214 128.846 195.837 128.698 196.522 C 128.551 197.208 128.479 197.956 128.479 198.77 C 128.479 199.472 128.58 200.119 128.779 200.716 C 128.978 201.314 129.276 201.862 129.671 202.365 C 130.065 202.868 130.557 203.327 131.142 203.746 C 131.728 204.166 132.408 204.546 133.18 204.892 C 133.952 205.238 134.816 205.55 135.771 205.832 C 136.726 206.114 137.771 206.367 138.904 206.595 C 140.037 206.824 141.258 207.028 142.565 207.213 C 143.872 207.398 145.265 207.564 146.742 207.715 C 147.481 207.776 148.22 207.845 148.958 207.921 C 149.696 207.997 150.432 208.081 151.168 208.172 C 151.903 208.264 152.638 208.362 153.371 208.469 C 154.105 208.575 154.837 208.689 155.568 208.81 C 156.299 208.932 157.029 209.061 157.757 209.197 C 158.485 209.333 159.212 209.477 159.938 209.628 C 160.663 209.78 161.387 209.938 162.11 210.105 C 162.832 210.271 163.553 210.445 164.272 210.626 C 164.638 210.719 165.002 210.819 165.363 210.925 C 165.724 211.032 166.083 211.145 166.44 211.264 C 166.797 211.384 167.151 211.51 167.503 211.642 C 167.855 211.775 168.204 211.914 168.551 212.06 C 168.897 212.206 169.241 212.358 169.582 212.517 C 169.923 212.675 170.26 212.841 170.595 213.012 C 170.93 213.183 171.262 213.361 171.59 213.544 C 171.918 213.728 172.243 213.918 172.564 214.114 C 173.428 214.627 174.288 215.198 175.13 215.831 C 175.971 216.465 176.794 217.16 177.585 217.919 C 178.376 218.678 179.135 219.502 179.849 220.393 C 180.562 221.284 181.231 222.242 181.84 223.27 C 182.45 224.298 183.001 225.395 183.479 226.565 C 183.957 227.735 184.364 228.978 184.684 230.296 C 185.004 231.614 185.238 233.007 185.373 234.478 C 185.508 235.949 185.544 237.498 185.466 239.127 Z M 414.425 106.42 L 414.454 126.395 L 414.482 146.37 L 414.51 166.345 L 414.538 186.32 L 414.567 206.295 L 414.595 226.27 L 414.623 246.245 L 414.651 266.22 L 414.626 266.992 L 414.601 267.763 L 414.576 268.534 L 414.551 269.305 L 414.526 270.077 L 414.501 270.848 L 414.476 271.619 L 414.451 272.39 C 411.523 274.525 408.32 276.547 404.842 278.451 C 401.365 280.355 397.613 282.142 393.586 283.806 C 389.56 285.47 385.259 287.011 380.684 288.424 C 376.109 289.837 371.261 291.121 366.139 292.272 C 361.017 293.424 355.622 294.441 349.953 295.32 C 344.284 296.199 338.343 296.94 332.128 297.536 C 325.914 298.133 319.426 298.586 312.666 298.889 C 305.906 299.193 298.874 299.347 291.569 299.347 C 289.63 299.35 287.865 299.337 286.23 299.31 C 284.595 299.282 283.091 299.24 281.674 299.183 C 280.257 299.127 278.927 299.057 277.641 298.973 C 276.355 298.89 275.113 298.793 273.871 298.683 C 272.63 298.574 271.39 298.451 270.106 298.317 C 268.823 298.182 267.497 298.036 266.085 297.878 C 264.674 297.721 263.176 297.552 261.549 297.373 C 259.923 297.193 258.167 297.004 256.238 296.804 C 247.338 306.41 237.366 314.599 226.666 321.381 C 215.966 328.164 204.538 333.539 192.728 337.518 C 180.918 341.497 168.726 344.08 156.496 345.276 C 144.267 346.473 132 346.283 120.042 344.716 C 108.084 343.15 96.433 340.207 85.435 335.898 C 74.437 331.589 64.093 325.914 54.746 318.883 C 45.399 311.852 37.051 303.465 30.045 293.732 C 23.04 283.999 17.378 272.92 13.404 260.505 C 9.915 249.605 7.892 238.678 7.204 227.902 C 6.516 217.127 7.163 206.502 9.014 196.205 C 10.865 185.908 13.919 175.939 18.046 166.473 C 22.174 157.008 27.374 148.047 33.515 139.767 C 39.657 131.487 46.74 123.888 54.633 117.147 C 62.527 110.407 71.231 104.524 80.614 99.675 C 89.998 94.827 100.06 91.014 110.671 88.411 C 121.282 85.809 132.441 84.419 144.017 84.416 C 144.547 84.416 145.077 84.419 145.605 84.426 C 146.134 84.432 146.662 84.442 147.189 84.454 C 147.717 84.467 148.243 84.482 148.769 84.5 C 149.295 84.519 149.821 84.54 150.345 84.564 C 150.87 84.589 151.393 84.616 151.916 84.646 C 152.439 84.677 152.961 84.71 153.482 84.745 C 154.003 84.781 154.523 84.82 155.043 84.861 C 155.562 84.903 156.081 84.947 156.598 84.993 C 158.082 81.524 160.346 78.263 163.294 75.212 C 166.241 72.16 169.871 69.319 174.084 66.69 C 178.298 64.061 183.095 61.644 188.377 59.442 C 193.658 57.24 199.425 55.252 205.576 53.481 C 211.728 51.71 218.266 50.156 225.09 48.821 C 231.914 47.486 239.024 46.371 246.322 45.476 C 253.62 44.582 261.106 43.908 268.68 43.459 C 276.254 43.009 283.917 42.783 291.569 42.783 C 300.08 42.783 308.383 43.244 316.397 44.117 C 324.411 44.99 332.136 46.275 339.49 47.924 C 346.845 49.573 353.829 51.586 360.363 53.914 C 366.897 56.242 372.98 58.885 378.53 61.795 C 384.081 64.705 389.1 67.882 393.506 71.277 C 397.912 74.672 401.705 78.286 404.804 82.069 C 407.903 85.853 410.308 89.806 411.939 93.88 C 413.569 97.955 414.425 102.151 414.425 106.42 Z M 408.092 194.621 C 404.448 196.12 400.605 197.564 396.58 198.943 C 392.556 200.323 388.35 201.639 383.982 202.881 C 379.615 204.123 375.085 205.291 370.412 206.376 C 365.739 207.46 360.923 208.46 355.983 209.367 C 351.043 210.274 345.978 211.087 340.809 211.797 C 335.64 212.507 330.366 213.113 325.005 213.605 C 319.645 214.098 314.198 214.477 308.684 214.734 C 303.171 214.99 297.59 215.123 291.961 215.123 C 291.503 215.123 291.054 215.111 290.611 215.09 C 290.168 215.069 289.732 215.039 289.3 215.003 C 288.868 214.966 288.441 214.924 288.016 214.878 C 287.592 214.832 287.169 214.782 286.748 214.732 C 286.327 214.682 285.905 214.631 285.482 214.582 C 285.06 214.533 284.635 214.486 284.207 214.444 C 283.779 214.402 283.346 214.365 282.908 214.335 C 282.469 214.306 281.358 214.04 280.906 214.028 C 280.84 214.9 281.196 216.08 281.088 217.379 C 280.979 218.679 281.072 220.342 280.928 221.946 C 280.784 223.551 280.624 225.277 280.452 227.064 C 280.281 228.851 280.097 230.698 279.904 232.543 C 279.712 234.389 279.511 236.233 279.305 238.014 C 279.1 239.796 278.89 241.515 278.678 243.109 C 278.466 244.703 278.253 246.173 278.043 247.457 C 277.832 248.741 277.625 249.839 277.423 250.69 C 278.008 250.711 278.593 250.731 279.179 250.749 C 279.765 250.767 280.351 250.784 280.938 250.8 C 281.525 250.816 282.113 250.831 282.701 250.844 C 283.289 250.858 283.878 250.87 284.467 250.88 C 285.057 250.891 285.647 250.901 286.237 250.909 C 286.828 250.918 287.419 250.925 288.011 250.93 C 288.603 250.936 289.195 250.941 289.788 250.944 C 290.381 250.948 290.975 250.95 291.569 250.95 C 297.371 250.95 303.129 250.826 308.813 250.583 C 314.497 250.34 320.108 249.978 325.617 249.503 C 331.126 249.028 336.532 248.44 341.808 247.745 C 347.083 247.049 352.228 246.247 357.212 245.342 C 362.197 244.438 367.022 243.432 371.658 242.33 C 376.294 241.228 380.741 240.029 384.97 238.741 C 389.2 237.453 393.212 236.074 396.977 234.61 C 400.742 233.147 404.261 231.598 407.504 229.971 L 407.578 225.552 L 407.651 221.134 L 407.725 216.715 L 407.798 212.296 L 407.872 207.877 L 407.945 203.459 L 408.019 199.04 L 408.092 194.621 Z M 407.721 154.31 C 404.078 155.809 400.234 157.244 396.209 158.608 C 392.183 159.972 387.977 161.266 383.608 162.481 C 379.24 163.697 374.709 164.834 370.034 165.884 C 365.36 166.935 360.542 167.9 355.601 168.771 C 350.66 169.643 345.595 170.42 340.424 171.097 C 335.254 171.773 329.978 172.348 324.617 172.814 C 319.256 173.28 313.808 173.637 308.294 173.878 C 302.779 174.119 297.198 174.243 291.569 174.243 C 290.969 174.243 290.291 174.237 289.554 174.228 C 288.817 174.218 288.021 174.203 287.187 174.185 C 286.353 174.167 285.48 174.146 284.588 174.122 C 283.696 174.098 282.785 174.072 281.874 174.044 C 280.964 174.017 280.055 173.988 279.165 173.959 C 278.276 173.93 277.408 173.901 276.579 173.872 C 275.751 173.844 274.963 173.817 274.235 173.791 C 273.507 173.766 272.838 173.743 272.249 173.722 C 272.578 174.582 272.952 175.655 273.356 176.891 C 273.759 178.126 274.193 179.525 274.639 181.034 C 275.086 182.544 275.546 184.165 276.003 185.846 C 276.461 187.527 276.914 189.268 277.349 191.018 C 277.784 192.768 278.2 194.527 278.58 196.244 C 278.96 197.96 279.304 199.634 279.596 201.214 C 279.888 202.795 280.128 204.281 280.3 205.623 C 280.472 206.965 280.575 208.162 280.594 209.162 C 281.047 209.174 281.501 209.186 281.955 209.197 C 282.409 209.207 282.864 209.217 283.319 209.227 C 283.774 209.236 284.229 209.245 284.685 209.252 C 285.14 209.26 285.596 209.267 286.052 209.274 C 286.509 209.28 286.965 209.286 287.422 209.291 C 287.88 209.296 288.337 209.3 288.795 209.304 C 289.253 209.307 289.711 209.31 290.169 209.312 C 290.627 209.315 291.086 209.316 291.545 209.317 C 297.353 209.317 303.116 209.193 308.804 208.949 C 314.492 208.706 320.106 208.344 325.617 207.869 C 331.128 207.394 336.536 206.805 341.813 206.11 C 347.09 205.414 352.235 204.611 357.219 203.706 C 362.204 202.801 367.028 201.795 371.663 200.693 C 376.298 199.591 380.745 198.393 384.973 197.105 C 389.202 195.816 393.213 194.438 396.978 192.974 C 400.743 191.511 404.261 189.963 407.504 188.337 L 407.532 184.084 L 407.559 179.831 L 407.586 175.577 L 407.613 171.324 L 407.64 167.07 L 407.667 162.817 L 407.694 158.563 L 407.721 154.31 Z M 407.7 113.187 C 404.5 115.082 400.978 116.815 397.176 118.397 C 393.374 119.979 389.293 121.41 384.975 122.7 C 380.656 123.99 376.101 125.141 371.352 126.162 C 366.602 127.183 361.659 128.075 356.564 128.849 C 351.469 129.623 346.222 130.278 340.867 130.826 C 335.512 131.373 330.048 131.814 324.518 132.157 C 318.987 132.501 313.391 132.747 307.771 132.908 C 302.151 133.069 296.508 133.144 290.884 133.144 C 289.498 133.144 287.874 133.117 286.072 133.067 C 284.27 133.017 282.29 132.945 280.192 132.855 C 278.094 132.766 275.879 132.659 273.605 132.54 C 271.332 132.421 269.001 132.289 266.673 132.15 C 264.345 132.011 262.018 131.865 259.754 131.716 C 257.491 131.568 255.289 131.417 253.21 131.269 C 251.131 131.121 249.174 130.976 247.4 130.838 C 245.626 130.701 244.034 130.571 242.684 130.454 C 243.256 131.311 244.037 132.407 244.972 133.686 C 245.908 134.964 246.998 136.424 248.188 138.007 C 249.378 139.59 250.668 141.296 252.002 143.066 C 253.336 144.837 254.714 146.671 256.082 148.511 C 257.45 150.352 258.808 152.197 260.1 153.99 C 261.393 155.782 262.62 157.521 263.726 159.148 C 264.833 160.776 265.819 162.291 266.63 163.635 C 267.441 164.98 268.076 166.154 268.481 167.098 C 269.356 167.145 270.261 167.189 271.188 167.231 C 272.116 167.272 273.066 167.311 274.031 167.347 C 274.997 167.383 275.979 167.417 276.969 167.447 C 277.959 167.478 278.958 167.506 279.958 167.531 C 280.959 167.556 281.96 167.578 282.956 167.597 C 283.953 167.616 284.943 167.632 285.921 167.644 C 286.899 167.657 287.864 167.667 288.809 167.673 C 289.754 167.68 290.68 167.683 291.578 167.683 C 297.38 167.683 303.138 167.559 308.822 167.316 C 314.506 167.073 320.117 166.711 325.626 166.236 C 331.135 165.761 336.541 165.173 341.817 164.478 C 347.092 163.782 352.237 162.98 357.221 162.075 C 362.206 161.171 367.031 160.165 371.667 159.063 C 376.303 157.961 380.75 156.763 384.979 155.474 C 389.209 154.186 393.22 152.807 396.985 151.343 C 400.751 149.88 404.269 148.332 407.512 146.704 L 407.536 142.515 L 407.559 138.325 L 407.583 134.136 L 407.606 129.946 L 407.63 125.757 L 407.653 121.567 L 407.677 117.377 L 407.7 113.187 Z M 163.031 87.158 C 165.852 87.893 167.177 88.103 170.346 89.08 C 173.515 90.057 176.827 91.149 180.219 92.344 C 183.611 93.539 187.084 94.837 190.575 96.227 C 194.065 97.616 197.573 99.097 201.036 100.656 C 204.5 102.216 207.918 103.854 211.228 105.56 C 214.539 107.265 217.742 109.038 220.774 110.865 C 223.807 112.693 226.669 114.575 229.298 116.5 C 231.927 118.425 234.324 120.393 236.424 122.391 C 238.598 122.72 240.815 123.024 243.065 123.305 C 245.315 123.587 247.599 123.845 249.904 124.08 C 252.209 124.316 254.537 124.529 256.876 124.72 C 259.216 124.911 261.568 125.08 263.921 125.228 C 266.274 125.376 268.629 125.503 270.975 125.61 C 273.321 125.716 275.658 125.802 277.976 125.868 C 280.294 125.934 282.593 125.98 284.862 126.008 C 287.131 126.035 289.37 126.044 291.569 126.033 C 300.946 126.033 309.759 125.841 318.004 125.484 C 326.249 125.127 333.924 124.606 341.026 123.946 C 348.127 123.287 354.654 122.491 360.601 121.584 C 366.548 120.677 371.914 119.66 376.695 118.56 C 381.475 117.461 385.669 116.278 389.272 115.04 C 392.874 113.802 395.885 112.509 398.298 111.187 C 400.711 109.866 402.527 108.516 403.74 107.166 C 404.952 105.816 405.561 104.465 405.561 103.14 C 405.561 101.816 405.848 99.937 405.023 97.584 C 404.198 95.231 403.036 92.321 400.568 89.425 C 398.099 86.53 393.818 82.346 390.157 79.15 C 386.495 75.954 381.718 71.614 376.892 68.441 C 372.066 65.268 365.614 62.47 359.488 60.273 C 353.362 58.076 347.482 56.502 340.411 54.346 C 333.34 52.191 324.501 50.776 316.349 49.774 C 308.197 48.772 300.551 48.353 291.346 48.509 C 283.524 48.642 275.979 48.368 268.425 49.224 C 260.871 50.081 253.489 50.183 246.356 51.6 C 239.223 53.018 231.807 53.772 225.247 55.019 C 218.687 56.266 213.049 58.521 207.216 60.166 C 201.383 61.811 193.874 64.868 188.921 66.992 C 183.968 69.115 180.323 71.589 176.403 73.622 C 172.482 75.656 169.539 79.645 166.804 81.425 C 164.07 83.205 164.426 85.794 163.031 87.158 Z M 274.54 219.806 C 274.54 211.919 274.291 203.916 272.317 196.092 C 270.343 188.268 267.452 180.541 263.783 173.044 C 260.114 165.547 255.666 158.28 250.581 151.373 C 245.495 144.467 240.904 137.097 234.68 131.045 C 228.457 124.993 223.407 120.502 216.324 115.568 C 209.242 110.634 198.628 106.283 190.965 102.73 C 183.302 99.177 175.705 96.419 167.741 94.51 C 159.777 92.602 151.812 91.34 143.825 91.34 C 135.838 91.34 126.428 91.73 118.493 93.353 C 110.558 94.976 102.175 97.56 94.562 101.113 C 86.949 104.666 78.129 108.565 71.109 113.499 C 64.088 118.433 57.265 124.563 51.108 130.615 C 44.951 136.667 40.755 143.491 35.731 150.397 C 30.708 157.304 27.033 164.167 23.413 171.664 C 19.794 179.161 18.293 188.268 16.348 196.092 C 14.403 203.916 14.456 211.442 14.456 219.329 C 14.456 227.217 14.406 235.435 16.355 243.085 C 18.304 250.736 19.982 259.19 23.609 266.389 C 27.236 273.588 31.434 281.077 36.468 287.611 C 41.501 294.145 47.06 301.425 53.228 307.08 C 59.396 312.735 66.984 318.716 74.015 323.279 C 81.046 327.841 89.01 329.034 96.633 332.289 C 104.256 335.545 112.27 336.677 120.212 337.986 C 128.154 339.295 135.823 339.723 143.814 339.723 C 151.805 339.723 159.809 339.053 167.77 337.319 C 175.732 335.585 183.853 334.821 191.507 331.566 C 199.162 328.312 208.952 325.408 216.023 320.848 C 223.094 316.287 230.634 311.396 236.844 305.742 C 243.055 300.088 249.44 294.423 254.432 286.919 C 259.424 279.415 262.899 273.131 266.111 265.362 C 269.323 257.593 270.44 254.627 272.408 246.974 C 274.376 239.322 274.54 227.698 274.54 219.806 Z M 407.504 271.767 L 407.553 267.45 L 407.602 263.132 L 407.651 258.815 L 407.7 254.497 L 407.749 250.18 L 407.798 245.862 L 407.847 241.545 L 407.896 237.227 C 404.252 238.726 400.401 240.165 396.363 241.538 C 392.325 242.91 388.1 244.215 383.71 245.444 C 379.319 246.673 374.762 247.827 370.061 248.895 C 365.359 249.964 360.512 250.947 355.542 251.837 C 350.571 252.727 345.477 253.523 340.279 254.217 C 335.081 254.911 329.779 255.502 324.396 255.982 C 319.012 256.462 313.547 256.831 308.02 257.079 C 302.492 257.328 296.904 257.457 291.275 257.457 C 290.395 257.457 289.625 257.449 288.939 257.434 C 288.252 257.42 287.649 257.398 287.101 257.372 C 286.553 257.346 286.062 257.314 285.6 257.279 C 285.137 257.243 284.703 257.203 284.271 257.161 C 283.839 257.119 283.408 257.074 282.952 257.028 C 282.496 256.981 282.014 256.934 281.479 256.887 C 280.944 256.839 280.357 256.792 279.69 256.746 C 279.023 256.7 278.275 256.656 277.421 256.614 C 277.054 257.492 276.574 258.594 276.006 259.864 C 275.438 261.134 274.783 262.571 274.066 264.118 C 273.349 265.665 272.571 267.322 271.758 269.032 C 270.944 270.741 270.095 272.504 269.238 274.262 C 268.38 276.02 267.514 277.773 266.664 279.465 C 265.815 281.156 264.982 282.785 264.194 284.296 C 263.405 285.806 262.659 287.198 261.983 288.412 C 261.307 289.627 260.7 290.665 260.19 291.47 C 261.425 291.559 262.669 291.644 263.922 291.723 C 265.175 291.803 266.436 291.877 267.707 291.946 C 268.977 292.015 270.257 292.079 271.545 292.137 C 272.833 292.195 274.13 292.248 275.437 292.295 C 276.744 292.342 278.06 292.384 279.385 292.42 C 280.709 292.456 282.043 292.486 283.387 292.51 C 284.73 292.534 286.083 292.553 287.446 292.565 C 288.808 292.578 290.18 292.584 291.561 292.584 C 298.551 292.584 305.313 292.427 311.831 292.131 C 318.348 291.834 324.621 291.399 330.634 290.844 C 336.647 290.288 342.4 289.612 347.879 288.834 C 353.357 288.055 358.561 287.174 363.474 286.209 C 368.386 285.244 373.009 284.195 377.326 283.08 C 381.642 281.964 385.653 280.783 389.343 279.555 C 393.032 278.326 396.401 277.05 399.433 275.745 C 402.465 274.44 405.16 273.105 407.504 271.759 L 407.504 271.76 L 407.504 271.761 L 407.504 271.762 L 407.504 271.763 L 407.504 271.764 L 407.504 271.765 L 407.504 271.766 L 407.504 271.767 Z" style="fill: rgb(20, 31, 56);"/>
  <text style="white-space: pre; fill: rgb(51, 51, 51); font-family: Arial, sans-serif; font-size: 8.8px;" x="66.26" y="192.455"> </text>
  <text style="white-space: pre; fill: rgb(51, 51, 51); font-family: Arial, sans-serif; font-size: 8.8px;" x="128.972" y="204.399"> </text>
  <text style="white-space: pre; fill: rgb(51, 51, 51); font-family: Arial, sans-serif; font-size: 8.8px;" x="74.827" y="201.132"> </text>
</svg>