<?xml version="1.0" encoding="UTF-8" standalone="no"?>
<svg
   xmlns:dc="http://purl.org/dc/elements/1.1/"
   xmlns:cc="http://creativecommons.org/ns#"
   xmlns:rdf="http://www.w3.org/1999/02/22-rdf-syntax-ns#"
   xmlns:svg="http://www.w3.org/2000/svg"
   xmlns="http://www.w3.org/2000/svg"
   xmlns:sodipodi="http://sodipodi.sourceforge.net/DTD/sodipodi-0.dtd"
   xmlns:inkscape="http://www.inkscape.org/namespaces/inkscape"
   width="60"
   height="60"
   viewBox="0 0 60 60"
   version="1.1"
   id="svg869"
   sodipodi:docname="icon-learning.svg"
   inkscape:version="0.92.4 (5da689c313, 2019-01-14)">
  <metadata
     id="metadata875">
    <rdf:RDF>
      <cc:Work
         rdf:about="">
        <dc:format>image/svg+xml</dc:format>
        <dc:type
           rdf:resource="http://purl.org/dc/dcmitype/StillImage" />
        <dc:title></dc:title>
      </cc:Work>
    </rdf:RDF>
  </metadata>
  <defs
     id="defs873" />
  <sodipodi:namedview
     pagecolor="#ffffff"
     bordercolor="#666666"
     borderopacity="1"
     objecttolerance="10"
     gridtolerance="10"
     guidetolerance="10"
     inkscape:pageopacity="0"
     inkscape:pageshadow="2"
     inkscape:window-width="1652"
     inkscape:window-height="1010"
     id="namedview871"
     showgrid="false"
     inkscape:zoom="8.3333333"
     inkscape:cx="19.147405"
     inkscape:cy="18.14619"
     inkscape:window-x="0"
     inkscape:window-y="0"
     inkscape:window-maximized="0"
     inkscape:current-layer="svg869" />
  <path
     style="fill:#d46e7d;fill-opacity:1;stroke:#d46e7d;stroke-width:3.29411769;stroke-opacity:1"
     inkscape:connector-curvature="0"
     id="path1709"
     d="m 32,32 c 7.28,0 13.17647,-5.896471 13.17647,-13.176471 0,-7.28 -5.89647,-13.1764702 -13.17647,-13.1764702 -7.28,0 -13.176471,5.8964702 -13.176471,13.1764702 C 18.823529,26.103529 24.72,32 32,32 Z m 0,6.588235 c -8.795295,0 -26.352941,4.414117 -26.352941,13.176471 v 6.588235 H 58.352941 V 51.764706 C 58.352941,43.002352 40.795294,38.588235 32,38.588235 Z" />
  <path
     sodipodi:nodetypes="sccccccccsccccccccssccccccccsccccccccssccccc"
     inkscape:connector-curvature="0"
     id="path1713"
     d="m 30.563199,11.779941 c -0.179729,0 -0.325275,0.126889 -0.352234,0.30662 l -0.268611,1.903078 c -0.440335,0.179729 -0.84537,0.423356 -1.213813,0.701935 L 26.939496,13.9719 c -0.161756,-0.0629 -0.348529,4.27e-4 -0.438393,0.162181 l -1.439344,2.488445 c -0.08986,0.161756 -0.05256,0.350826 0.09122,0.458664 l 1.517901,1.18594 c -0.03594,0.224661 -0.06336,0.468288 -0.06336,0.701934 0,0.233647 0.01981,0.477273 0.05575,0.701935 l -1.520435,1.185938 c -0.134796,0.107843 -0.16957,0.305896 -0.0887,0.458665 l 1.436812,2.488444 c 0.08986,0.161759 0.27917,0.216098 0.440926,0.16218 l 1.789045,-0.719672 c 0.377431,0.287567 0.770945,0.522207 1.21128,0.701936 l 0.271145,1.903077 c 0.03594,0.179729 0.180107,0.306621 0.359834,0.306621 h 2.873622 c 0.17973,0 0.334263,-0.12689 0.352234,-0.306621 l 0.268611,-1.903077 c 0.440337,-0.179729 0.845369,-0.423355 1.213813,-0.701936 l 1.789046,0.719672 c 0.161756,0.0629 0.348527,-4.26e-4 0.438391,-0.16218 l 1.439344,-2.488444 c 0.08987,-0.161755 0.05255,-0.350827 -0.09122,-0.458665 l -1.500163,-1.185938 c 0.02696,-0.224662 0.04561,-0.459301 0.04561,-0.701935 0,-0.242633 -0.01981,-0.477273 -0.05575,-0.701934 l 1.520435,-1.18594 c 0.134796,-0.107843 0.169561,-0.305895 0.08869,-0.458664 L 37.509038,14.134081 C 37.419167,13.972325 37.229869,13.917983 37.068112,13.9719 l -1.789045,0.719674 c -0.37743,-0.287566 -0.770945,-0.522206 -1.211279,-0.701935 l -0.271145,-1.903078 c -0.02696,-0.179727 -0.180107,-0.30662 -0.359836,-0.30662 z m 1.43681,3.073813 c 2.272808,4e-5 4.11527,1.842502 4.11531,4.11531 -4e-5,2.272807 -1.842504,4.11527 -4.11531,4.115311 -2.272806,-4.1e-5 -4.115271,-1.842504 -4.115309,-4.115311 3.8e-5,-2.272808 1.842503,-4.11527 4.115309,-4.11531 z"
     style="fill:#d46e7d;fill-opacity:1;stroke:#ffffff;stroke-width:0.89864326;stroke-opacity:0" />
  <path
     d="M 28,28 C 35.28,28 41.17647,22.103529 41.17647,14.823529 41.17647,7.5435291 35.28,1.6470589 28,1.6470589 c -7.28,0 -13.176471,5.8964702 -13.176471,13.1764701 C 14.823529,22.103529 20.72,28 28,28 Z m 0,6.588235 c -8.795295,0 -26.3529411,4.414118 -26.3529411,13.176471 v 6.588235 H 54.352941 V 47.764706 C 54.352941,39.002353 36.795294,34.588235 28,34.588235 Z"
     id="path865"
     inkscape:connector-curvature="0"
     style="fill:none;stroke:#000000;stroke-width:3.29411769;stroke-opacity:1" />
  <path
     d="M 0,33.6 H 22.4 V 56 H 0 Z"
     id="path867"
     inkscape:connector-curvature="0"
     style="fill:none;stroke-width:0.93333334" />
  <path
     style="fill:none;stroke:#000000;stroke-width:0.89864326;stroke-opacity:1"
     d="m 26.662958,7.8804413 c -0.179729,0 -0.325275,0.1268895 -0.352234,0.3066201 L 26.042113,10.09013 c -0.440335,0.179728 -0.84537,0.423355 -1.213813,0.701934 l -1.789045,-0.719673 c -0.161756,-0.0629 -0.348529,4.27e-4 -0.438393,0.16218 l -1.439344,2.488445 c -0.08986,0.161756 -0.05256,0.350826 0.09122,0.458664 l 1.517901,1.18594 c -0.03594,0.224661 -0.06336,0.468288 -0.06336,0.701934 0,0.233647 0.01981,0.477273 0.05575,0.701935 l -1.520435,1.185938 c -0.134796,0.107843 -0.16957,0.305896 -0.0887,0.458665 l 1.436812,2.488444 c 0.08986,0.161759 0.27917,0.216099 0.440926,0.16218 l 1.789045,-0.719672 c 0.377431,0.287568 0.770945,0.522208 1.21128,0.701936 l 0.271145,1.903077 c 0.03594,0.179729 0.180107,0.306621 0.359834,0.306621 h 2.873622 c 0.17973,0 0.334263,-0.12689 0.352234,-0.306621 l 0.268611,-1.903077 c 0.440337,-0.179728 0.845369,-0.423355 1.213813,-0.701936 l 1.789046,0.719672 c 0.161756,0.0629 0.348527,-4.26e-4 0.438391,-0.16218 l 1.439344,-2.488444 c 0.08987,-0.161755 0.05255,-0.350827 -0.09122,-0.458665 l -1.500163,-1.185938 c 0.02696,-0.224662 0.04561,-0.459301 0.04561,-0.701935 0,-0.242633 -0.01981,-0.477273 -0.05575,-0.701934 l 1.520435,-1.18594 c 0.134796,-0.107843 0.169561,-0.305895 0.08869,-0.458664 l -1.436802,-2.488445 c -0.08987,-0.161755 -0.279169,-0.216097 -0.440926,-0.16218 l -1.789045,0.719673 C 31.001396,10.504498 30.607881,10.269858 30.167547,10.09013 L 29.896402,8.1870614 C 29.869438,8.0073345 29.716295,7.8804413 29.536566,7.8804413 Z m 1.43681,3.0738027 c 2.272808,4e-5 4.11527,1.842502 4.11531,4.11531 -4e-5,2.272807 -1.842504,4.11527 -4.11531,4.115311 -2.272806,-4.1e-5 -4.115271,-1.842504 -4.115309,-4.115311 3.8e-5,-2.272808 1.842503,-4.11527 4.115309,-4.11531 z"
     id="path78"
     inkscape:connector-curvature="0"
     sodipodi:nodetypes="sccccccccsccccccccssccccccccsccccccccssccccc" />
</svg>
