<?xml version="1.0" encoding="utf-8"?>
<svg viewBox="0 0 500 500" xmlns="http://www.w3.org/2000/svg">
  <g transform="matrix(0.417516, 0, 0, 0.411418, 39.858505, 24.916374)" style="">
    <path d="M 543.355 110.087 C 360.855 110.087 194.955 180.787 71.355 296.187 L 51.755 315.187 L 50.455 316.387 L 74.555 340.487 L 103.455 369.387 L 127.955 393.887 C 233.655 286.387 380.755 219.687 543.355 219.687 C 692.255 219.687 828.155 275.587 931.155 367.587 L 930.855 367.887 C 938.355 374.587 945.655 381.487 952.955 388.687 L 1006.455 334.787 L 1006.555 334.887 L 1030.655 310.787 C 905.355 186.787 733.255 110.087 543.355 110.087 Z M 955.555 342.987 C 846.255 244.787 701.755 184.987 543.255 184.987 C 381.455 184.987 234.255 247.287 124.155 349.187 L 131.205 351.89 C 248.705 242.59 370.624 189.818 543.724 189.818 C 713.424 189.818 834.737 239.594 951.437 345.194 L 955.555 342.987 Z" style="paint-order: fill; fill-rule: nonzero; fill: rgb(146, 183, 239);"/>
    <path d="M 502.9 104.5 C 320.4 104.5 154.5 175.2 30.9 290.6 L 11.3 309.6 L 10 310.8 L 34.1 334.9 L 63 363.8 L 87.5 388.3 C 193.2 280.8 340.3 214.1 502.9 214.1 C 651.8 214.1 787.7 270 890.7 362 L 890.4 362.3 C 897.9 369 905.2 375.9 912.5 383.1 L 966 329.2 L 966.1 329.3 L 990.2 305.2 C 864.9 181.2 692.8 104.5 502.9 104.5 Z M 916.172 359.294 C 806.872 261.094 659.893 200.368 501.393 200.368 C 339.593 200.368 199.965 266.834 89.865 368.734 L 30.983 307.781 C 148.483 198.481 329.7 114.629 502.8 114.629 C 672.5 114.629 853.196 194.634 969.896 300.234 L 916.172 359.294 Z"/>
    <path d="M 531.124 707.902 C 476.524 707.902 432.224 752.202 432.224 806.802 C 432.224 861.402 476.524 905.602 531.124 905.602 C 585.724 905.602 629.924 861.302 629.924 806.802 C 629.924 752.202 585.624 707.902 531.124 707.902 Z M 523.627 733.105 C 488.627 733.105 495.996 874.029 495.996 839.129 C 495.996 804.129 490.546 812.108 525.546 812.108 C 560.546 812.108 530.182 726.006 530.182 760.906 C 530.182 795.906 558.527 733.105 523.627 733.105 Z" style="fill: rgb(146, 183, 239);"/>
    <path d="M 502.9 697.7 C 496.075 697.7 489.411 698.392 482.974 699.71 C 476.537 701.028 470.328 702.972 464.412 705.475 C 458.496 707.978 452.875 711.041 447.613 714.596 C 442.352 718.152 437.45 722.2 432.975 726.675 C 428.5 731.15 424.451 736.052 420.896 741.313 C 417.34 746.575 414.278 752.197 411.775 758.113 C 409.272 764.029 407.328 770.238 406.01 776.674 C 404.692 783.111 404 789.775 404 796.6 C 404 803.425 404.692 810.087 406.01 816.521 C 407.328 822.955 409.272 829.161 411.775 835.072 C 414.278 840.983 417.34 846.599 420.896 851.855 C 424.451 857.111 428.5 862.006 432.975 866.475 C 437.45 870.944 442.352 874.986 447.613 878.536 C 452.875 882.085 458.496 885.142 464.412 887.641 C 470.328 890.139 476.537 892.079 482.974 893.394 C 489.411 894.709 496.075 895.4 502.9 895.4 C 509.725 895.4 516.387 894.708 522.822 893.39 C 529.256 892.072 535.461 890.129 541.372 887.627 C 547.283 885.125 552.9 882.063 558.155 878.509 C 563.411 874.956 568.306 870.91 572.775 866.438 C 577.244 861.966 581.286 857.068 584.836 851.811 C 588.386 846.555 591.443 840.939 593.941 835.03 C 596.44 829.121 598.379 822.92 599.694 816.493 C 601.01 810.066 601.7 803.413 601.7 796.6 C 601.7 789.775 601.008 783.111 599.69 776.674 C 598.372 770.238 596.429 764.028 593.927 758.112 C 591.425 752.197 588.363 746.575 584.809 741.313 C 581.256 736.052 577.21 731.15 572.738 726.675 C 568.266 722.2 563.368 718.152 558.111 714.596 C 552.855 711.041 547.239 707.978 541.33 705.475 C 535.422 702.972 529.22 701.028 522.793 699.71 C 516.366 698.392 509.713 697.7 502.9 697.7 Z M 501.962 883.144 C 497.587 883.144 492.264 882.575 486.84 881.333 C 481.416 880.09 475.891 878.175 471.11 875.481 C 466.329 872.788 461.565 870.34 456.949 867.486 C 452.333 864.632 447.866 861.372 443.679 857.053 C 439.493 852.734 435.956 847.828 432.818 842.783 C 429.681 837.738 426.941 832.554 424.348 827.68 C 421.755 822.805 420.037 817.216 418.967 811.756 C 417.898 806.295 417.476 800.963 417.476 796.6 C 417.476 792.225 417.718 787.299 418.588 782.29 C 419.457 777.282 420.954 772.192 423.463 767.489 C 425.972 762.786 428.419 757.159 431.274 751.684 C 434.129 746.209 437.393 740.885 441.535 736.789 C 445.678 732.692 450.616 729.41 455.744 726.513 C 460.871 723.616 466.189 721.104 471.09 718.548 C 475.992 715.991 481.552 714.702 487.082 714.031 C 492.613 713.36 498.115 713.307 502.9 713.225 C 507.686 713.143 512.898 713.277 518.18 714.063 C 523.461 714.85 528.813 716.289 533.876 718.819 C 538.939 721.348 544.652 723.819 549.72 727.279 C 554.789 730.74 559.212 735.19 563.57 739.331 C 567.929 743.472 571.519 748.452 574.687 753.586 C 577.855 758.719 580.602 764.005 583.272 768.757 C 585.943 773.509 588.068 778.288 589.526 782.971 C 590.985 787.653 591.775 792.237 591.775 796.6 C 591.775 800.975 591.445 805.846 590.403 810.843 C 589.361 815.84 587.608 820.963 584.761 825.84 C 581.914 830.717 578.657 836.42 574.981 841.982 C 571.304 847.544 567.209 852.966 562.686 857.281 C 558.164 861.596 553.389 864.806 548.489 867.608 C 543.588 870.411 538.561 872.807 533.533 875.497 C 528.505 878.187 522.794 880.099 517.248 881.338 C 511.703 882.577 506.324 883.144 501.962 883.144 Z"/>
    <path d="M 548.207 298.792 C 418.007 298.792 299.407 348.192 209.907 429.192 L 209.107 428.392 C 202.307 434.592 195.607 440.892 189.007 447.492 L 188.207 450.092 L 214.207 476.092 L 249.907 511.792 L 274.007 535.892 C 343.607 464.492 440.807 420.092 548.307 420.092 C 642.107 420.092 728.007 453.892 794.607 509.892 L 794.107 510.392 C 801.907 516.992 809.607 523.992 817.007 531.392 L 902.607 445.192 L 902.307 444.892 L 902.707 444.492 C 811.407 354.392 686.307 298.792 548.207 298.792 Z M 818.607 485.592 C 745.807 423.492 651.307 385.992 548.107 385.992 C 442.007 385.992 345.107 425.692 271.507 490.892 L 273.97 497.936 C 356.77 423.536 427.538 394.557 547.638 394.557 C 664.738 394.557 723.888 417.947 805.888 489.147 L 818.607 485.592 Z" style="fill: rgb(146, 183, 239);"/>
    <path d="M 760.709 585.974 C 705.709 531.974 630.309 498.674 547.109 498.674 C 471.909 498.674 403.009 525.874 349.809 571.074 L 349.209 570.474 C 342.409 576.274 335.709 582.374 329.309 588.774 L 327.809 591.674 L 352.909 616.774 L 387.209 651.074 L 412.109 675.874 C 446.009 640.074 493.909 617.774 547.109 617.774 C 586.409 617.774 623.009 629.974 653.009 650.874 L 652.209 651.674 C 660.809 657.674 668.909 664.474 676.609 672.074 L 760.909 587.174 L 760.109 586.374 L 760.709 585.974 Z M 678.209 625.874 C 641.509 598.774 596.209 582.774 547.109 582.774 C 495.109 582.774 447.309 600.774 409.509 630.774 L 411.718 644.191 C 458.418 605.491 477.236 595.759 542.736 595.759 C 605.236 595.759 633.55 598.311 679.25 634.011 L 678.209 625.874 Z" style="fill: rgb(146, 183, 239);"/>
    <path d="M 716.4 578.7 C 661.4 524.7 586 491.4 502.8 491.4 C 427.6 491.4 358.7 518.6 305.5 563.8 L 304.9 563.2 C 298.1 569 291.4 575.1 285 581.5 L 283.5 584.4 L 308.6 609.5 L 342.9 643.8 L 367.8 668.6 C 401.7 632.8 449.6 610.5 502.8 610.5 C 542.1 610.5 578.7 622.7 608.7 643.6 L 607.9 644.4 C 616.5 650.4 624.6 657.2 632.3 664.8 L 716.6 579.9 L 715.8 579.1 L 716.4 578.7 Z M 632.962 646.253 C 596.262 619.153 551.9 597.225 502.8 597.225 C 450.8 597.225 406.5 622.31 368.7 652.31 L 302.141 584.936 C 348.841 546.236 436.931 502.889 502.431 502.889 C 564.931 502.889 651.626 544.023 697.326 579.723 L 632.962 646.253 Z"/>
    <path d="M 502.9 292.4 C 372.7 292.4 254.1 341.8 164.6 422.8 L 163.8 422 C 157 428.2 150.3 434.5 143.7 441.1 L 142.9 443.7 L 168.9 469.7 L 204.6 505.4 L 228.7 529.5 C 298.3 458.1 395.5 413.7 503 413.7 C 596.8 413.7 682.7 447.5 749.3 503.5 L 748.8 504 C 756.6 510.6 764.3 517.6 771.7 525 L 857.3 438.8 L 857 438.5 L 857.4 438.1 C 766.1 348 641 292.4 502.9 292.4 Z M 772.781 509.667 C 699.981 447.567 605.531 400.054 502.331 400.054 C 396.231 400.054 299.331 447.573 225.731 512.773 L 157.861 443.965 C 240.661 369.565 383.638 303.331 503.738 303.331 C 620.838 303.331 759.823 366.559 841.823 437.759 L 772.781 509.667 Z"/>
  </g>
</svg>