<?xml version="1.0" encoding="UTF-8" standalone="no"?>
<!-- Created with Inkscape (http://www.inkscape.org/) -->

<svg
   xmlns:dc="http://purl.org/dc/elements/1.1/"
   xmlns:cc="http://creativecommons.org/ns#"
   xmlns:rdf="http://www.w3.org/1999/02/22-rdf-syntax-ns#"
   xmlns:svg="http://www.w3.org/2000/svg"
   xmlns="http://www.w3.org/2000/svg"
   xmlns:sodipodi="http://sodipodi.sourceforge.net/DTD/sodipodi-0.dtd"
   xmlns:inkscape="http://www.inkscape.org/namespaces/inkscape"
   width="60"
   height="60"
   viewBox="0 0 15.875 15.875"
   version="1.1"
   id="svg3083"
   inkscape:version="0.92.4 (5da689c313, 2019-01-14)"
   sodipodi:docname="icon-brain2-purple.svg">
  <defs
     id="defs3077" />
  <sodipodi:namedview
     id="base"
     pagecolor="#ffffff"
     bordercolor="#666666"
     borderopacity="1.0"
     inkscape:pageopacity="0.0"
     inkscape:pageshadow="2"
     inkscape:zoom="7.9195959"
     inkscape:cx="39.485158"
     inkscape:cy="12.538136"
     inkscape:document-units="mm"
     inkscape:current-layer="layer1"
     showgrid="false"
     units="px"
     inkscape:window-width="1680"
     inkscape:window-height="1005"
     inkscape:window-x="0"
     inkscape:window-y="1"
     inkscape:window-maximized="1" />
  <metadata
     id="metadata3080">
    <rdf:RDF>
      <cc:Work
         rdf:about="">
        <dc:format>image/svg+xml</dc:format>
        <dc:type
           rdf:resource="http://purl.org/dc/dcmitype/StillImage" />
        <dc:title></dc:title>
      </cc:Work>
    </rdf:RDF>
  </metadata>
  <g
     inkscape:label="Layer 1"
     inkscape:groupmode="layer"
     id="layer1"
     transform="translate(0,-281.12498)">
    <g
       id="g4304"
       transform="translate(0.25010371,0.15022347)"
       style="fill:#7e6893;fill-opacity:1">
      <line
         style="fill:#7e6893;fill-opacity:1;stroke:none;stroke-width:0.38477215;stroke-linecap:round;stroke-linejoin:round;stroke-miterlimit:10;stroke-opacity:1"
         class="st1"
         id="line3856"
         x1="10.307401"
         x2="10.050887"
         y1="284.94635"
         y2="282.44534" />
      <line
         style="fill:#7e6893;fill-opacity:1;stroke:none;stroke-width:0.38477215;stroke-linecap:round;stroke-linejoin:round;stroke-miterlimit:10;stroke-opacity:1"
         class="st1"
         id="line3872"
         x1="6.3185973"
         x2="6.5622869"
         y1="284.94635"
         y2="282.44534" />
      <path
         style="fill:#7e6893;fill-opacity:1;stroke:none;stroke-width:0.38477215;stroke-linecap:round;stroke-linejoin:round;stroke-miterlimit:10"
         inkscape:connector-curvature="0"
         class="st2"
         d="m 8.3707158,295.71997 c 0,0 0.5899839,1.15431 1.6929972,0.96193 1.103013,-0.19239 2.026467,-1.24409 2.526671,-2.50103 0,0 2.103421,-1.15431 2.026467,-3.55272 0,0 0.846498,-2.6934 -0.256515,-4.32227 0,0 0,-2.20603 -1.769952,-3.36035 -1.769952,-1.15432 -2.526671,-0.47455 -2.526671,-0.47455 0,0 -1.7699516,-0.28216 -1.7699516,0.57716 z"
         id="path3882" />
      <path
         style="fill:#7e6893;fill-opacity:1;stroke:none;stroke-width:0.38477215;stroke-linecap:round;stroke-linejoin:round;stroke-miterlimit:10"
         inkscape:connector-curvature="0"
         class="st2"
         d="m 8.3835415,295.71997 c 0,0 -0.7182413,1.15431 -1.8212549,0.96193 -1.1030135,-0.19239 -2.0264668,-1.24409 -2.5266705,-2.50103 0,0 -2.1034212,-1.15431 -2.0264668,-3.55272 0,0 -0.8464987,-2.6934 0.2565148,-4.32227 0,0 0,-2.20603 1.769952,-3.36035 1.7699519,-1.15432 2.5266705,-0.47455 2.5266705,-0.47455 0,0 1.7699519,-0.28216 1.7699519,0.57716 z"
         id="path3884" />
    </g>
    <g
       id="g4308"
       style="stroke:#000000;stroke-opacity:1"
       transform="translate(-0.25010371,-0.15022851)">
      <path
         id="XMLID_3_"
         d="m 7.8127145,295.06161 c 0,0 0.5899839,1.15431 1.6929975,0.96192 1.103013,-0.19238 2.026467,-1.24409 2.52667,-2.50102 0,0 2.103422,-1.15431 2.026467,-3.55272 0,0 0.846499,-2.69341 -0.256514,-4.32228 0,0 0,-2.20602 -1.769953,-3.36034 -1.769952,-1.15432 -2.52667,-0.47455 -2.52667,-0.47455 0,0 -1.769952,-0.28217 -1.769952,0.57716 z"
         class="st2"
         inkscape:connector-curvature="0"
         style="fill:none;stroke:#000000;stroke-width:0.38477215;stroke-linecap:round;stroke-linejoin:round;stroke-miterlimit:10;stroke-opacity:1" />
      <path
         id="XMLID_2_"
         d="m 7.8255401,295.06161 c 0,0 -0.7182413,1.15431 -1.8212548,0.96192 -1.1030135,-0.19238 -2.0264668,-1.24409 -2.5266705,-2.50102 0,0 -2.1034212,-1.15431 -2.0264668,-3.55272 0,0 -0.84649875,-2.69341 0.2565148,-4.32228 0,0 0,-2.20602 1.769952,-3.36034 1.7699519,-1.15432 2.5266705,-0.47455 2.5266705,-0.47455 0,0 1.7699519,-0.28217 1.7699519,0.57716 z"
         class="st2"
         inkscape:connector-curvature="0"
         style="fill:none;stroke:#000000;stroke-width:0.38477215;stroke-linecap:round;stroke-linejoin:round;stroke-miterlimit:10;stroke-opacity:1" />
    </g>
    <path
       style="fill:none;stroke:#000000;stroke-width:0.39687499;stroke-linecap:butt;stroke-linejoin:miter;stroke-miterlimit:4;stroke-dasharray:none;stroke-opacity:1;paint-order:markers stroke fill"
       d="m 7.4673039,285.42398 -1.9711128,-0.0334 v -1.20271 H 4.1264348 l -0.033409,-0.0334"
       id="path4310"
       inkscape:connector-curvature="0" />
    <circle
       style="fill:none;fill-opacity:1;stroke:#000000;stroke-width:0.39687499;stroke-linecap:square;stroke-linejoin:round;stroke-miterlimit:4;stroke-dasharray:none;stroke-opacity:1;paint-order:markers stroke fill"
       id="path4314"
       cx="3.5920556"
       cy="284.18759"
       r="0.46772167" />
    <path
       style="fill:none;stroke:#000000;stroke-width:0.39687499;stroke-linecap:round;stroke-linejoin:miter;stroke-miterlimit:4;stroke-dasharray:none;stroke-opacity:1"
       d="m 1.4575591,285.49728 c 2.1623628,0.0144 2.1623628,0.0144 2.1623628,0.0144 v 1.38228 l 0.00538,-0.0334"
       id="path4316"
       inkscape:connector-curvature="0"
       sodipodi:nodetypes="cccc" />
    <circle
       r="0.46772167"
       cy="287.29462"
       cx="3.625464"
       id="circle4318"
       style="fill:none;fill-opacity:1;stroke:#000000;stroke-width:0.39687499;stroke-linecap:square;stroke-linejoin:round;stroke-miterlimit:4;stroke-dasharray:none;stroke-opacity:1;paint-order:markers stroke fill" />
    <path
       style="fill:none;stroke:#000000;stroke-width:0.39687499;stroke-linecap:butt;stroke-linejoin:miter;stroke-miterlimit:4;stroke-dasharray:none;stroke-opacity:1"
       d="m 7.4338952,288.1969 h -1.837478 v 1.1693 H 3.5197064 v 0 1.06908 h -0.028037"
       id="path4320"
       inkscape:connector-curvature="0"
       sodipodi:nodetypes="ccccc" />
    <circle
       style="fill:none;fill-opacity:1;stroke:#000000;stroke-width:0.39687499;stroke-linecap:square;stroke-linejoin:round;stroke-miterlimit:4;stroke-dasharray:none;stroke-opacity:1;paint-order:markers stroke fill"
       id="circle4322"
       cx="3.5252378"
       cy="290.90274"
       r="0.46772167" />
    <path
       style="fill:none;stroke:#000000;stroke-width:0.39687499;stroke-linecap:butt;stroke-linejoin:miter;stroke-miterlimit:4;stroke-dasharray:none;stroke-opacity:1"
       d="m 3.2275111,293.37228 h 2.4691321 v -1.0327 0.10022"
       id="path4324"
       inkscape:connector-curvature="0" />
    <circle
       r="0.46772167"
       cy="291.93842"
       cx="5.6633945"
       id="circle4326"
       style="fill:none;fill-opacity:1;stroke:#000000;stroke-width:0.39687499;stroke-linecap:square;stroke-linejoin:round;stroke-miterlimit:4;stroke-dasharray:none;stroke-opacity:1;paint-order:markers stroke fill" />
    <path
       style="fill:none;stroke:#000000;stroke-width:0.39687499;stroke-linecap:butt;stroke-linejoin:miter;stroke-miterlimit:4;stroke-dasharray:none;stroke-opacity:1"
       d="m 7.5675299,283.11878 h 2.0045214 v 0.60135 h 1.6370257 v 0"
       id="path4328"
       inkscape:connector-curvature="0" />
    <path
       style="fill:none;stroke:#000000;stroke-width:0.39687499;stroke-linecap:butt;stroke-linejoin:miter;stroke-miterlimit:4;stroke-dasharray:none;stroke-opacity:1"
       d="m 13.552231,285.49728 h -3.111554 v 1.49691 h 0.03341"
       id="path4330"
       inkscape:connector-curvature="0" />
    <path
       style="fill:none;stroke:#000000;stroke-width:0.39687499;stroke-linecap:butt;stroke-linejoin:miter;stroke-miterlimit:4;stroke-dasharray:none;stroke-opacity:1"
       d="m 7.6009386,289.03212 h 2.4722424 v 0.93544 h 1.971113 v -0.0334"
       id="path4332"
       inkscape:connector-curvature="0" />
    <path
       style="fill:none;stroke:#000000;stroke-width:0.39687499;stroke-linecap:butt;stroke-linejoin:miter;stroke-miterlimit:4;stroke-dasharray:none;stroke-opacity:1"
       d="M 11.782278,293.37228 H 10.37386 v -1.13293 H 9.271373"
       id="path4334"
       inkscape:connector-curvature="0" />
    <circle
       r="0.46772167"
       cy="283.71988"
       cx="11.509915"
       id="circle4336"
       style="fill:none;fill-opacity:1;stroke:#000000;stroke-width:0.39687499;stroke-linecap:square;stroke-linejoin:round;stroke-miterlimit:4;stroke-dasharray:none;stroke-opacity:1;paint-order:markers stroke fill" />
    <circle
       style="fill:none;fill-opacity:1;stroke:#000000;stroke-width:0.39687499;stroke-linecap:square;stroke-linejoin:round;stroke-miterlimit:4;stroke-dasharray:none;stroke-opacity:1;paint-order:markers stroke fill"
       id="circle4338"
       cx="10.440837"
       cy="287.46164"
       r="0.46772167" />
    <circle
       r="0.46772167"
       cy="289.93387"
       cx="12.578993"
       id="circle4340"
       style="fill:none;fill-opacity:1;stroke:#000000;stroke-width:0.39687499;stroke-linecap:square;stroke-linejoin:round;stroke-miterlimit:4;stroke-dasharray:none;stroke-opacity:1;paint-order:markers stroke fill" />
    <circle
       style="fill:none;fill-opacity:1;stroke:#000000;stroke-width:0.39687499;stroke-linecap:square;stroke-linejoin:round;stroke-miterlimit:4;stroke-dasharray:none;stroke-opacity:1;paint-order:markers stroke fill"
       id="circle4342"
       cx="8.9708538"
       cy="292.20566"
       r="0.46772167" />
  </g>
  <style
     id="style3713"
     type="text/css">
	.st0{fill:#FF76B8;}
	.st1{fill:none;stroke:#FFFFFF;stroke-width:3;stroke-linecap:round;stroke-linejoin:round;stroke-miterlimit:10;}
	.st2{fill:none;stroke:#231F20;stroke-width:3;stroke-linecap:round;stroke-linejoin:round;stroke-miterlimit:10;}
</style>
</svg>
