<?xml version="1.0" encoding="utf-8"?>
<svg viewBox="0 0 500 500" xmlns="http://www.w3.org/2000/svg" xmlns:bx="https://boxy-svg.com">
  <title>coins-2-outline</title>
  <g transform="matrix(1, 0, 0, 1, 68.868973, 54.797482)"/>
  <g transform="matrix(1, 0, 0, 1, 68.868973, 54.797482)"/>
  <g transform="matrix(1, 0, 0, 1, 68.868973, 54.797482)"/>
  <g transform="matrix(1, 0, 0, 1, 68.868973, 54.797482)"/>
  <g transform="matrix(1, 0, 0, 1, 68.868973, 54.797482)"/>
  <g transform="matrix(1, 0, 0, 1, 68.868973, 54.797482)"/>
  <g transform="matrix(1, 0, 0, 1, 68.868973, 54.797482)"/>
  <g transform="matrix(1, 0, 0, 1, 68.868973, 54.797482)"/>
  <g transform="matrix(1, 0, 0, 1, 68.868973, 54.797482)"/>
  <g transform="matrix(1, 0, 0, 1, 68.868973, 54.797482)"/>
  <g transform="matrix(1, 0, 0, 1, 68.868973, 54.797482)"/>
  <g transform="matrix(1, 0, 0, 1, 68.868973, 54.797482)"/>
  <g transform="matrix(1, 0, 0, 1, 68.868973, 54.797482)"/>
  <g transform="matrix(1, 0, 0, 1, 68.868973, 54.797482)"/>
  <g transform="matrix(1, 0, 0, 1, 68.868973, 54.797482)"/>
  <g transform="matrix(1, 0, 0, 1, -349.134368, 186.443957)">
    <path style="fill: rgb(146, 183, 239);" d="M 723.691 -35.247 C 723.691 -35.247 691.5751115886578 -51.086435315915104 678.72 -53.327 C 669.6801134999221 -54.90259506975272 663.8084304279527 -54.09465766635074 654.768 -52.437 C 642.2201673285176 -50.13622337329688 622.4053886000171 -44.75728208059604 611.019 -37.669 C 601.7917654875246 -31.92483972708097 595.501307959119 -23.620334425856374 589.635 -16.17 C 584.3857904574265 -9.503393535404815 582.9001164972468 0.9836201151340672 576.918 4.512 C 571.2746273989069 7.84058151085231 563.1413621365133 4.8921132961970795 555.334 5.512 C 546.0199864760624 6.251511379333545 534.5257723891731 5.5087035549696886 524.776 8.954 C 514.3088865951652 12.652784665317185 502.45904628455145 19.592922202895586 494.883 27.996 C 487.4026946261783 36.29288542564694 486.4587017648023 53.13100521718602 479.427 58.899 C 474.0699760910261 63.29328277704281 467.48832098317075 62.12302213789165 460.083 64.189 C 450.0617829989946 66.98477516255019 434.82623890300744 68.36643031188919 424.76 74.239 C 415.0346269312118 79.91271106921283 406.1555386575967 87.18592529639666 400.367 98.324 C 392.4641563951528 113.5303357694201 386.5083249346559 143.3521147121742 389.757 161.332 C 392.4788663494575 176.3962473462807 403.2254587912203 190.89781005999458 412.212 200.159 C 419.41631160301614 207.58349142472431 428.12968359248595 211.64042077178428 436.72 215.335 C 445.03947761721327 218.91309511734352 449.2462193556564 220.4691531685211 462.863 222.231 C 507.97701762492943 228.06820859458674 731.7986021632825 223.56058018336756 759.644 222.065 C 764.2199055986744 221.8192274750582 764.1860572941666 222.48731690334807 767.613 221.211 C 775.8555877200477 218.1411634321116 795.6161103831874 206.84718190150295 805.715 194.791 C 816.9901578874128 181.33057418917508 828.2853314826793 158.96190430187394 829.811 142.258 C 831.1190148956335 127.93709385686098 826.1147165294193 112.66429083474065 819.388 101.075 C 812.8720744265254 89.84887560509554 799.6983015089994 79.59112115915605 790.685 73.416 C 784.2409702983763 69.00111782602694 775.556182226772 69.96238136528001 772.203 64.84 C 768.4080640499091 59.04278771670269 773.3178088139304 48.01571380889321 771.606 38.75 C 769.5257585343336 27.490026387644555 765.6583624171285 13.982272927717595 758.663 2.449 C 750.582757096331 -10.872918318639952 723.691 -35.247 723.691 -35.247 C 723.6909999999999 -35.247 723.691 -35.247 723.691 -35.247 C 723.691 -35.247 723.691 -35.247 723.691 -35.247" bx:d="M 723.691 -35.247 R 678.72 -53.327 R 654.768 -52.437 R 611.019 -37.669 R 589.635 -16.17 R 576.918 4.512 R 555.334 5.512 R 524.776 8.954 R 494.883 27.996 R 479.427 58.899 R 460.083 64.189 R 424.76 74.239 R 400.367 98.324 R 389.757 161.332 R 412.212 200.159 R 436.72 215.335 R 462.863 222.231 R 759.644 222.065 R 767.613 221.211 R 805.715 194.791 R 829.811 142.258 R 819.388 101.075 R 790.685 73.416 R 772.203 64.84 R 771.606 38.75 R 758.663 2.449 R 723.691 -35.247 R 723.691 -35.247 Z 1@ad9c278d"/>
    <path d="M 647.939 -63.614 C 670.979 -63.614 699.748 -52.058 719.692 -31.35 C 739.636 -10.643 750.755 19.216 751.029 42.392 C 750.92 43.25 746.403 43.661 741.907 44.079 C 737.411 44.497 732.936 44.922 732.909 45.807 L 731.832 50.549 L 730.754 55.291 L 742.791 54.795 L 754.827 54.299 C 766.115 58.268 781.211 68.22 791.723 82.285 C 802.234 96.35 808.162 114.526 808.162 126.446 C 808.162 142.073 800.988 162.275 785.793 177.788 C 770.599 193.302 747.384 204.125 731.905 204.125 L 591.32 203.476 L 450.735 202.826 C 435.27 202.826 413.309 193.855 398.855 178.803 C 384.402 163.751 377.457 142.617 377.457 126.991 C 377.457 111.531 383.188 92.929 394.14 78.914 C 405.093 64.899 421.267 55.47 436.527 55.221 C 437.185 55.318 441.787 54.951 446.396 54.571 C 451.005 54.19 455.621 53.796 456.305 53.838 L 461.01 51.233 L 465.714 48.628 L 471.151 39.02 L 476.588 29.412 C 480.534 17.99 488.719 9.784 498.871 4.433 C 509.022 -0.918 521.139 -3.414 532.946 -3.414 C 534.316 -3.414 537.081 -2.285 540.01 -1.067 C 542.939 0.151 546.619 -0.125 548.646 0.234 L 555.506 -3.2 L 562.953 -9.713 L 567.248 -15.802 L 571.542 -21.891 C 579.049 -35.359 590.505 -45.833 603.838 -52.94 C 617.172 -60.047 632.382 -63.787 647.395 -63.787 M 647.743 -70.819 C 626.73 -70.819 607.175 -64.914 590.47 -54.695 C 573.765 -44.476 559.91 -29.942 550.294 -12.684 C 547.896 -13.113 545.472 -13.486 543.013 -13.752 C 540.554 -14.019 538.061 -14.178 535.527 -14.178 C 517.143 -14.178 500.219 -8.19 486.459 1.946 C 472.7 12.082 462.104 26.367 456.379 42.962 C 455.543 42.907 454.721 42.782 453.893 42.671 C 453.064 42.56 452.228 42.463 451.365 42.463 C 428.133 42.463 407.092 51.977 391.86 67.354 C 376.627 82.731 367.203 103.972 367.203 127.425 C 367.203 150.878 376.627 172.118 391.86 187.496 C 407.092 202.873 428.133 212.387 451.365 212.387 L 591.635 212.387 L 731.905 212.387 C 755.137 212.387 776.177 202.873 791.41 187.496 C 806.642 172.118 816.067 150.878 816.067 127.425 C 816.067 108.867 810.135 91.775 800.094 77.878 C 790.053 63.98 775.903 53.278 759.465 47.497 C 759.493 46.639 759.616 45.81 759.733 44.98 C 759.849 44.151 759.959 43.321 759.959 42.463 C 759.959 11.183 747.398 -17.137 727.09 -37.638 C 706.782 -58.138 678.728 -70.819 647.743 -70.819 Z" style=""/>
  </g>
  <g transform="matrix(1, 0, 0, 1, -349.134368, 186.443957)"/>
  <g transform="matrix(1, 0, 0, 1, -349.134368, 186.443957)"/>
  <g transform="matrix(1, 0, 0, 1, -349.134368, 186.443957)"/>
  <g transform="matrix(1, 0, 0, 1, -349.134368, 186.443957)"/>
  <g transform="matrix(1, 0, 0, 1, -349.134368, 186.443957)"/>
  <g transform="matrix(1, 0, 0, 1, -349.134368, 186.443957)"/>
  <g transform="matrix(1, 0, 0, 1, -349.134368, 186.443957)"/>
  <g transform="matrix(1, 0, 0, 1, -349.134368, 186.443957)"/>
  <g transform="matrix(1, 0, 0, 1, -349.134368, 186.443957)"/>
  <g transform="matrix(1, 0, 0, 1, -349.134368, 186.443957)"/>
  <g transform="matrix(1, 0, 0, 1, -349.134368, 186.443957)"/>
  <g transform="matrix(1, 0, 0, 1, -349.134368, 186.443957)"/>
  <g transform="matrix(1, 0, 0, 1, -349.134368, 186.443957)"/>
  <g transform="matrix(1, 0, 0, 1, -349.134368, 186.443957)"/>
  <g transform="matrix(1, 0, 0, 1, -349.134368, 186.443957)"/>
</svg>