<?xml version="1.0" encoding="UTF-8" standalone="no"?>
<!-- Created with Inkscape (http://www.inkscape.org/) -->

<svg
   version="1.1"
   id="svg2"
   xml:space="preserve"
   width="316.77454"
   height="215.38481"
   viewBox="0 0 316.77454 215.38481"
   sodipodi:docname="lmu-plot.svg"
   inkscape:version="1.1.1 (3bf5ae0d25, 2021-09-20)"
   xmlns:inkscape="http://www.inkscape.org/namespaces/inkscape"
   xmlns:sodipodi="http://sodipodi.sourceforge.net/DTD/sodipodi-0.dtd"
   xmlns="http://www.w3.org/2000/svg"
   xmlns:svg="http://www.w3.org/2000/svg"><defs
     id="defs6"><clipPath
       clipPathUnits="userSpaceOnUse"
       id="clipPath28"><path
         d="M 0,0 H 432 V 288 H 0 Z"
         id="path26" /></clipPath><clipPath
       clipPathUnits="userSpaceOnUse"
       id="clipPath32"><path
         d="M 54,36 H 388.8 V 253.44 H 54 Z"
         id="path30" /></clipPath><clipPath
       clipPathUnits="userSpaceOnUse"
       id="clipPath36"><path
         d="M -8,-8 H 8 V 8 H -8 Z"
         id="path34" /></clipPath><clipPath
       clipPathUnits="userSpaceOnUse"
       id="clipPath40"><path
         d="M -8,-8 H 8 V 8 H -8 Z"
         id="path38" /></clipPath><clipPath
       clipPathUnits="userSpaceOnUse"
       id="clipPath44"><path
         d="M -8,-8 H 8 V 8 H -8 Z"
         id="path42" /></clipPath><clipPath
       clipPathUnits="userSpaceOnUse"
       id="clipPath48"><path
         d="M -8,-8 H 8 V 8 H -8 Z"
         id="path46" /></clipPath><clipPath
       clipPathUnits="userSpaceOnUse"
       id="clipPath52"><path
         d="M -8,-8 H 8 V 8 H -8 Z"
         id="path50" /></clipPath><clipPath
       clipPathUnits="userSpaceOnUse"
       id="clipPath56"><path
         d="M -8,-8 H 8 V 8 H -8 Z"
         id="path54" /></clipPath><clipPath
       clipPathUnits="userSpaceOnUse"
       id="clipPath60"><path
         d="M 54,36 H 388.8 V 253.44 H 54 Z"
         id="path58" /></clipPath><clipPath
       clipPathUnits="userSpaceOnUse"
       id="clipPath64"><path
         d="M -8,-8 H 8 V 8 H -8 Z"
         id="path62" /></clipPath><clipPath
       clipPathUnits="userSpaceOnUse"
       id="clipPath68"><path
         d="M -8,-8 H 8 V 8 H -8 Z"
         id="path66" /></clipPath><clipPath
       clipPathUnits="userSpaceOnUse"
       id="clipPath72"><path
         d="M -8,-8 H 8 V 8 H -8 Z"
         id="path70" /></clipPath><clipPath
       clipPathUnits="userSpaceOnUse"
       id="clipPath76"><path
         d="M -8,-8 H 8 V 8 H -8 Z"
         id="path74" /></clipPath><clipPath
       clipPathUnits="userSpaceOnUse"
       id="clipPath80"><path
         d="M 54,36 H 388.8 V 253.44 H 54 Z"
         id="path78" /></clipPath><clipPath
       clipPathUnits="userSpaceOnUse"
       id="clipPath84"><path
         d="M 54,36 H 388.8 V 253.44 H 54 Z"
         id="path82" /></clipPath><clipPath
       clipPathUnits="userSpaceOnUse"
       id="clipPath88"><path
         d="M 54,36 H 388.8 V 253.44 H 54 Z"
         id="path86" /></clipPath><clipPath
       clipPathUnits="userSpaceOnUse"
       id="clipPath92"><path
         d="M 54,36 H 388.8 V 253.44 H 54 Z"
         id="path90" /></clipPath></defs><sodipodi:namedview
     id="namedview4"
     pagecolor="#ffffff"
     bordercolor="#666666"
     borderopacity="1.0"
     inkscape:pageshadow="2"
     inkscape:pageopacity="0.0"
     inkscape:pagecheckerboard="0"
     showgrid="false"
     inkscape:zoom="2"
     inkscape:cx="131"
     inkscape:cy="90.25"
     inkscape:window-width="1916"
     inkscape:window-height="1036"
     inkscape:window-x="1920"
     inkscape:window-y="20"
     inkscape:window-maximized="1"
     inkscape:current-layer="g8"
     fit-margin-top="2"
     fit-margin-left="2"
     fit-margin-right="2"
     fit-margin-bottom="2" /><g
     id="g8"
     inkscape:groupmode="layer"
     inkscape:label="2110.02402"
     transform="matrix(1.3333333,0,0,-1.3333333,-231.78411,933.29503)"><g
       id="g10435"><path
         d="m 208.799,558.937 h 200.88 v 130.464 h -200.88 z"
         style="fill:#ffffff;fill-opacity:1;fill-rule:nonzero;stroke:none;stroke-width:0.6"
         id="path94" /><path
         d="m 217.92991,660.44369 c 0.47737,0 0.93524,0.18966 1.27279,0.52721 0.33755,0.33755 0.52721,0.79542 0.52721,1.27279 0,0.47737 -0.18966,0.93524 -0.52721,1.27279 -0.33755,0.33755 -0.79542,0.52721 -1.27279,0.52721 -0.47737,0 -0.93524,-0.18966 -1.27279,-0.52721 -0.33755,-0.33755 -0.52721,-0.79542 -0.52721,-1.27279 0,-0.47737 0.18966,-0.93524 0.52721,-1.27279 0.33755,-0.33755 0.79542,-0.52721 1.27279,-0.52721 z"
         style="fill:#1f77b4;fill-opacity:1;fill-rule:nonzero;stroke:#1f77b4;stroke-width:0.6;stroke-linecap:butt;stroke-linejoin:round;stroke-miterlimit:10;stroke-dasharray:none;stroke-opacity:1"
         id="path96" /><path
         d="m 248.31082,646.04232 c 0.47737,0 0.93524,0.18966 1.27279,0.52721 0.33755,0.33755 0.52721,0.79542 0.52721,1.27279 0,0.47737 -0.18966,0.93524 -0.52721,1.27279 -0.33755,0.33755 -0.79542,0.52721 -1.27279,0.52721 -0.47737,0 -0.93524,-0.18966 -1.27279,-0.52721 -0.33755,-0.33755 -0.52721,-0.79542 -0.52721,-1.27279 0,-0.47737 0.18966,-0.93524 0.52721,-1.27279 0.33755,-0.33755 0.79542,-0.52721 1.27279,-0.52721 z"
         style="fill:#1f77b4;fill-opacity:1;fill-rule:nonzero;stroke:#1f77b4;stroke-width:0.6;stroke-linecap:butt;stroke-linejoin:round;stroke-miterlimit:10;stroke-dasharray:none;stroke-opacity:1"
         id="path102" /><path
         d="m 283.53521,627.93446 c 0.47737,0 0.93524,0.18966 1.27279,0.52721 0.33755,0.33755 0.52721,0.79542 0.52721,1.27279 0,0.47737 -0.18966,0.93524 -0.52721,1.27279 -0.33755,0.33755 -0.79542,0.52721 -1.27279,0.52721 -0.47737,0 -0.93524,-0.18966 -1.27279,-0.52721 -0.33755,-0.33755 -0.52721,-0.79542 -0.52721,-1.27279 0,-0.47737 0.18966,-0.93524 0.52721,-1.27279 0.33755,-0.33755 0.79542,-0.52721 1.27279,-0.52721 z"
         style="fill:#1f77b4;fill-opacity:1;fill-rule:nonzero;stroke:#1f77b4;stroke-width:0.6;stroke-linecap:butt;stroke-linejoin:round;stroke-miterlimit:10;stroke-dasharray:none;stroke-opacity:1"
         id="path108" /><g
         clip-path="url(#clipPath48)"
         id="g116"
         transform="matrix(0.6,0,0,0.6,304.14016,620.3142)"><path
           d="m 0,-3 c 0.795609,0 1.55874,0.316099 2.12132,0.87868 C 2.683901,-1.55874 3,-0.795609 3,0 3,0.795609 2.683901,1.55874 2.12132,2.12132 1.55874,2.683901 0.795609,3 0,3 -0.795609,3 -1.55874,2.683901 -2.12132,2.12132 -2.683901,1.55874 -3,0.795609 -3,0 -3,-0.795609 -2.683901,-1.55874 -2.12132,-2.12132 -1.55874,-2.683901 -0.795609,-3 0,-3 Z"
           style="fill:#1f77b4;fill-opacity:1;fill-rule:nonzero;stroke:#1f77b4;stroke-width:1;stroke-linecap:butt;stroke-linejoin:round;stroke-miterlimit:10;stroke-dasharray:none;stroke-opacity:1"
           id="path114" /></g><g
         id="g124"
         transform="matrix(0.6,0,0,0.6,330.09932,607.34325)"><g
           clip-path="url(#clipPath52)"
           id="g122"><path
             d="m 0,-3 c 0.795609,0 1.55874,0.316099 2.12132,0.87868 C 2.683901,-1.55874 3,-0.795609 3,0 3,0.795609 2.683901,1.55874 2.12132,2.12132 1.55874,2.683901 0.795609,3 0,3 -0.795609,3 -1.55874,2.683901 -2.12132,2.12132 -2.683901,1.55874 -3,0.795609 -3,0 -3,-0.795609 -2.683901,-1.55874 -2.12132,-2.12132 -1.55874,-2.683901 -0.795609,-3 0,-3 Z"
             style="fill:#1f77b4;fill-opacity:1;fill-rule:nonzero;stroke:#1f77b4;stroke-width:1;stroke-linecap:butt;stroke-linejoin:round;stroke-miterlimit:10;stroke-dasharray:none;stroke-opacity:1"
             id="path120" /></g></g><g
         transform="matrix(0.6,0,0,0.6,365.32371,588.67937)"
         id="g132"><g
           id="g130"><g
             clip-path="url(#clipPath56)"
             id="g128"><path
               d="m 0,-3 c 0.795609,0 1.55874,0.316099 2.12132,0.87868 C 2.683901,-1.55874 3,-0.795609 3,0 3,0.795609 2.683901,1.55874 2.12132,2.12132 1.55874,2.683901 0.795609,3 0,3 -0.795609,3 -1.55874,2.683901 -2.12132,2.12132 -2.683901,1.55874 -3,0.795609 -3,0 -3,-0.795609 -2.683901,-1.55874 -2.12132,-2.12132 -1.55874,-2.683901 -0.795609,-3 0,-3 Z"
               style="fill:#1f77b4;fill-opacity:1;fill-rule:nonzero;stroke:#1f77b4;stroke-width:1;stroke-linecap:butt;stroke-linejoin:round;stroke-miterlimit:10;stroke-dasharray:none;stroke-opacity:1"
               id="path126" /></g></g></g><path
         d="m 217.92991,649.69896 c 0.47737,0 0.93524,0.18966 1.27279,0.52721 0.33755,0.33755 0.52721,0.79542 0.52721,1.27279 0,0.47737 -0.18966,0.93524 -0.52721,1.27279 -0.33755,0.33755 -0.79542,0.52721 -1.27279,0.52721 -0.47737,0 -0.93524,-0.18966 -1.27279,-0.52721 -0.33755,-0.33755 -0.52721,-0.79542 -0.52721,-1.27279 0,-0.47737 0.18966,-0.93524 0.52721,-1.27279 0.33755,-0.33755 0.79542,-0.52721 1.27279,-0.52721 z"
         style="fill:#9467bd;fill-opacity:1;fill-rule:nonzero;stroke:#9467bd;stroke-width:0.6;stroke-linecap:butt;stroke-linejoin:round;stroke-miterlimit:10;stroke-dasharray:none;stroke-opacity:1"
         id="path148" /><path
         d="m 283.53521,619.30904 c 0.47737,0 0.93524,0.18966 1.27279,0.52721 0.33755,0.33755 0.52721,0.79542 0.52721,1.27279 0,0.47737 -0.18966,0.93524 -0.52721,1.27279 -0.33755,0.33755 -0.79542,0.52721 -1.27279,0.52721 -0.47737,0 -0.93524,-0.18966 -1.27279,-0.52721 -0.33755,-0.33755 -0.52721,-0.79542 -0.52721,-1.27279 0,-0.47737 0.18966,-0.93524 0.52721,-1.27279 0.33755,-0.33755 0.79542,-0.52721 1.27279,-0.52721 z"
         style="fill:#9467bd;fill-opacity:1;fill-rule:nonzero;stroke:#9467bd;stroke-width:0.6;stroke-linecap:butt;stroke-linejoin:round;stroke-miterlimit:10;stroke-dasharray:none;stroke-opacity:1"
         id="path154" /><path
         d="m 327.91884,601.38856 c 0.47737,0 0.93524,0.18966 1.27279,0.52721 0.33755,0.33755 0.52721,0.79542 0.52721,1.27279 0,0.47737 -0.18966,0.93524 -0.52721,1.27279 -0.33755,0.33755 -0.79542,0.52721 -1.27279,0.52721 -0.47737,0 -0.93524,-0.18966 -1.27279,-0.52721 -0.33755,-0.33755 -0.52721,-0.79542 -0.52721,-1.27279 0,-0.47737 0.18966,-0.93524 0.52721,-1.27279 0.33755,-0.33755 0.79542,-0.52721 1.27279,-0.52721 z"
         style="fill:#9467bd;fill-opacity:1;fill-rule:nonzero;stroke:#9467bd;stroke-width:0.6;stroke-linecap:butt;stroke-linejoin:round;stroke-miterlimit:10;stroke-dasharray:none;stroke-opacity:1"
         id="path160" /><g
         clip-path="url(#clipPath76)"
         id="g168"
         transform="matrix(0.6,0,0,0.6,365.3237,580.74572)"><path
           d="m 0,-3 c 0.795609,0 1.55874,0.316099 2.12132,0.87868 C 2.683901,-1.55874 3,-0.795609 3,0 3,0.795609 2.683901,1.55874 2.12132,2.12132 1.55874,2.683901 0.795609,3 0,3 -0.795609,3 -1.55874,2.683901 -2.12132,2.12132 -2.683901,1.55874 -3,0.795609 -3,0 -3,-0.795609 -2.683901,-1.55874 -2.12132,-2.12132 -1.55874,-2.683901 -0.795609,-3 0,-3 Z"
           style="fill:#9467bd;fill-opacity:1;fill-rule:nonzero;stroke:#9467bd;stroke-width:1;stroke-linecap:butt;stroke-linejoin:round;stroke-miterlimit:10;stroke-dasharray:none;stroke-opacity:1"
           id="path166" /></g><path
         d="m 248.31082,558.937 v -2.1"
         style="fill:#000000;fill-opacity:1;fill-rule:nonzero;stroke:#000000;stroke-width:0.48;stroke-linecap:butt;stroke-linejoin:round;stroke-miterlimit:10;stroke-dasharray:none;stroke-opacity:1"
         id="path184" /><text
         transform="scale(1,-1)"
         style="font-variant:normal;font-weight:normal;font-size:6px;font-family:'DejaVu Sans';-inkscape-font-specification:DejaVuSans;writing-mode:lr-tb;fill:#000000;fill-opacity:1;fill-rule:nonzero;stroke:none;stroke-width:0.6"
         id="text188"
         x="242.91081"
         y="-550.02234"><tspan
           x="242.91081 246.7282"
           y="-550.02234"
           sodipodi:role="line"
           id="tspan186"
           style="stroke-width:0.6">10</tspan></text><text
         transform="scale(1,-1)"
         style="font-variant:normal;font-weight:normal;font-size:4.2px;font-family:'DejaVu Sans';-inkscape-font-specification:DejaVuSans;writing-mode:lr-tb;fill:#000000;fill-opacity:1;fill-rule:nonzero;stroke:none;stroke-width:0.6"
         id="text192"
         x="250.60301"
         y="-552.31915"><tspan
           x="250.60301"
           y="-552.31915"
           id="tspan190"
           style="stroke-width:0.6">5</tspan></text><path
         d="m 365.3237,558.937 v -2.1"
         style="fill:#000000;fill-opacity:1;fill-rule:nonzero;stroke:#000000;stroke-width:0.48;stroke-linecap:butt;stroke-linejoin:round;stroke-miterlimit:10;stroke-dasharray:none;stroke-opacity:1"
         id="path196" /><text
         transform="scale(1,-1)"
         style="font-variant:normal;font-weight:normal;font-size:6px;font-family:'DejaVu Sans';-inkscape-font-specification:DejaVuSans;writing-mode:lr-tb;fill:#000000;fill-opacity:1;fill-rule:nonzero;stroke:none;stroke-width:0.6"
         id="text200"
         x="359.92371"
         y="-549.96979"><tspan
           x="359.92371 363.74109"
           y="-549.96979"
           sodipodi:role="line"
           id="tspan198"
           style="stroke-width:0.6">10</tspan></text><text
         transform="scale(1,-1)"
         style="font-variant:normal;font-weight:normal;font-size:4.2px;font-family:'DejaVu Sans';-inkscape-font-specification:DejaVuSans;writing-mode:lr-tb;fill:#000000;fill-opacity:1;fill-rule:nonzero;stroke:none;stroke-width:0.6"
         id="text204"
         x="367.61591"
         y="-552.26666"><tspan
           x="367.61591"
           y="-552.26666"
           id="tspan202"
           style="stroke-width:0.6">6</tspan></text><path
         d="m 213.08643,558.937 v -1.2"
         style="fill:#000000;fill-opacity:1;fill-rule:nonzero;stroke:#000000;stroke-width:0.36;stroke-linecap:butt;stroke-linejoin:round;stroke-miterlimit:10;stroke-dasharray:none;stroke-opacity:1"
         id="path208" /><path
         d="m 222.35166,558.937 v -1.2"
         style="fill:#000000;fill-opacity:1;fill-rule:nonzero;stroke:#000000;stroke-width:0.36;stroke-linecap:butt;stroke-linejoin:round;stroke-miterlimit:10;stroke-dasharray:none;stroke-opacity:1"
         id="path210" /><path
         d="m 230.18529,558.937 v -1.2"
         style="fill:#000000;fill-opacity:1;fill-rule:nonzero;stroke:#000000;stroke-width:0.36;stroke-linecap:butt;stroke-linejoin:round;stroke-miterlimit:10;stroke-dasharray:none;stroke-opacity:1"
         id="path212" /><path
         d="m 236.9711,558.937 v -1.2"
         style="fill:#000000;fill-opacity:1;fill-rule:nonzero;stroke:#000000;stroke-width:0.36;stroke-linecap:butt;stroke-linejoin:round;stroke-miterlimit:10;stroke-dasharray:none;stroke-opacity:1"
         id="path214" /><path
         d="m 242.9566,558.937 v -1.2"
         style="fill:#000000;fill-opacity:1;fill-rule:nonzero;stroke:#000000;stroke-width:0.36;stroke-linecap:butt;stroke-linejoin:round;stroke-miterlimit:10;stroke-dasharray:none;stroke-opacity:1"
         id="path216" /><path
         d="m 283.53521,558.937 v -1.2"
         style="fill:#000000;fill-opacity:1;fill-rule:nonzero;stroke:#000000;stroke-width:0.36;stroke-linecap:butt;stroke-linejoin:round;stroke-miterlimit:10;stroke-dasharray:none;stroke-opacity:1"
         id="path218" /><path
         d="m 304.14015,558.937 v -1.2"
         style="fill:#000000;fill-opacity:1;fill-rule:nonzero;stroke:#000000;stroke-width:0.36;stroke-linecap:butt;stroke-linejoin:round;stroke-miterlimit:10;stroke-dasharray:none;stroke-opacity:1"
         id="path220" /><path
         d="m 318.7596,558.937 v -1.2"
         style="fill:#000000;fill-opacity:1;fill-rule:nonzero;stroke:#000000;stroke-width:0.36;stroke-linecap:butt;stroke-linejoin:round;stroke-miterlimit:10;stroke-dasharray:none;stroke-opacity:1"
         id="path222" /><path
         d="m 330.09931,558.937 v -1.2"
         style="fill:#000000;fill-opacity:1;fill-rule:nonzero;stroke:#000000;stroke-width:0.36;stroke-linecap:butt;stroke-linejoin:round;stroke-miterlimit:10;stroke-dasharray:none;stroke-opacity:1"
         id="path224" /><path
         d="m 339.36454,558.937 v -1.2"
         style="fill:#000000;fill-opacity:1;fill-rule:nonzero;stroke:#000000;stroke-width:0.36;stroke-linecap:butt;stroke-linejoin:round;stroke-miterlimit:10;stroke-dasharray:none;stroke-opacity:1"
         id="path226" /><path
         d="m 347.19818,558.937 v -1.2"
         style="fill:#000000;fill-opacity:1;fill-rule:nonzero;stroke:#000000;stroke-width:0.36;stroke-linecap:butt;stroke-linejoin:round;stroke-miterlimit:10;stroke-dasharray:none;stroke-opacity:1"
         id="path228" /><path
         d="m 353.98398,558.937 v -1.2"
         style="fill:#000000;fill-opacity:1;fill-rule:nonzero;stroke:#000000;stroke-width:0.36;stroke-linecap:butt;stroke-linejoin:round;stroke-miterlimit:10;stroke-dasharray:none;stroke-opacity:1"
         id="path230" /><path
         d="m 359.96949,558.937 v -1.2"
         style="fill:#000000;fill-opacity:1;fill-rule:nonzero;stroke:#000000;stroke-width:0.36;stroke-linecap:butt;stroke-linejoin:round;stroke-miterlimit:10;stroke-dasharray:none;stroke-opacity:1"
         id="path232" /><path
         d="m 400.54809,558.937 v -1.2"
         style="fill:#000000;fill-opacity:1;fill-rule:nonzero;stroke:#000000;stroke-width:0.36;stroke-linecap:butt;stroke-linejoin:round;stroke-miterlimit:10;stroke-dasharray:none;stroke-opacity:1"
         id="path234" /><text
         transform="scale(1,-1)"
         style="font-variant:normal;font-weight:normal;font-size:6px;font-family:'DejaVu Sans';-inkscape-font-specification:DejaVuSans;writing-mode:lr-tb;fill:#000000;fill-opacity:1;fill-rule:nonzero;stroke:none;stroke-width:0.6"
         id="text238"
         x="265.08276"
         y="-541.18073"><tspan
           x="265.08276 268.43826 272.11624 274.58224 278.26025 284.10425 287.79425 290.14624 293.83624 296.30225 299.42825 301.33624 303.67624 307.48026 311.15225 314.95624 317.12225 320.81226 326.65625 330.46625 334.15625 337.96625 341.77625 343.44424 347.24826 351.05826"
           y="-541.18073"
           sodipodi:role="line"
           id="tspan236"
           style="stroke-width:0.6">Parameters (non-embedding)</tspan></text><path
         d="m 208.799,589.54982 h -1.2"
         style="fill:#000000;fill-opacity:1;fill-rule:nonzero;stroke:#000000;stroke-width:0.36;stroke-linecap:butt;stroke-linejoin:round;stroke-miterlimit:10;stroke-dasharray:none;stroke-opacity:1"
         id="path242" /><text
         transform="scale(1,-1)"
         style="font-variant:normal;font-weight:normal;font-size:6px;font-family:'DejaVu Sans';-inkscape-font-specification:DejaVuSans;writing-mode:lr-tb;fill:#000000;fill-opacity:1;fill-rule:nonzero;stroke:none;stroke-width:0.6"
         id="text246"
         x="183.35899"
         y="-587.45923"><tspan
           x="183.35899 188.34532 194.54161 198.35899"
           y="-587.45923"
           sodipodi:role="line"
           id="tspan244"
           style="stroke-width:0.6">4×10</tspan></text><text
         transform="scale(1,-1)"
         style="font-variant:normal;font-weight:normal;font-size:4.2px;font-family:'DejaVu Sans';-inkscape-font-specification:DejaVuSans;writing-mode:lr-tb;fill:#000000;fill-opacity:1;fill-rule:nonzero;stroke:none;stroke-width:0.6"
         id="text250"
         x="202.2338"
         y="-589.75604"><tspan
           x="202.2338"
           y="-589.75604"
           id="tspan248"
           style="stroke-width:0.6">0</tspan></text><path
         d="m 208.799,667.1465 h -1.2"
         style="fill:#000000;fill-opacity:1;fill-rule:nonzero;stroke:#000000;stroke-width:0.36;stroke-linecap:butt;stroke-linejoin:round;stroke-miterlimit:10;stroke-dasharray:none;stroke-opacity:1"
         id="path254" /><text
         transform="scale(1,-1)"
         style="font-variant:normal;font-weight:normal;font-size:6px;font-family:'DejaVu Sans';-inkscape-font-specification:DejaVuSans;writing-mode:lr-tb;fill:#000000;fill-opacity:1;fill-rule:nonzero;stroke:none;stroke-width:0.6"
         id="text258"
         x="183.35899"
         y="-665.05591"><tspan
           x="183.35899 188.34532 194.54161 198.35899"
           y="-665.05591"
           sodipodi:role="line"
           id="tspan256"
           style="stroke-width:0.6">5×10</tspan></text><text
         transform="scale(1,-1)"
         style="font-variant:normal;font-weight:normal;font-size:4.2px;font-family:'DejaVu Sans';-inkscape-font-specification:DejaVuSans;writing-mode:lr-tb;fill:#000000;fill-opacity:1;fill-rule:nonzero;stroke:none;stroke-width:0.6"
         id="text262"
         x="202.2338"
         y="-667.35272"><tspan
           x="202.2338"
           y="-667.35272"
           id="tspan260"
           style="stroke-width:0.6">0</tspan></text><text
         transform="matrix(0,1,1,0,0,0)"
         style="font-variant:normal;font-weight:normal;font-size:6px;font-family:'DejaVu Sans';-inkscape-font-specification:DejaVuSans;writing-mode:lr-tb;fill:#000000;fill-opacity:1;fill-rule:nonzero;stroke:none;stroke-width:0.6"
         id="text268"
         x="617.56433"
         y="179.71211"><tspan
           x="617.56433 620.80316 624.47516 627.6012"
           y="179.71211"
           sodipodi:role="line"
           id="tspan266"
           style="stroke-width:0.6">Loss</tspan></text><path
         d="m 217.92991,683.47082 15.52135,-7.541 11.87329,-5.76859 9.61785,-4.6728 8.08402,-3.9276 6.97278,-3.3877 6.13046,-2.97847 5.46988,-2.65752 4.93793,-2.39907 4.50031,-2.18646 4.134,-2.00849 3.82286,-1.85732 3.55528,-1.72733 3.32274,-1.61434 3.11875,-1.51523 2.93836,-1.42759 2.77771,-1.34955 2.63372,-1.27958 2.50393,-1.21652 2.38632,-1.15939 2.27927,-1.10737 2.18141,-1.05984 2.09162,-1.0162 2.00892,-0.97603 1.93251,-0.93891 1.86171,-0.9045 1.79592,-0.87254 1.7346,-0.84275 1.67735,-0.81493 1.62374,-0.78889 1.57346,-0.76446 1.52621,-0.74151 1.4817,-0.71988 1.43973,-0.69948 1.40005,-0.68021 1.36251,-0.66197 1.32694,-0.64469 1.29317,-0.62828 1.26107,-0.61269 1.23054,-0.59785 1.20144,-0.58372 1.17369,-0.57024 1.1472,-0.55736 1.12187,-0.54505 1.09763,-0.53328 1.07444,-0.52202 1.05217,-0.5112 1.03085,-0.50082 1.01034,-0.49087 0.99064,-0.48131 0.97171,-0.47209 0.95347,-0.46325 0.93591,-0.45471 0.91899,-0.44648 0.90266,-0.43856 0.88691,-0.4309 0.87169,-0.4235 0.85699,-0.41637 0.84278,-0.40947 0.82903,-0.40278 0.81573,-0.39632 0.80283,-0.39005 0.79035,-0.38399 0.77825,-0.37811 0.76651,-0.3724 0.75511,-0.36687 0.74406,-0.3615 0.73332,-0.35628 0.7229,-0.35122 0.71275,-0.34628 0.70289,-0.34151 0.69331,-0.33684 0.68397,-0.3323 0.67489,-0.32789 0.66604,-0.3236 0.65743,-0.31941 0.64903,-0.31533 0.64085,-0.31135 0.63286,-0.30747 0.62508,-0.30369 0.61748,-0.30001 0.61008,-0.2964 0.60283,-0.29288 0.59577,-0.28946 0.58886,-0.28609 0.58212,-0.28283 0.57552,-0.27961 0.56909,-0.27649 0.56277,-0.27342 0.55662,-0.27043 0.55058,-0.2675 0.54469,-0.26463 0.5389,-0.26183 0.53325,-0.25907 0.52771,-0.25639 0.52229,-0.25375 0.51698,-0.25118 0.51177,-0.24864 0.50667,-0.24616 0.50166,-0.24373"
         style="fill:none;stroke:#d62728;stroke-width:0.9;stroke-linecap:square;stroke-linejoin:round;stroke-miterlimit:10;stroke-dasharray:none;stroke-opacity:1"
         id="path274" /><path
         d="m 217.92991,672.4944 15.52135,-7.82375 11.87329,-5.96012 9.61785,-4.81077 8.08402,-4.03081 6.97278,-3.46681 6.13046,-3.04002 5.46988,-2.70587 4.93793,-2.43716 4.50031,-2.21644 4.134,-2.03191 3.82286,-1.87536 3.55528,-1.7409 3.32274,-1.62417 3.11875,-1.52189 2.93836,-1.43153 2.77771,-1.35115 2.63372,-1.27916 2.50393,-1.21434 2.38632,-1.15566 2.27927,-1.10229 2.18141,-1.05354 2.09162,-1.00886 2.00892,-0.96773 1.93251,-0.92977 1.86171,-0.89461 1.79592,-0.86196 1.7346,-0.83157 1.67735,-0.8032 1.62374,-0.77667 1.57346,-0.75179 1.52621,-0.72843 1.4817,-0.70645 1.43973,-0.68572 1.40005,-0.66614 1.36251,-0.64763 1.32694,-0.63011 1.29317,-0.61347 1.26107,-0.59768 1.23054,-0.58265 1.20144,-0.56835 1.17369,-0.55473 1.1472,-0.54171 1.12187,-0.52928 1.09763,-0.51739 1.07444,-0.50601 1.05217,-0.49512 1.03085,-0.48467 1.01034,-0.47463 0.99064,-0.465 0.97171,-0.45574 0.95347,-0.44682 0.93591,-0.43826 0.91899,-0.42999 0.90266,-0.42201 0.88691,-0.41434 0.87169,-0.40693 0.85699,-0.39975 0.84278,-0.39284 0.82903,-0.38615 0.81573,-0.37966 0.80283,-0.37341 0.79035,-0.36733 0.77825,-0.36145 0.76651,-0.35574 0.75511,-0.35022 0.74406,-0.34485 0.73332,-0.33965 0.7229,-0.33459 0.71275,-0.32967 0.70289,-0.32489 0.69331,-0.32026 0.68397,-0.31573 0.67489,-0.31134 0.66604,-0.30707 0.65743,-0.30289 0.64903,-0.29884 0.64085,-0.29489 0.63286,-0.29103 0.62508,-0.28727 0.61748,-0.28361 0.61008,-0.28003 0.60283,-0.27654 0.59577,-0.27314 0.58886,-0.26981 0.58212,-0.26657 0.57552,-0.26338 0.56909,-0.26029 0.56277,-0.25726 0.55662,-0.25429 0.55058,-0.25139 0.54469,-0.24855 0.5389,-0.24578 0.53325,-0.24307 0.52771,-0.24041 0.52229,-0.2378 0.51698,-0.23526 0.51177,-0.23276 0.50667,-0.23031 0.50166,-0.22791"
         style="fill:none;stroke:#2ca02c;stroke-width:0.9;stroke-linecap:square;stroke-linejoin:round;stroke-miterlimit:10;stroke-dasharray:none;stroke-opacity:1"
         id="path280" /><path
         d="m 217.92991,662.61143 15.52135,-7.71094 11.87329,-5.89859 9.61785,-4.7781 8.08402,-4.0161 6.97278,-3.46405 6.13046,-3.04558 5.46988,-2.71741 4.93793,-2.45314 4.50031,-2.23574 4.134,-2.05374 3.82286,-1.89918 3.55528,-1.76625 3.32274,-1.65072 3.11875,-1.54938 2.93836,-1.45977 2.77771,-1.37995 2.63372,-1.30842 2.50393,-1.24394 2.38632,-1.18551 2.27927,-1.13233 2.18141,-1.08371 2.09162,-1.03911 2.00892,-0.99803 1.93251,-0.96006 1.86171,-0.92489 1.79592,-0.8922 1.7346,-0.86174 1.67735,-0.8333 1.62374,-0.80667 1.57346,-0.78169 1.52621,-0.75821 1.4817,-0.7361 1.43973,-0.71525 1.40005,-0.69554 1.36251,-0.67689 1.32694,-0.65921 1.29317,-0.64244 1.26107,-0.6265 1.23054,-0.61132 1.20144,-0.59687 1.17369,-0.58309 1.1472,-0.56992 1.12187,-0.55734 1.09763,-0.5453 1.07444,-0.53377 1.05217,-0.52272 1.03085,-0.51212 1.01034,-0.50193 0.99064,-0.49215 0.97171,-0.48274 0.95347,-0.47368 0.93591,-0.46495 0.91899,-0.45655 0.90266,-0.44844 0.88691,-0.44061 0.87169,-0.43305 0.85699,-0.42575 0.84278,-0.41869 0.82903,-0.41186 0.81573,-0.40525 0.80283,-0.39885 0.79035,-0.39264 0.77825,-0.38663 0.76651,-0.38079 0.75511,-0.37514 0.74406,-0.36965 0.73332,-0.36431 0.7229,-0.35913 0.71275,-0.35409 0.70289,-0.34919 0.69331,-0.34443 0.68397,-0.3398 0.67489,-0.33528 0.66604,-0.33089 0.65743,-0.3266 0.64903,-0.32244 0.64085,-0.31837 0.63286,-0.3144 0.62508,-0.31054 0.61748,-0.30676 0.61008,-0.30308 0.60283,-0.29949 0.59577,-0.29597 0.58886,-0.29255 0.58212,-0.28919 0.57552,-0.28592 0.56909,-0.28272 0.56277,-0.27958 0.55662,-0.27652 0.55058,-0.27353 0.54469,-0.2706 0.5389,-0.26772 0.53325,-0.26492 0.52771,-0.26216 0.52229,-0.25947 0.51698,-0.25684 0.51177,-0.25424 0.50667,-0.25171 0.50166,-0.24923"
         style="fill:none;stroke:#1f77b4;stroke-width:0.9;stroke-linecap:butt;stroke-linejoin:round;stroke-miterlimit:10;stroke-dasharray:3.33, 1.44;stroke-dashoffset:0;stroke-opacity:1"
         id="path286" /><path
         d="m 217.92991,651.09232 15.52135,-7.32857 11.87329,-5.6061 9.61785,-4.54117 8.08402,-3.81696 6.97278,-3.29227 6.13046,-2.89457 5.46988,-2.58266 4.93793,-2.3315 4.50031,-2.12487 4.134,-1.95191 3.82286,-1.805 3.55528,-1.67867 3.32274,-1.56886 3.11875,-1.47255 2.93836,-1.38738 2.77771,-1.31153 2.63372,-1.24354 2.50393,-1.18226 2.38632,-1.12672 2.27927,-1.07618 2.18141,-1.02998 2.09162,-0.98758 2.00892,-0.94854 1.93251,-0.91245 1.86171,-0.87903 1.79592,-0.84796 1.7346,-0.81901 1.67735,-0.79198 1.62374,-0.76666 1.57346,-0.74293 1.52621,-0.72062 1.4817,-0.6996 1.43973,-0.67978 1.40005,-0.66105 1.36251,-0.64333 1.32694,-0.62652 1.29317,-0.61059 1.26107,-0.59543 1.23054,-0.58101 1.20144,-0.56727 1.17369,-0.55417 1.1472,-0.54166 1.12187,-0.52971 1.09763,-0.51826 1.07444,-0.5073 1.05217,-0.4968 1.03085,-0.48672 1.01034,-0.47705 0.99064,-0.46774 0.97171,-0.4588 0.95347,-0.45019 0.93591,-0.4419 0.91899,-0.43391 0.90266,-0.4262 0.88691,-0.41877 0.87169,-0.41158 0.85699,-0.40463 0.84278,-0.39793 0.82903,-0.39144 0.81573,-0.38515 0.80283,-0.37907 0.79035,-0.37317 0.77825,-0.36746 0.76651,-0.36191 0.75511,-0.35654 0.74406,-0.35131 0.73332,-0.34625 0.7229,-0.34132 0.71275,-0.33654 0.70289,-0.33187 0.69331,-0.32736 0.68397,-0.32294 0.67489,-0.31866 0.66604,-0.31448 0.65743,-0.31041 0.64903,-0.30644 0.64085,-0.30259 0.63286,-0.29881 0.62508,-0.29514 0.61748,-0.29155 0.61008,-0.28805 0.60283,-0.28464 0.59577,-0.2813 0.58886,-0.27803 0.58212,-0.27486 0.57552,-0.27174 0.56909,-0.2687 0.56277,-0.26572 0.55662,-0.26281 0.55058,-0.25996 0.54469,-0.25718 0.5389,-0.25445 0.53325,-0.25178 0.52771,-0.24916 0.52229,-0.24661 0.51698,-0.2441 0.51177,-0.24163 0.50667,-0.23923 0.50166,-0.23687"
         style="fill:none;stroke:#9467bd;stroke-width:0.9;stroke-linecap:butt;stroke-linejoin:round;stroke-miterlimit:10;stroke-dasharray:3.33, 1.44;stroke-dashoffset:0;stroke-opacity:1"
         id="path292" /><path
         d="M 208.799,558.937 V 689.401"
         style="fill:none;stroke:#000000;stroke-width:0.48;stroke-linecap:square;stroke-linejoin:miter;stroke-miterlimit:10;stroke-dasharray:none;stroke-opacity:1"
         id="path298" /><path
         d="M 409.679,558.937 V 689.401"
         style="fill:none;stroke:#000000;stroke-width:0.48;stroke-linecap:square;stroke-linejoin:miter;stroke-miterlimit:10;stroke-dasharray:none;stroke-opacity:1"
         id="path300" /><path
         d="m 208.799,558.937 h 200.88"
         style="fill:none;stroke:#000000;stroke-width:0.48;stroke-linecap:square;stroke-linejoin:miter;stroke-miterlimit:10;stroke-dasharray:none;stroke-opacity:1"
         id="path302" /><path
         d="m 208.799,689.401 h 200.88"
         style="fill:none;stroke:#000000;stroke-width:0.48;stroke-linecap:square;stroke-linejoin:miter;stroke-miterlimit:10;stroke-dasharray:none;stroke-opacity:1"
         id="path304" /><text
         transform="scale(1,-1)"
         style="font-variant:normal;font-weight:normal;font-size:7.2px;font-family:'DejaVu Sans';-inkscape-font-specification:DejaVuSans;writing-mode:lr-tb;fill:#000000;fill-opacity:1;fill-rule:nonzero;stroke:none;stroke-width:0.6"
         id="text308"
         x="259.49524"
         y="-693.00098"><tspan
           x="259.49524 263.58374 268.01172 270.97092 273.50531 277.91171 280.74905 287.76184 292.17545 296.74026 300.70026 305.12827 307.41785 311.68024 315.43146 317.72104 321.7439 326.1575 329.1167 333.5303 340.54309 344.9711 347.79352 352.2215 355.18069"
           y="-693.00098"
           sodipodi:role="line"
           id="tspan306"
           style="stroke-width:0.6">Performance vs Parameters</tspan></text><path
         d="M 330.09462,649.3885 H 405.479 c 0.8,0 1.2,0.4 1.2,1.2 v 34.6125 c 0,0.8 -0.4,1.2 -1.2,1.2 h -75.38438 c -0.8,0 -1.2,-0.4 -1.2,-1.2 v -34.6125 c 0,-0.8 0.4,-1.2 1.2,-1.2 z"
         style="fill:#ffffff;fill-opacity:0.8;fill-rule:nonzero;stroke:#cccccc;stroke-width:0.6;stroke-linecap:butt;stroke-linejoin:miter;stroke-miterlimit:10;stroke-dasharray:none;stroke-opacity:0.8"
         id="path312" /><path
         d="m 331.29462,681.54475 h 12"
         style="fill:none;stroke:#d62728;stroke-width:0.9;stroke-linecap:square;stroke-linejoin:round;stroke-miterlimit:10;stroke-dasharray:none;stroke-opacity:1"
         id="path314" /><text
         transform="scale(1,-1)"
         style="font-variant:normal;font-weight:normal;font-size:6px;font-family:'DejaVu Sans';-inkscape-font-specification:DejaVuSans;writing-mode:lr-tb;fill:#000000;fill-opacity:1;fill-rule:nonzero;stroke:none;stroke-width:0.6"
         id="text318"
         x="348.09464"
         y="-679.44476"><tspan
           x="348.09464 351.43661 355.24661 358.91263"
           y="-679.44476"
           sodipodi:role="line"
           id="tspan316"
           style="stroke-width:0.6">LSTM</tspan></text><path
         d="m 331.29462,672.74162 h 12"
         style="fill:none;stroke:#2ca02c;stroke-width:0.9;stroke-linecap:square;stroke-linejoin:round;stroke-miterlimit:10;stroke-dasharray:none;stroke-opacity:1"
         id="path322" /><text
         transform="scale(1,-1)"
         style="font-variant:normal;font-weight:normal;font-size:6px;font-family:'DejaVu Sans';-inkscape-font-specification:DejaVuSans;writing-mode:lr-tb;fill:#000000;fill-opacity:1;fill-rule:nonzero;stroke:none;stroke-width:0.6"
         id="text326"
         x="348.09464"
         y="-670.6416"><tspan
           x="348.09464 350.87936 353.34537 357.02338 360.82736 363.95337 366.06537 369.73737 372.10025 377.94424 381.63425 384.10025 386.00824 389.35025 391.69025 396.17825 398.08624 401.89624"
           y="-670.6416"
           sodipodi:role="line"
           id="tspan324"
           style="stroke-width:0.6">Transformer L(N,S)</tspan></text><path
         d="m 331.29462,663.9385 h 12"
         style="fill:none;stroke:#1f77b4;stroke-width:0.9;stroke-linecap:butt;stroke-linejoin:round;stroke-miterlimit:10;stroke-dasharray:3.33, 1.44;stroke-dashoffset:0;stroke-opacity:1"
         id="path330" /><text
         transform="scale(1,-1)"
         style="font-variant:normal;font-weight:normal;font-size:6px;font-family:'DejaVu Sans';-inkscape-font-specification:DejaVuSans;writing-mode:lr-tb;fill:#000000;fill-opacity:1;fill-rule:nonzero;stroke:none;stroke-width:0.6"
         id="text334"
         x="348.09464"
         y="-661.8385"><tspan
           x="348.09464 351.43661 356.61462"
           y="-661.8385"
           sodipodi:role="line"
           id="tspan332"
           style="stroke-width:0.6">LMU</tspan></text><path
         d="m 331.29462,655.13537 h 12"
         style="fill:none;stroke:#9467bd;stroke-width:0.9;stroke-linecap:butt;stroke-linejoin:round;stroke-miterlimit:10;stroke-dasharray:3.33, 1.44;stroke-dashoffset:0;stroke-opacity:1"
         id="path338" /><text
         transform="scale(1,-1)"
         style="font-variant:normal;font-weight:normal;font-size:6px;font-family:'DejaVu Sans';-inkscape-font-specification:DejaVuSans;writing-mode:lr-tb;fill:#000000;fill-opacity:1;fill-rule:nonzero;stroke:none;stroke-width:0.6"
         id="text342"
         x="348.09464"
         y="-653.0354"><tspan
           x="348.09464 351.43661 356.61462 361.00662 362.91461 367.94263 369.85062 373.8515 376.20349 378.55548 382.24548 386.0495 388.40149 390.06949 393.74149"
           y="-653.0354"
           sodipodi:role="line"
           id="tspan340"
           style="stroke-width:0.6">LMU + Attention</tspan></text></g></g></svg>
