<?xml version="1.0" encoding="UTF-8" standalone="no"?>
<!-- Created with Inkscape (http://www.inkscape.org/) -->

<svg
   xmlns:dc="http://purl.org/dc/elements/1.1/"
   xmlns:cc="http://creativecommons.org/ns#"
   xmlns:rdf="http://www.w3.org/1999/02/22-rdf-syntax-ns#"
   xmlns:svg="http://www.w3.org/2000/svg"
   xmlns="http://www.w3.org/2000/svg"
   xmlns:sodipodi="http://sodipodi.sourceforge.net/DTD/sodipodi-0.dtd"
   xmlns:inkscape="http://www.inkscape.org/namespaces/inkscape"
   id="svg2"
   version="1.1"
   inkscape:version="0.48.5 r10040"
   width="178.75549"
   height="108.41775"
   xml:space="preserve"
   sodipodi:docname="logo-dark.svg"><metadata
     id="metadata8"><rdf:RDF><cc:Work
         rdf:about=""><dc:format>image/svg+xml</dc:format><dc:type
           rdf:resource="http://purl.org/dc/dcmitype/StillImage" /><dc:title></dc:title></cc:Work></rdf:RDF></metadata><defs
     id="defs6"><clipPath
       clipPathUnits="userSpaceOnUse"
       id="clipPath16"><path
         d="M 0,792 612,792 612,0 0,0 0,792 z"
         id="path18"
         inkscape:connector-curvature="0" /></clipPath></defs><sodipodi:namedview
     pagecolor="#ffffff"
     bordercolor="#666666"
     borderopacity="1"
     objecttolerance="10"
     gridtolerance="10"
     guidetolerance="10"
     inkscape:pageopacity="0"
     inkscape:pageshadow="2"
     inkscape:window-width="1920"
     inkscape:window-height="1048"
     id="namedview4"
     showgrid="false"
     fit-margin-top="3"
     fit-margin-left="3"
     fit-margin-right="3"
     fit-margin-bottom="3"
     inkscape:zoom="3.8141414"
     inkscape:cx="98.960864"
     inkscape:cy="17.840505"
     inkscape:window-x="1920"
     inkscape:window-y="0"
     inkscape:window-maximized="1"
     inkscape:current-layer="g10" /><g
     id="g10"
     inkscape:groupmode="layer"
     inkscape:label="ABR logo"
     transform="matrix(1.25,0,0,-1.25,-290.93613,570.5215)"><path
       inkscape:connector-curvature="0"
       id="path22"
       style="fill:#373535;fill-opacity:1;fill-rule:nonzero;stroke:none"
       d="m 315.6846,374.2627 c -4.741,0.018 -12.444,1.728 -19.734,1.728 l -0.042,0 -0.01,-0.004 c -2.306,0.004 -4.559,-0.084 -6.597,-0.304 l -3.168,-0.341 -0.68,6.336 3.168,0.336 c 2.349,0.249 4.811,0.339 7.277,0.341 7.813,-0.005 15.894,-1.728 19.72,-1.726 0,0 0.003,0 0.01,0.002 0.013,0 0.028,0.002 0.028,-0.004 l 0.011,0 c 0.013,0.002 0.031,0.002 0.048,0 5.029,0.06 8.229,2.169 10.678,5.461 2.371,3.245 3.6,7.763 3.6,11.693 0.004,0.002 -0.004,0.02 0.004,0.07 0,0.016 -10e-4,0.037 0.002,0.049 -0.002,1.558 -0.194,3.022 -0.532,4.258 -1.448,5.796 -7.363,11.059 -9.122,12.219 -3.589,2.447 -7.078,3.806 -8.217,4.282 -1.05,0.447 -2.577,0.973 -3.331,1.154 l -2.726,0.654 2.427,1.39 c 0.627,0.358 2.518,1.311 4.83,3.108 2.36,1.864 5.657,4.823 5.757,10.925 l 0,0.202 c -0.003,0.021 -0.003,0.067 0.007,0.094 -0.078,5 -1.581,7.4 -3.596,9.055 -1.996,1.601 -4.959,2.338 -7.836,2.338 l -0.051,-0.003 -0.029,0 -13.877,0 -0.002,-20.785 -0.048,-6.406 -0.251,-0.025 c -0.002,0 -1.247,-0.125 -1.689,-0.182 -0.892,-0.114 -1.566,-0.222 -1.569,-0.222 l -0.205,-0.033 -0.093,0.186 -0.304,0.607 c -0.34,0.597 -2.091,4.334 -2.108,4.362 l -0.103,0.23 0,28.636 3.185,0 17.064,0 c 3.878,-0.007 8.262,-0.884 11.857,-3.707 3.45,-2.674 5.768,-7.109 5.994,-13 l 0.023,0 0,-0.285 0,-0.757 0,-0.03 0,-0.062 c 10e-4,-6.369 -2.447,-10.938 -5.571,-14.059 0.074,-0.037 0.152,-0.077 0.229,-0.115 0.872,-0.452 1.895,-1.016 2.713,-1.536 4.888,-3.141 10.551,-8.387 12.792,-16.578 0.506,-1.868 0.747,-3.883 0.749,-5.962 -0.012,-5.178 -1.486,-10.859 -4.808,-15.492 -3.29,-4.623 -8.711,-8.089 -15.739,-8.098 l -0.002,0 -0.013,0 -0.014,0 -0.104,0 m 6.833,45.65 0,0" /><path
       inkscape:connector-curvature="0"
       id="path26"
       style="fill:#373535;fill-opacity:1;fill-rule:nonzero;stroke:none"
       d="m 353.4453,415.6992 -1,2.038 c 1.053,0.371 2.589,0.923 3.703,1.386 2.653,1.053 4.489,2.09 6.94,4.732 2.444,2.585 4.515,6.515 4.685,11.732 l 0.011,0.029 -10e-4,0.774 0,0.157 -0.003,0.006 c -0.011,6.298 -2.396,11.023 -6.02,13.806 -3.6,2.79 -7.974,3.652 -11.85,3.658 l -21.079,0 0.032,-36.799 0.353,-0.331 c 0.742,-0.667 2.094,-2.243 3.168,-3.664 1.094,-1.439 2.283,-3.821 2.285,-3.825 l 0.539,0.126 0,3.146 -0.007,34.983 3.204,0 c 3.622,0 8.093,0 11.503,-0.002 l 0.032,0.002 0.003,-0.002 0.286,0 c 2.828,-0.043 5.679,-0.777 7.614,-2.312 2.017,-1.637 3.496,-3.988 3.576,-8.925 l 0,-0.002 -0.009,-0.09 -0.002,-0.042 0.017,-0.078 c -0.061,-3.912 -1.384,-6.23 -3,-8.011 -2.266,-2.337 -5.279,-3.996 -7.52,-4.634 -1.406,-0.409 -2.963,-0.771 -4.168,-1.033 -0.603,-0.131 -1.114,-0.233 -1.48,-0.308 -0.182,-0.038 -0.327,-0.063 -0.424,-0.081 -0.051,-0.011 -0.086,-0.018 -0.114,-0.025 l 0,-0.004 -1.124,-0.203 -0.372,-0.071 0.781,-1.547 3.687,-7.31 18.613,-40.81 7.049,0.015 -19.908,43.519 z" /><path
       inkscape:connector-curvature="0"
       id="path110"
       style="fill:#373535;fill-opacity:1;fill-rule:nonzero;stroke:none"
       d="m 235.5869,372.083 0,0.285 0.258,-0.114 -0.258,0.114 0,-0.285 -0.438,0 35.952,81.921 1.779,0 15.518,-34.243 -0.363,-0.061 c -0.002,0 -1.094,-0.188 -2.957,-0.573 -1.867,-0.376 -2.979,-0.668 -2.983,-0.668 l -0.228,-0.062 -0.1,0.213 -0.336,0.7 c -0.749,1.648 -6.866,15.062 -9.336,20.475 l -29.908,-67.702 -6.6,0 z" /></g></svg>