<?xml version="1.0" encoding="UTF-8" standalone="no"?>
<!-- Created with Inkscape (http://www.inkscape.org/) -->

<svg
   xmlns:dc="http://purl.org/dc/elements/1.1/"
   xmlns:cc="http://creativecommons.org/ns#"
   xmlns:rdf="http://www.w3.org/1999/02/22-rdf-syntax-ns#"
   xmlns:svg="http://www.w3.org/2000/svg"
   xmlns="http://www.w3.org/2000/svg"
   xmlns:sodipodi="http://sodipodi.sourceforge.net/DTD/sodipodi-0.dtd"
   xmlns:inkscape="http://www.inkscape.org/namespaces/inkscape"
   version="1.1"
   id="svg2"
   xml:space="preserve"
   width="349.68719"
   height="165.216"
   viewBox="0 0 349.68719 165.216"
   sodipodi:docname="logo-2019-notext.svg"
   inkscape:version="0.92.4 (5da689c313, 2019-01-14)"><metadata
     id="metadata8"><rdf:RDF><cc:Work
         rdf:about=""><dc:format>image/svg+xml</dc:format><dc:type
           rdf:resource="http://purl.org/dc/dcmitype/StillImage" /><dc:title></dc:title></cc:Work></rdf:RDF></metadata><defs
     id="defs6"><clipPath
       clipPathUnits="userSpaceOnUse"
       id="clipPath22"><path
         d="M 0,792 H 612 V 0 H 0 Z"
         id="path20"
         inkscape:connector-curvature="0" /></clipPath></defs><sodipodi:namedview
     pagecolor="#ffffff"
     bordercolor="#666666"
     borderopacity="1"
     objecttolerance="10"
     gridtolerance="10"
     guidetolerance="10"
     inkscape:pageopacity="0"
     inkscape:pageshadow="2"
     inkscape:window-width="1916"
     inkscape:window-height="1033"
     id="namedview4"
     showgrid="false"
     fit-margin-top="4"
     fit-margin-left="4"
     fit-margin-right="4"
     fit-margin-bottom="4"
     inkscape:zoom="1.7878788"
     inkscape:cx="197.5984"
     inkscape:cy="-6.1488879"
     inkscape:window-x="1920"
     inkscape:window-y="22"
     inkscape:window-maximized="0"
     inkscape:current-layer="g10" /><g
     id="g10"
     inkscape:groupmode="layer"
     inkscape:label="ABR logo 2019"
     transform="matrix(1.3333333,0,0,-1.3333333,-251.66613,870.78638)"><g
       id="g4735"><path
         d="m 312.7842,536.5928 c -10.435,0.335 -22.847,-3.144 -28.579,-4.415 -1.446,3.742 -3.57,8.166 -4.932,11.228 11.636,3.049 19.309,4.283 28.036,4.707 7.025,0.341 17.489,-0.613 25.496,-2.541 9.496,-2.288 20.447,0 25.41,4.829 4.063,3.954 6.95,8.826 7.608,16.224 0.518,5.789 -1.374,10.301 -3.955,14.217 -3.636,5.521 -8.911,9.268 -14.788,12.685 -5.414,3.15 -13.928,5.876 -25.851,7.087 6.591,1.852 10.889,3.724 15.101,6.534 4.903,3.269 9.547,9.376 9.708,16.961 0,0 -0.004,0.392 0.009,0.492 -0.009,5.383 -2.755,8.812 -5.244,10.555 -3.264,2.289 -7.568,4.139 -14.928,4.139 h -0.024 l -0.109,-0.008 c -7.513,10e-4 -17.327,0.003 -23.754,0.008 l -0.062,-38.5 c 0,0 -3.084,-0.114 -4.202,-0.2 -0.81,-0.061 -4.309,-0.375 -4.309,-0.375 l -4.805,8.205 0.071,40.648 v 1.017 h 1.026 5.657 c 0.027,0 18.201,-0.005 30.322,-0.009 8.514,-0.014 16.121,-1.6 21.782,-5.135 6.812,-4.2 10.779,-11.047 11.172,-19.278 l 0.041,-0.451 v -1.221 c -0.251,-7.823 -3.604,-14.549 -8.935,-19.742 2.148,-1.107 6.489,-3.557 9.371,-5.535 3.354,-2.298 13.167,-9.696 17.643,-20.238 1.274,-3.002 2.671,-11.223 1.473,-17.661 -1.81,-9.74 -6.256,-15.997 -11.034,-20.245 -8.387,-7.455 -21.263,-9.044 -30.459,-7.879 -7.356,0.932 -13.433,3.558 -23.956,3.897"
         style="fill:#30638c;fill-opacity:1;fill-rule:nonzero;stroke:none"
         id="path102"
         inkscape:connector-curvature="0" /><path
         d="m 433.127,532.2969 -0.296,0.516 -32.634,57.669 -7.546,13.397 c 3.914,0.681 6.458,1.272 11.144,2.588 7.511,2.11 13.09,4.55 15.827,6.911 2.247,1.937 4.831,4.935 4.984,10.478 l -0.011,0.45 c -0.165,6.168 -3.074,9.949 -5.907,11.778 -3.039,1.917 -7.798,3.055 -13.049,3.123 l -25.793,0.008 -0.038,-54.457 h -2.615 c 0,0 -1.427,2.044 -3.063,4.086 -1.727,2.16 -4.297,4.683 -4.297,4.683 l -3.387,2.981 -0.294,52.484 -0.002,1.016 h 1.029 5.664 c 0.292,-0.002 19.406,-0.009 31.798,-0.009 8.623,-0.016 16.414,-1.526 22.156,-5.065 7.224,-4.413 11.211,-11.686 11.227,-20.472 l 0.006,-1.331 c -0.298,-6.798 -3.403,-12.972 -8.759,-17.482 -4.033,-3.393 -8.693,-5.488 -12.752,-6.911 -1.295,-0.455 -3.063,-0.959 -5.342,-1.606 l 1.081,-1.747 34.886,-61.544 0.871,-1.517 -1.761,-0.002 -12.53,-0.023 z"
         style="fill:#30638c;fill-opacity:1;fill-rule:nonzero;stroke:none"
         id="path106"
         inkscape:connector-curvature="0" /><path
         d="m 206.9546,532.2397 h -0.608 l -11.728,0.002 h -0.777 l -2.092,0.023 64.831,117.513 0.582,0.239 h 0.608 l 3.165,-0.002 h 0.602 l 0.292,-0.518 27.427,-48.346 0.749,-1.313 -1.509,-0.202 -0.65,-0.085 c 0,0 -3.704,-0.547 -5.248,-0.806 -2.163,-0.363 -4.394,-0.762 -5.235,-0.929 l -1.185,-0.259 -0.375,0.646 -0.773,1.282 c -1.265,2.218 -10.921,19.073 -15.766,27.513 l -52.017,-94.232 z"
         style="fill:#30638c;fill-opacity:1;fill-rule:nonzero;stroke:none"
         id="path110"
         inkscape:connector-curvature="0" /></g></g></svg>