<?xml version="1.0" encoding="UTF-8" standalone="no"?>
<!-- Created with Inkscape (http://www.inkscape.org/) -->

<svg
   xmlns:dc="http://purl.org/dc/elements/1.1/"
   xmlns:cc="http://creativecommons.org/ns#"
   xmlns:rdf="http://www.w3.org/1999/02/22-rdf-syntax-ns#"
   xmlns:svg="http://www.w3.org/2000/svg"
   xmlns="http://www.w3.org/2000/svg"
   version="1.1"
   width="249.70676"
   height="234.31662"
   id="svg2"
   xml:space="preserve"><metadata
     id="metadata8"><rdf:RDF><cc:Work
         rdf:about=""><dc:format>image/svg+xml</dc:format><dc:type
           rdf:resource="http://purl.org/dc/dcmitype/StillImage" /><dc:title></dc:title></cc:Work></rdf:RDF></metadata><defs
     id="defs6"><clipPath
       id="clipPath16"><path
         d="M 0,792 612,792 612,0 0,0 0,792 z"
         id="path18" /></clipPath><clipPath
       id="clipPath32"><path
         d="m 224.876,455.408 86.346,0 0,-131.83 -86.346,0 0,131.83 z"
         id="path34" /></clipPath><clipPath
       id="clipPath48"><path
         d="m 208.511,469.608 156.806,0 0,-136.338 -156.806,0 0,136.338 z"
         id="path50" /></clipPath><clipPath
       id="clipPath64"><path
         d="m 253.266,470.776 141.951,0 0,-127.103 -141.951,0 0,127.103 z"
         id="path66" /></clipPath><clipPath
       id="clipPath80"><path
         d="m 259.716,413.459 125.011,0 0,-108.334 -125.011,0 0,108.334 z"
         id="path82" /></clipPath><clipPath
       id="clipPath96"><path
         d="m 219.218,453.345 62.643,0 0,-49.169 -62.643,0 0,49.169 z"
         id="path98" /></clipPath><clipPath
       id="clipPath112"><path
         d="m 316.231,475.683 49.037,0 0,-38.493 -49.037,0 0,38.493 z"
         id="path114" /></clipPath></defs><g
     transform="matrix(1.25,0,0,-1.25,-257.639,612.72343)"
     id="g10"><g
       id="g3455"><path
         d="m 286.4141,485.7988 c -19.091,-4.262 -35.118,-14.881 -46.359,-29.124 l 11.449,-75.283 134.356,29.974 c -0.277,4.113 -0.867,8.258 -1.793,12.405 -9.838,44.094 -53.556,71.864 -97.653,62.028"
         id="path22"
         style="fill:#1a3e5f;fill-opacity:1;fill-rule:nonzero;stroke:none" /><path
         d="m 403.4766,401.6641 c 0,22.404 -9.014,42.697 -23.604,57.473 -33.958,-9.952 -58.767,-41.317 -58.767,-78.492 0,-22.403 9.017,-42.7 23.606,-57.471 33.957,9.95 58.765,41.314 58.765,78.49"
         id="path26"
         style="fill:#1a3e5f;fill-opacity:1;fill-rule:nonzero;stroke:none" /><path
         d="m 311.2217,404.2627 c 0,19.361 -6.737,37.136 -17.979,51.146 -38.783,-6.414 -68.367,-40.087 -68.367,-80.688 0,-19.357 6.742,-37.134 17.982,-51.143 38.784,6.411 68.364,40.085 68.364,80.685"
         id="path42"
         style="opacity:0.57000703;fill:#4379aa;fill-opacity:1;fill-rule:nonzero;stroke:none" /><path
         d="m 341.7852,463.1631 -93.807,6.445 c -23.656,-14.337 -39.467,-40.327 -39.467,-70.008 0,-27.304 13.391,-51.471 33.953,-66.331 l 122.853,98.988 c -5.28,12.111 -13.401,22.695 -23.532,30.906"
         id="path58"
         style="opacity:0.57000703;fill:#4379aa;fill-opacity:1;fill-rule:nonzero;stroke:none" /><path
         d="m 273.9053,347.8135 103.395,-4.141 c 27.226,34.003 23.067,83.737 -10.049,112.681 -7.2,6.292 -15.2,11.082 -23.608,14.423 l -90.378,-103.416 20.64,-19.547 z"
         id="path74"
         style="opacity:0.77000397;fill:#e3dcee;fill-opacity:1;fill-rule:nonzero;stroke:none" /><path
         d="m 384,375.9766 c 0.655,4.83 0.846,9.613 0.658,14.323 l -112.008,23.159 -12.934,-95.643 c 9.124,-6.111 20.201,-10.313 32.257,-11.943 44.773,-6.053 85.972,25.335 92.027,70.104"
         id="path90"
         style="opacity:0.57000703;fill:#31bec5;fill-opacity:1;fill-rule:nonzero;stroke:none" /><path
         d="m 226.1758,404.1758 55.686,44.866 -62.644,4.303 c 5.194,-10.75 8.107,-22.808 8.107,-35.546 0,-4.645 -0.405,-9.192 -1.149,-13.623"
         id="path106"
         style="opacity:0.57000703;fill:#31bec5;fill-opacity:1;fill-rule:nonzero;stroke:none" /><path
         d="m 321.6777,437.1904 43.59,35.123 -49.036,3.369 c 4.066,-8.416 6.345,-17.856 6.345,-27.827 0,-3.638 -0.318,-7.195 -0.899,-10.665"
         id="path122"
         style="opacity:0.57000703;fill:#31bec5;fill-opacity:1;fill-rule:nonzero;stroke:none" /><path
         d="m 315.6846,374.2627 c -4.741,0.018 -12.444,1.728 -19.734,1.728 l -0.042,0 -0.01,-0.004 c -2.306,0.004 -4.559,-0.084 -6.597,-0.304 l -3.168,-0.341 -0.68,6.336 3.168,0.336 c 2.349,0.249 4.811,0.339 7.277,0.341 7.813,-0.005 15.894,-1.728 19.72,-1.726 0,0 0.003,0 0.01,0.002 0.013,0 0.028,0.002 0.028,-0.004 l 0.011,0 c 0.013,0.002 0.031,0.002 0.048,0 5.029,0.06 8.229,2.169 10.678,5.461 2.371,3.245 3.6,7.763 3.6,11.693 0.004,0.002 -0.004,0.02 0.004,0.07 0,0.016 -10e-4,0.037 0.002,0.049 -0.002,1.558 -0.194,3.022 -0.532,4.258 -1.448,5.796 -7.363,11.059 -9.122,12.219 -3.589,2.447 -7.078,3.806 -8.217,4.282 -1.05,0.447 -2.577,0.973 -3.331,1.154 l -2.726,0.654 2.427,1.39 c 0.627,0.358 2.518,1.311 4.83,3.108 2.36,1.864 5.657,4.823 5.757,10.925 l 0,0.202 c -0.003,0.021 -0.003,0.067 0.007,0.094 -0.078,5 -1.581,7.4 -3.596,9.055 -1.996,1.601 -4.959,2.338 -7.836,2.338 l -0.051,-0.003 -0.029,0 -13.877,0 -0.002,-20.785 -0.048,-6.406 -0.251,-0.025 c -0.002,0 -1.247,-0.125 -1.689,-0.182 -0.892,-0.114 -1.566,-0.222 -1.569,-0.222 l -0.205,-0.033 -0.093,0.186 -0.304,0.607 c -0.34,0.597 -2.091,4.334 -2.108,4.362 l -0.103,0.23 0,28.636 3.185,0 17.064,0 c 3.878,-0.007 8.262,-0.884 11.857,-3.707 3.45,-2.674 5.768,-7.109 5.994,-13 l 0.023,0 0,-0.285 0,-0.757 0,-0.03 0,-0.062 c 10e-4,-6.369 -2.447,-10.938 -5.571,-14.059 0.074,-0.037 0.152,-0.077 0.229,-0.115 0.872,-0.452 1.895,-1.016 2.713,-1.536 4.888,-3.141 10.551,-8.387 12.792,-16.578 0.506,-1.868 0.747,-3.883 0.749,-5.962 -0.012,-5.178 -1.486,-10.859 -4.808,-15.492 -3.29,-4.623 -8.711,-8.089 -15.739,-8.098 l -0.002,0 -0.013,0 -0.014,0 -0.104,0 m 6.833,45.65 0,0"
         id="path126"
         style="fill:#ffffff;fill-opacity:1;fill-rule:nonzero;stroke:none" /><path
         d="m 353.4453,415.6992 -1,2.038 c 1.053,0.371 2.589,0.923 3.703,1.386 2.653,1.053 4.489,2.09 6.94,4.732 2.444,2.585 4.515,6.515 4.685,11.732 l 0.011,0.029 -10e-4,0.774 0,0.157 -0.003,0.006 c -0.011,6.298 -2.396,11.023 -6.02,13.806 -3.6,2.79 -7.974,3.652 -11.85,3.658 l -21.079,0 0.032,-36.799 0.353,-0.331 c 0.742,-0.667 2.094,-2.243 3.168,-3.664 1.094,-1.439 2.283,-3.821 2.285,-3.825 l 0.539,0.126 0,3.146 -0.007,34.983 3.204,0 c 3.622,0 8.093,0 11.503,-0.002 l 0.032,0.002 0.003,-0.002 0.286,0 c 2.828,-0.043 5.679,-0.777 7.614,-2.312 2.017,-1.637 3.496,-3.988 3.576,-8.925 l 0,-0.002 -0.009,-0.09 -0.002,-0.042 0.017,-0.078 c -0.061,-3.912 -1.384,-6.23 -3,-8.011 -2.266,-2.337 -5.279,-3.996 -7.52,-4.634 -1.406,-0.409 -2.963,-0.771 -4.168,-1.033 -0.603,-0.131 -1.114,-0.233 -1.48,-0.308 -0.182,-0.038 -0.327,-0.063 -0.424,-0.081 -0.051,-0.011 -0.086,-0.018 -0.114,-0.025 l 0,-0.004 -1.124,-0.203 -0.372,-0.071 0.781,-1.547 3.687,-7.31 18.613,-40.81 7.049,0.015 -19.908,43.519 z"
         id="path130"
         style="fill:#ffffff;fill-opacity:1;fill-rule:nonzero;stroke:none" /><path
         d="m 232.6855,359.0352 2.127,0 -1.016,3.156 -1.111,-3.156 z m 3.856,-4.203 -0.206,0 -0.754,2.299 -3.656,0 -0.806,-2.299 -2.289,0 4.665,11.634 0.192,0 0.592,0 4.328,-11.634 -2.066,0 z"
         id="path134"
         style="fill:#ffffff;fill-opacity:1;fill-rule:nonzero;stroke:none" /><path
         d="m 241.251,359.8867 c 0.671,0 1.125,0.12 1.365,0.296 0.231,0.172 0.362,0.434 0.364,0.91 -0.007,0.684 -0.458,1.026 -1.875,1.059 -0.06,0 -0.121,-0.003 -0.181,-0.006 l 0,-2.241 c 0.137,-0.012 0.247,-0.018 0.327,-0.018 m -2.424,-5.055 0,9.17 0.27,0.01 c 1.023,0.044 1.614,0.067 1.802,0.067 1.39,-0.001 2.432,-0.205 3.144,-0.671 0.713,-0.471 1.076,-1.244 1.069,-2.195 0.004,-1.043 -0.313,-1.886 -0.97,-2.442 -0.661,-0.556 -1.602,-0.807 -2.807,-0.807 -0.114,0 -0.252,0.004 -0.411,0.014 l 0,-3.146 -2.097,0 z"
         id="path138"
         style="fill:#ffffff;fill-opacity:1;fill-rule:nonzero;stroke:none" /><path
         d="m 248.3262,359.8867 c 0.669,0 1.124,0.12 1.365,0.296 0.232,0.174 0.36,0.438 0.364,0.91 -0.006,0.684 -0.461,1.027 -1.875,1.059 -0.06,0 -0.122,-0.003 -0.181,-0.006 l 0,-2.241 c 0.134,-0.012 0.245,-0.018 0.327,-0.018 m -2.426,-5.055 0,9.17 0.271,0.01 c 1.022,0.044 1.614,0.067 1.801,0.067 1.393,-0.001 2.433,-0.205 3.147,-0.671 0.714,-0.471 1.076,-1.244 1.069,-2.195 0.002,-1.043 -0.314,-1.886 -0.972,-2.442 -0.658,-0.556 -1.603,-0.807 -2.807,-0.807 -0.117,0 -0.254,0.004 -0.41,0.014 l 0,-3.146 -2.099,0 z"
         id="path142"
         style="fill:#ffffff;fill-opacity:1;fill-rule:nonzero;stroke:none" /><path
         d="m 253.2588,354.832 -0.286,0 0,9.188 2.1,0 -0.001,-7.263 3.897,0 0,-1.925 -5.71,0 z"
         id="path146"
         style="fill:#ffffff;fill-opacity:1;fill-rule:nonzero;stroke:none" /><path
         d="m 259.9482,354.832 -0.285,0 0,9.188 2.101,0 0,-9.188 -1.816,0 z"
         id="path150"
         style="fill:#ffffff;fill-opacity:1;fill-rule:nonzero;stroke:none" /><path
         d="m 262.9922,354.832 0,9.188 6.07,0 0,-1.927 -3.972,0 0,-1.449 2.849,0 0,-1.872 -2.849,0 0,-2.015 3.908,0 0,-1.925 -6.006,0 z"
         id="path154"
         style="fill:#ffffff;fill-opacity:1;fill-rule:nonzero;stroke:none" /><path
         d="m 272.4609,356.7568 c 0.708,0.006 1.206,0.24 1.594,0.736 0.383,0.489 0.594,1.206 0.595,2.177 -0.044,1.755 -0.691,2.441 -2.287,2.482 -0.103,0 -0.243,-0.006 -0.417,-0.02 l 0,-5.359 c 0.162,-0.01 0.335,-0.016 0.515,-0.016 m -0.416,-1.925 -2.198,0 0,9.173 0.273,0.007 c 1.223,0.044 1.987,0.067 2.314,0.067 1.308,0.004 2.391,-0.39 3.185,-1.187 0.797,-0.791 1.188,-1.86 1.187,-3.129 10e-4,-1.591 -0.383,-2.837 -1.198,-3.685 -0.814,-0.843 -2.018,-1.246 -3.551,-1.246 l -0.012,0"
         id="path158"
         style="fill:#ffffff;fill-opacity:1;fill-rule:nonzero;stroke:none" /><path
         d="m 284.3984,361.9434 c 1.349,0.044 1.797,0.438 1.832,1.436 -0.03,0.854 -0.419,1.193 -1.661,1.234 -0.382,0 -0.734,-0.014 -1.054,-0.033 l 0,-2.614 c 0.253,-0.016 0.548,-0.023 0.883,-0.023 m 0.014,-5.352 c 0.9,0 1.521,0.173 1.866,0.461 0.346,0.287 0.538,0.737 0.542,1.452 -0.004,0.66 -0.185,1.082 -0.511,1.354 -0.323,0.272 -0.946,0.443 -1.867,0.441 l -0.927,-0.028 0,-3.63 c 0.384,-0.033 0.684,-0.05 0.897,-0.05 m 0.447,-1.759 -3.4,0 0,11.471 0.269,0.014 c 1.33,0.065 2.289,0.096 2.885,0.096 1.117,0 2.02,-0.241 2.681,-0.754 0.662,-0.518 0.998,-1.292 0.994,-2.221 0.002,-0.576 -0.223,-1.117 -0.641,-1.577 -0.198,-0.222 -0.413,-0.405 -0.644,-0.551 0.543,-0.216 0.979,-0.511 1.291,-0.895 0.449,-0.546 0.659,-1.275 0.657,-2.151 0.007,-1.023 -0.39,-1.894 -1.158,-2.513 -0.759,-0.621 -1.746,-0.919 -2.918,-0.919 l -0.016,0"
         id="path162"
         style="fill:#ffffff;fill-opacity:1;fill-rule:nonzero;stroke:none" /><path
         d="m 292.0039,360.2578 c 0.611,0 1.039,0.094 1.257,0.233 0.179,0.109 0.306,0.334 0.307,0.807 -0.009,0.36 -0.105,0.515 -0.326,0.639 -0.244,0.134 -0.707,0.22 -1.368,0.219 -0.076,0 -0.153,-0.002 -0.232,-0.008 l 0,-1.876 c 0.153,-0.009 0.274,-0.014 0.362,-0.014 m 2.623,-5.426 -0.156,0 -2.301,3.565 c -0.151,0.002 -0.325,0.01 -0.528,0.02 l 0,-3.585 -2.16,0 0,9.188 0.286,0 c 0.062,0 0.407,0.015 0.981,0.047 0.576,0.023 1.046,0.045 1.409,0.045 1.128,0 2.014,-0.216 2.635,-0.7 0.626,-0.479 0.937,-1.223 0.931,-2.13 0.003,-0.567 -0.173,-1.099 -0.506,-1.562 -0.261,-0.36 -0.581,-0.645 -0.954,-0.844 l 2.656,-4.044 -2.293,0"
         id="path166"
         style="fill:#ffffff;fill-opacity:1;fill-rule:nonzero;stroke:none" /><path
         d="m 299.1025,358.3174 1.29,0 -0.645,1.983 -0.645,-1.983 z m 2.76,-3.485 -0.201,0 -0.629,1.75 -2.55,0 -0.602,-1.75 -2.323,0 3.661,9.302 0.191,0 0.865,0 3.694,-9.302 -2.106,0 z"
         id="path170"
         style="fill:#ffffff;fill-opacity:1;fill-rule:nonzero;stroke:none" /><path
         d="m 304.4902,354.832 -0.284,0 0,9.188 2.097,0 0,-9.188 -1.813,0 z"
         id="path174"
         style="fill:#ffffff;fill-opacity:1;fill-rule:nonzero;stroke:none" /><path
         d="m 313.4717,354.7148 -0.144,0 -3.76,4.9 0,-4.791 -2.04,0 0,9.194 0.287,0 0.873,0 3.65,-4.662 0,4.662 2.044,0 0,-9.303 -0.285,0 -0.625,0 z"
         id="path178"
         style="fill:#ffffff;fill-opacity:1;fill-rule:nonzero;stroke:none" /><path
         d="m 322.3389,361.3535 c 0.864,0 1.461,0.147 1.789,0.38 0.302,0.215 0.487,0.616 0.49,1.312 -0.009,0.545 -0.175,0.856 -0.519,1.077 -0.36,0.223 -1.012,0.364 -1.927,0.362 -0.098,0 -0.301,-0.013 -0.595,-0.047 l 0,-3.04 c 0.26,-0.028 0.515,-0.042 0.762,-0.044 m 3.448,-6.521 -0.16,0 -2.916,4.691 c -0.284,0.004 -0.66,0.021 -1.134,0.05 l 0,-4.741 -2.06,0 0,11.483 0.287,0 c 0.026,0 0.427,0.02 1.142,0.059 0.718,0.039 1.246,0.057 1.585,0.057 1.349,0 2.396,-0.263 3.128,-0.845 0.734,-0.582 1.093,-1.469 1.087,-2.569 0.004,-0.743 -0.228,-1.435 -0.686,-2.028 -0.363,-0.475 -0.799,-0.82 -1.295,-1.012 l 3.244,-5.145 -2.222,0"
         id="path182"
         style="fill:#ffffff;fill-opacity:1;fill-rule:nonzero;stroke:none" /><path
         d="m 328.0166,354.832 0,9.188 6.072,0 0,-1.927 -3.974,0 0,-1.449 2.85,0 0,-1.872 -2.85,0 0,-2.015 3.909,0 0,-1.925 -6.007,0 z"
         id="path186"
         style="fill:#ffffff;fill-opacity:1;fill-rule:nonzero;stroke:none" /><path
         d="m 334.5342,355.3506 -0.201,0.128 0.79,1.919 0.292,-0.202 c 0.569,-0.4 1.106,-0.585 1.62,-0.585 0.859,0.039 1.04,0.212 1.064,0.654 -0.002,0.232 -0.079,0.44 -0.255,0.666 -0.16,0.209 -0.569,0.5 -1.216,0.819 -0.672,0.342 -1.127,0.616 -1.402,0.868 -0.259,0.241 -0.46,0.532 -0.597,0.858 -0.142,0.331 -0.21,0.698 -0.21,1.089 -0.002,0.735 0.285,1.388 0.828,1.872 0.545,0.488 1.255,0.731 2.067,0.729 1.032,-0.002 1.825,-0.183 2.374,-0.622 l 0.158,-0.124 -0.657,-1.865 -0.307,0.22 c -0.499,0.357 -1.002,0.523 -1.536,0.525 -0.305,-0.002 -0.492,-0.076 -0.625,-0.206 -0.135,-0.132 -0.2,-0.279 -0.205,-0.517 -0.028,-0.264 0.404,-0.773 1.486,-1.284 0.593,-0.295 1.024,-0.562 1.317,-0.832 0.28,-0.262 0.5,-0.574 0.649,-0.927 0.15,-0.353 0.222,-0.742 0.222,-1.166 0.007,-0.77 -0.318,-1.449 -0.927,-1.944 -0.615,-0.502 -1.421,-0.742 -2.383,-0.742 l -0.017,0 c -0.855,-0.002 -1.64,0.225 -2.329,0.669"
         id="path190"
         style="fill:#ffffff;fill-opacity:1;fill-rule:nonzero;stroke:none" /><path
         d="m 340.9766,354.832 0,9.188 6.071,0 0,-1.927 -3.973,0 -10e-4,-1.449 2.849,0 0,-1.872 -2.848,0 0,-2.015 3.906,0 0,-1.925 -6.004,0 z"
         id="path194"
         style="fill:#ffffff;fill-opacity:1;fill-rule:nonzero;stroke:none" /><path
         d="m 350.3916,358.3174 1.289,0 -0.645,1.983 -0.644,-1.983 z m 2.757,-3.484 -0.199,0 -0.628,1.747 -2.553,0 -0.6,-1.747 -2.321,0 3.661,9.301 0.196,0 0.858,0 3.695,-9.301 -2.109,0 z"
         id="path198"
         style="fill:#ffffff;fill-opacity:1;fill-rule:nonzero;stroke:none" /><path
         d="m 357.8672,360.2578 c 0.615,0 1.036,0.094 1.256,0.233 0.177,0.109 0.303,0.334 0.307,0.805 -0.012,0.362 -0.106,0.515 -0.33,0.641 -0.241,0.134 -0.705,0.22 -1.363,0.219 -0.077,0 -0.155,-0.002 -0.233,-0.008 l 0,-1.876 c 0.15,-0.009 0.273,-0.014 0.363,-0.014 m 2.624,-5.426 -0.157,0 -2.303,3.563 c -0.15,0.004 -0.323,0.012 -0.527,0.022 l 0,-3.585 -2.161,0 0,9.186 0.287,0 c 0.063,0 0.404,0.017 0.979,0.047 0.58,0.025 1.047,0.044 1.407,0.044 1.131,0 2.016,-0.213 2.639,-0.697 0.626,-0.477 0.939,-1.224 0.931,-2.129 0.004,-0.568 -0.171,-1.098 -0.506,-1.565 -0.259,-0.36 -0.578,-0.645 -0.951,-0.842 l 2.654,-4.044 -2.292,0"
         id="path202"
         style="fill:#ffffff;fill-opacity:1;fill-rule:nonzero;stroke:none" /><path
         d="m 363.2441,355.9736 c -0.721,0.856 -1.068,2.01 -1.068,3.424 0,1.329 0.388,2.474 1.175,3.387 0.787,0.915 1.833,1.383 3.056,1.38 1.025,0 1.877,-0.209 2.533,-0.654 l -0.159,-0.233 0.159,0.233 0.205,-0.136 -0.917,-1.841 -0.278,0.279 c -0.261,0.263 -0.731,0.429 -1.446,0.429 -0.637,-0.006 -1.12,-0.248 -1.541,-0.791 -0.415,-0.55 -0.63,-1.242 -0.632,-2.118 0.002,-0.88 0.201,-1.538 0.584,-2.017 0.377,-0.478 0.836,-0.699 1.475,-0.705 0.747,0.006 1.276,0.251 1.682,0.761 l 0.26,0.332 1.028,-1.784 -0.145,-0.155 c -0.69,-0.729 -1.698,-1.085 -2.948,-1.085 l -0.01,0 c -1.262,0 -2.293,0.438 -3.013,1.294"
         id="path206"
         style="fill:#ffffff;fill-opacity:1;fill-rule:nonzero;stroke:none" /><path
         d="m 374.9258,354.832 0,3.884 -2.865,0 0,-3.884 -2.099,0 0,9.186 2.099,0 0,-3.374 2.865,0 0,3.374 2.081,0 0,-9.186 -0.284,0 -1.517,0 -0.28,0 z"
         id="path210"
         style="fill:#ffffff;fill-opacity:1;fill-rule:nonzero;stroke:none" /><path
         d="m 235.5869,372.083 0,0.285 0.258,-0.114 -0.258,0.114 0,-0.285 -0.438,0 35.952,81.921 1.779,0 15.518,-34.243 -0.363,-0.061 c -0.002,0 -1.094,-0.188 -2.957,-0.573 -1.867,-0.376 -2.979,-0.668 -2.983,-0.668 l -0.228,-0.062 -0.1,0.213 -0.336,0.7 c -0.749,1.648 -6.866,15.062 -9.336,20.475 l -29.908,-67.702 -6.6,0 z"
         id="path214"
         style="fill:#ffffff;fill-opacity:1;fill-rule:nonzero;stroke:none" /></g></g></svg>