<?xml version="1.0" encoding="UTF-8"?>
<svg width="1400px" height="416px" viewBox="0 0 1400 416" version="1.1" xmlns="http://www.w3.org/2000/svg" xmlns:xlink="http://www.w3.org/1999/xlink">
    <!-- Generator: Sketch 52.6 (67491) - http://www.bohemiancoding.com/sketch -->
    <title>circuitry</title>
    <desc>Created with Sketch.</desc>
    <defs>
        <polygon id="path-1" points="0.0095328865 0.0557390313 534.941991 0.0557390313 534.941991 58.7319954 0.0095328865 58.7319954"></polygon>
        <polygon id="path-3" points="0.147513995 0.295938406 527.939794 0.295938406 527.939794 102.161819 0.147513995 102.161819"></polygon>
        <polygon id="path-5" points="0.695470023 0.126858065 532.944938 0.126858065 532.944938 105.484019 0.695470023 105.484019"></polygon>
        <polygon id="path-7" points="0 0.921387605 12.9237791 0.921387605 12.9237791 13.8401849 0 13.8401849"></polygon>
        <polygon id="path-9" points="0 444 691.942976 444 691.942976 0.263332385 0 0.263332385"></polygon>
        <polygon id="path-11" points="0.0095328865 0.0557390313 534.941991 0.0557390313 534.941991 58.7319954 0.0095328865 58.7319954"></polygon>
        <polygon id="path-13" points="0.147513995 0.295938406 527.939794 0.295938406 527.939794 102.161819 0.147513995 102.161819"></polygon>
        <polygon id="path-15" points="0.695470023 0.126858065 532.944938 0.126858065 532.944938 105.484019 0.695470023 105.484019"></polygon>
        <polygon id="path-17" points="0 0.921387605 12.9237791 0.921387605 12.9237791 13.8401849 0 13.8401849"></polygon>
        <polygon id="path-19" points="0 444 691.942976 444 691.942976 0.263332385 0 0.263332385"></polygon>
    </defs>
    <g id="Design" stroke="none" stroke-width="1" fill="none" fill-rule="evenodd">
        <g id="Home-v3" transform="translate(0.000000, -98.000000)">
            <g id="Group-6" transform="translate(0.000000, 98.000000)">
                <g id="Group" transform="translate(1034.000000, -58.000000)">
                    <g id="Group-291" transform="translate(157.000000, 181.000000)">
                        <mask id="mask-2" fill="white">
                            <use xlink:href="#path-1"></use>
                        </mask>
                        <g id="Clip-290"></g>
                        <polygon id="Fill-289" fill="#FFFFFF" mask="url(#mask-2)" points="534.942673 55.8133444 522.723985 55.8133444 467.577995 0.0557390313 384.62384 0.0591849003 339.133511 46.0477519 103.072548 46.0477519 75.1212336 17.7950724 0.0095328865 17.7950724 0.0095328865 20.7068316 73.93856 20.7068316 101.883057 48.962957 340.333226 48.962957 385.806513 2.97439003 466.381689 2.97439003 521.520862 58.7319954 534.942673 58.7319954"></polygon>
                    </g>
                    <path d="M158.520729,205 C155.473618,205 153,202.535972 153,199.501728 C153,196.460572 155.473618,194 158.520729,194 C161.533291,194 164,196.460572 164,199.501728 C164,202.535972 161.533291,205 158.520729,205" id="Fill-292" fill="#FFFFFF"></path>
                    <path d="M164.506918,312 C161.469811,312 159,309.531741 159,306.493086 C159,303.457888 161.469811,301 164.506918,301 C167.544025,301 170,303.457888 170,306.493086 C170,309.531741 167.544025,312 164.506918,312" id="Fill-294" fill="#FFFFFF"></path>
                    <g id="Group-298" transform="translate(164.000000, 226.000000)">
                        <mask id="mask-4" fill="white">
                            <use xlink:href="#path-3"></use>
                        </mask>
                        <g id="Clip-297"></g>
                        <polygon id="Fill-296" fill="#FFFFFF" mask="url(#mask-4)" points="527.940475 56.8429384 391.898115 56.8429384 348.790996 99.3136449 297.06109 99.3136449 228.678639 31.9314928 96.678423 31.9314928 64.5696177 0.295938406 0.147513995 0.295938406 0.147513995 3.13403623 63.3665173 3.13403623 95.4821391 34.7796667 227.489171 34.7796667 295.857989 102.161819 349.980463 102.161819 393.090991 59.6776775 527.940475 59.6776775"></polygon>
                    </g>
                    <path d="M165.503453,234 C162.461707,234 160,231.530612 160,228.491366 C160,225.455573 162.461707,223 165.503453,223 C168.527935,223 171,225.455573 171,228.491366 C171,231.530612 168.527935,234 165.503453,234" id="Fill-299" fill="#FFFFFF"></path>
                    <polygon id="Fill-301" fill="#FFFFFF" points="450.967235 347 394.114295 290.232242 256.398712 290.235631 218.997873 252.870585 169 252.870585 169 250 220.178845 250 257.593258 287.365047 395.308841 287.365047 453 344.973306"></polygon>
                    <path d="M168.493095,258 C165.472065,258 163,255.531387 163,252.503453 C163,249.46516 165.472065,247 168.493095,247 C171.531387,247 174,249.46516 174,252.506905 C174,255.531387 171.531387,258 168.493095,258" id="Fill-303" fill="#FFFFFF"></path>
                    <polygon id="Fill-318" fill="#FFFFFF" points="249.002372 437 156 437 156 434.149215 247.8193 434.149215 281.398755 401 432 401 432 403.850785 282.595464 403.850785"></polygon>
                    <path d="M158.513819,441 C155.473618,441 153,438.530612 153,435.508634 C153,432.465934 155.473618,430 158.513819,430 C161.536746,430 164,432.465934 164,435.508634 C164,438.530612 161.536746,441 158.513819,441" id="Fill-320" fill="#FFFFFF"></path>
                    <path d="M334.510358,424 C331.46516,424 329,421.535972 329,418.501728 C329,415.460572 331.46516,413 334.510358,413 C337.541745,413 340,415.460572 340,418.501728 C340,421.535972 337.541745,424 334.510358,424" id="Fill-324" fill="#FFFFFF"></path>
                    <polygon id="Fill-328" fill="#FFFFFF" points="416 386 278.314465 386 249.558438 356.906899 169 356.906899 169 354 250.737159 354 279.513627 383.07588 416 383.07588"></polygon>
                    <path d="M168.493095,362 C165.472065,362 163,359.536746 163,356.5 C163,353.459799 165.472065,351 168.493095,351 C171.531387,351 174,353.459799 174,356.5 C174,359.536746 171.531387,362 168.493095,362" id="Fill-330" fill="#FFFFFF"></path>
                    <polygon id="Fill-334" fill="#FFFFFF" points="396 355 295.700763 355 266.084578 324.933564 155 324.933564 155 322 267.285603 322 296.901788 352.052582 396 352.052582"></polygon>
                    <path d="M155.496543,328 C152.454431,328 150,325.538655 150,322.5 C150,319.471716 152.454431,317 155.496543,317 C158.528284,317 161,319.471716 161,322.5 C161,325.538655 158.528284,328 155.496543,328" id="Fill-336" fill="#FFFFFF"></path>
                    <g id="Group-346" transform="translate(159.000000, 90.000000)">
                        <mask id="mask-6" fill="white">
                            <use xlink:href="#path-5"></use>
                        </mask>
                        <g id="Clip-345"></g>
                        <polygon id="Fill-344" fill="#FFFFFF" mask="url(#mask-6)" points="532.945618 54.1902774 517.705454 54.1902774 468.558985 103.634148 334.28308 103.634148 231.381385 0.126858065 165.404119 0.126858065 132.340713 33.4006 0.695470023 33.4006 0.695470023 35.2436323 133.112237 35.2436323 166.168846 1.96989032 230.630253 1.96989032 333.518353 105.484019 469.316914 105.484019 518.459985 56.0333097 532.945618 56.0333097"></polygon>
                    </g>
                    <path d="M159.498152,130 C157.01807,130 155,127.979517 155,125.494469 C155,123.013109 157.01807,121 159.498152,121 C161.985626,121 164,123.013109 164,125.494469 C164,127.979517 161.985626,130 159.498152,130" id="Fill-347" fill="#FFFFFF"></path>
                    <path d="M366.503679,443.999955 C364.027392,444.011029 362,441.98807 362,439.503669 C362,437.015576 364.027392,435 366.503679,435 C368.979967,435 371,437.015576 371,439.503669 C371,441.98807 368.979967,444.011029 366.503679,443.999955" id="Fill-349" fill="#FFFFFF"></path>
                    <g id="Group-391">
                        <polygon id="Fill-351" fill="#FFFFFF" points="178.231821 382.056429 17.5829306 382.056429 17.5829306 378.614817 176.808764 378.614817 195.369791 360.094048 252.632535 360.094048 313.52782 299.246896 607.586647 299.246896 682.532072 224.361232 684.962845 226.786004 609.009705 302.688508 314.964495 302.688508 254.052188 363.525458 196.792849 363.525458"></polygon>
                        <path d="M17.9036292,373.87682 C14.3289632,373.88022 11.4317816,376.770902 11.4317816,380.341744 C11.4317816,383.905785 14.3289632,386.803269 17.9036292,386.799868 C21.4782951,386.799868 24.3754767,383.905785 24.3754767,380.341744 C24.3754767,376.770902 21.4782951,373.87682 17.9036292,373.87682" id="Fill-355" fill="#FFFFFF"></path>
                        <polygon id="Fill-367" fill="#FFFFFF" points="108.420639 363.528178 40.5394351 363.528178 5.01066029 328.044209 7.44483756 325.616036 41.965897 360.093368 107.007795 360.093368 239.324905 227.921192 335.936209 227.921192 438.852543 125.111541 575.544363 125.111541 575.544363 128.553153 440.285814 128.553153 337.362671 231.3492 240.747962 231.3492"></polygon>
                        <g id="Group-373" transform="translate(0.000000, 319.675404)">
                            <mask id="mask-8" fill="white">
                                <use xlink:href="#path-7"></use>
                            </mask>
                            <g id="Clip-372"></g>
                            <path d="M11.0317595,2.81393401 C8.50906667,0.290538802 4.41352086,0.290538802 1.88742361,2.81393401 C-0.631864757,5.33052762 -0.631864757,9.42509344 1.89763694,11.9450879 C4.41352086,14.4718839 8.50906667,14.4718839 11.0317595,11.9450879 C13.5544523,9.42509344 13.5544523,5.33052762 11.0317595,2.81393401" id="Fill-371" fill="#FFFFFF" mask="url(#mask-8)"></path>
                        </g>
                        <polygon id="Fill-374" fill="#FFFFFF" points="208.542605 328.553649 142.724495 328.553649 142.724495 325.115438 207.119548 325.115438 265.223189 267.070546 323.497052 267.070546 323.497052 270.512158 266.639438 270.508757"></polygon>
                        <path d="M323.183163,275.250156 C326.744211,275.250156 329.641393,272.356073 329.641393,268.795433 C329.641393,265.224591 326.744211,262.327107 323.183163,262.327107 C319.608497,262.327107 316.707911,265.224591 316.707911,268.795433 C316.707911,272.356073 319.608497,275.250156 323.183163,275.250156" id="Fill-376" fill="#FFFFFF"></path>
                        <path d="M375.895527,236.625885 C373.389856,234.095688 369.287502,234.095688 366.758,236.625885 C364.225094,239.142479 364.225094,243.233644 366.758,245.757039 C369.280693,248.280434 373.389856,248.280434 375.895527,245.757039 C378.425029,243.233644 378.425029,239.142479 375.895527,236.625885" id="Fill-384" fill="#FFFFFF"></path>
                        <mask id="mask-10" fill="white">
                            <use xlink:href="#path-9"></use>
                        </mask>
                        <g id="Clip-390"></g>
                    </g>
                </g>
                <g id="Group" transform="translate(13.500000, 245.000000) rotate(-180.000000) translate(-13.500000, -245.000000) translate(-333.000000, 23.000000)">
                    <g id="Group-291" transform="translate(157.000000, 181.000000)">
                        <mask id="mask-12" fill="white">
                            <use xlink:href="#path-11"></use>
                        </mask>
                        <g id="Clip-290"></g>
                        <polygon id="Fill-289" fill="#FFFFFF" mask="url(#mask-12)" points="534.942673 55.8133444 522.723985 55.8133444 467.577995 0.0557390313 384.62384 0.0591849003 339.133511 46.0477519 103.072548 46.0477519 75.1212336 17.7950724 0.0095328865 17.7950724 0.0095328865 20.7068316 73.93856 20.7068316 101.883057 48.962957 340.333226 48.962957 385.806513 2.97439003 466.381689 2.97439003 521.520862 58.7319954 534.942673 58.7319954"></polygon>
                    </g>
                    <path d="M158.520729,205 C155.473618,205 153,202.535972 153,199.501728 C153,196.460572 155.473618,194 158.520729,194 C161.533291,194 164,196.460572 164,199.501728 C164,202.535972 161.533291,205 158.520729,205" id="Fill-292" fill="#FFFFFF"></path>
                    <path d="M164.506918,312 C161.469811,312 159,309.531741 159,306.493086 C159,303.457888 161.469811,301 164.506918,301 C167.544025,301 170,303.457888 170,306.493086 C170,309.531741 167.544025,312 164.506918,312" id="Fill-294" fill="#FFFFFF"></path>
                    <g id="Group-298" transform="translate(164.000000, 226.000000)">
                        <mask id="mask-14" fill="white">
                            <use xlink:href="#path-13"></use>
                        </mask>
                        <g id="Clip-297"></g>
                        <polygon id="Fill-296" fill="#FFFFFF" mask="url(#mask-14)" points="527.940475 56.8429384 391.898115 56.8429384 348.790996 99.3136449 297.06109 99.3136449 228.678639 31.9314928 96.678423 31.9314928 64.5696177 0.295938406 0.147513995 0.295938406 0.147513995 3.13403623 63.3665173 3.13403623 95.4821391 34.7796667 227.489171 34.7796667 295.857989 102.161819 349.980463 102.161819 393.090991 59.6776775 527.940475 59.6776775"></polygon>
                    </g>
                    <path d="M165.503453,234 C162.461707,234 160,231.530612 160,228.491366 C160,225.455573 162.461707,223 165.503453,223 C168.527935,223 171,225.455573 171,228.491366 C171,231.530612 168.527935,234 165.503453,234" id="Fill-299" fill="#FFFFFF"></path>
                    <polygon id="Fill-301" fill="#FFFFFF" points="450.967235 347 394.114295 290.232242 256.398712 290.235631 218.997873 252.870585 169 252.870585 169 250 220.178845 250 257.593258 287.365047 395.308841 287.365047 453 344.973306"></polygon>
                    <path d="M168.493095,258 C165.472065,258 163,255.531387 163,252.503453 C163,249.46516 165.472065,247 168.493095,247 C171.531387,247 174,249.46516 174,252.506905 C174,255.531387 171.531387,258 168.493095,258" id="Fill-303" fill="#FFFFFF"></path>
                    <polygon id="Fill-318" fill="#FFFFFF" points="249.002372 437 156 437 156 434.149215 247.8193 434.149215 281.398755 401 432 401 432 403.850785 282.595464 403.850785"></polygon>
                    <path d="M158.513819,441 C155.473618,441 153,438.530612 153,435.508634 C153,432.465934 155.473618,430 158.513819,430 C161.536746,430 164,432.465934 164,435.508634 C164,438.530612 161.536746,441 158.513819,441" id="Fill-320" fill="#FFFFFF"></path>
                    <path d="M334.510358,424 C331.46516,424 329,421.535972 329,418.501728 C329,415.460572 331.46516,413 334.510358,413 C337.541745,413 340,415.460572 340,418.501728 C340,421.535972 337.541745,424 334.510358,424" id="Fill-324" fill="#FFFFFF"></path>
                    <polygon id="Fill-328" fill="#FFFFFF" points="416 386 278.314465 386 249.558438 356.906899 169 356.906899 169 354 250.737159 354 279.513627 383.07588 416 383.07588"></polygon>
                    <path d="M168.493095,362 C165.472065,362 163,359.536746 163,356.5 C163,353.459799 165.472065,351 168.493095,351 C171.531387,351 174,353.459799 174,356.5 C174,359.536746 171.531387,362 168.493095,362" id="Fill-330" fill="#FFFFFF"></path>
                    <polygon id="Fill-334" fill="#FFFFFF" points="396 355 295.700763 355 266.084578 324.933564 155 324.933564 155 322 267.285603 322 296.901788 352.052582 396 352.052582"></polygon>
                    <path d="M155.496543,328 C152.454431,328 150,325.538655 150,322.5 C150,319.471716 152.454431,317 155.496543,317 C158.528284,317 161,319.471716 161,322.5 C161,325.538655 158.528284,328 155.496543,328" id="Fill-336" fill="#FFFFFF"></path>
                    <g id="Group-346" transform="translate(159.000000, 90.000000)">
                        <mask id="mask-16" fill="white">
                            <use xlink:href="#path-15"></use>
                        </mask>
                        <g id="Clip-345"></g>
                        <polygon id="Fill-344" fill="#FFFFFF" mask="url(#mask-16)" points="532.945618 54.1902774 517.705454 54.1902774 468.558985 103.634148 334.28308 103.634148 231.381385 0.126858065 165.404119 0.126858065 132.340713 33.4006 0.695470023 33.4006 0.695470023 35.2436323 133.112237 35.2436323 166.168846 1.96989032 230.630253 1.96989032 333.518353 105.484019 469.316914 105.484019 518.459985 56.0333097 532.945618 56.0333097"></polygon>
                    </g>
                    <path d="M159.498152,130 C157.01807,130 155,127.979517 155,125.494469 C155,123.013109 157.01807,121 159.498152,121 C161.985626,121 164,123.013109 164,125.494469 C164,127.979517 161.985626,130 159.498152,130" id="Fill-347" fill="#FFFFFF"></path>
                    <g id="Group-391">
                        <polygon id="Fill-351" fill="#FFFFFF" points="178.231821 382.056429 17.5829306 382.056429 17.5829306 378.614817 176.808764 378.614817 195.369791 360.094048 252.632535 360.094048 313.52782 299.246896 607.586647 299.246896 682.532072 224.361232 684.962845 226.786004 609.009705 302.688508 314.964495 302.688508 254.052188 363.525458 196.792849 363.525458"></polygon>
                        <path d="M17.9036292,373.87682 C14.3289632,373.88022 11.4317816,376.770902 11.4317816,380.341744 C11.4317816,383.905785 14.3289632,386.803269 17.9036292,386.799868 C21.4782951,386.799868 24.3754767,383.905785 24.3754767,380.341744 C24.3754767,376.770902 21.4782951,373.87682 17.9036292,373.87682" id="Fill-355" fill="#FFFFFF"></path>
                        <polygon id="Fill-367" fill="#FFFFFF" points="108.420639 363.528178 40.5394351 363.528178 5.01066029 328.044209 7.44483756 325.616036 41.965897 360.093368 107.007795 360.093368 239.324905 227.921192 335.936209 227.921192 438.852543 125.111541 575.544363 125.111541 575.544363 128.553153 440.285814 128.553153 337.362671 231.3492 240.747962 231.3492"></polygon>
                        <g id="Group-373" transform="translate(0.000000, 319.675404)">
                            <mask id="mask-18" fill="white">
                                <use xlink:href="#path-17"></use>
                            </mask>
                            <g id="Clip-372"></g>
                            <path d="M11.0317595,2.81393401 C8.50906667,0.290538802 4.41352086,0.290538802 1.88742361,2.81393401 C-0.631864757,5.33052762 -0.631864757,9.42509344 1.89763694,11.9450879 C4.41352086,14.4718839 8.50906667,14.4718839 11.0317595,11.9450879 C13.5544523,9.42509344 13.5544523,5.33052762 11.0317595,2.81393401" id="Fill-371" fill="#FFFFFF" mask="url(#mask-18)"></path>
                        </g>
                        <polygon id="Fill-374" fill="#FFFFFF" points="208.542605 328.553649 142.724495 328.553649 142.724495 325.115438 207.119548 325.115438 265.223189 267.070546 323.497052 267.070546 323.497052 270.512158 266.639438 270.508757"></polygon>
                        <path d="M323.183163,275.250156 C326.744211,275.250156 329.641393,272.356073 329.641393,268.795433 C329.641393,265.224591 326.744211,262.327107 323.183163,262.327107 C319.608497,262.327107 316.707911,265.224591 316.707911,268.795433 C316.707911,272.356073 319.608497,275.250156 323.183163,275.250156" id="Fill-376" fill="#FFFFFF"></path>
                        <mask id="mask-20" fill="white">
                            <use xlink:href="#path-19"></use>
                        </mask>
                        <g id="Clip-390"></g>
                    </g>
                </g>
            </g>
        </g>
    </g>
</svg>