<?xml version="1.0" encoding="UTF-8"?>
<svg width="114px" height="114px" viewBox="0 0 114 114" version="1.1" xmlns="http://www.w3.org/2000/svg" xmlns:xlink="http://www.w3.org/1999/xlink">
    <!-- Generator: Sketch 52.5 (67469) - http://www.bohemiancoding.com/sketch -->
    <title>icon-brain</title>
    <desc>Created with Sketch.</desc>
    <defs>
        <linearGradient x1="50.9324789%" y1="16.1123026%" x2="50.9324789%" y2="91.0236318%" id="linearGradient-1">
            <stop stop-color="#FFFFFF" stop-opacity="0.2" offset="0%"></stop>
            <stop stop-color="#67ADA2" stop-opacity="0.2" offset="100%"></stop>
        </linearGradient>
    </defs>
    <g id="Design" stroke="none" stroke-width="1" fill="none" fill-rule="evenodd">
        <g id="Home-v3" transform="translate(-645.000000, -603.000000)">
            <path d="M0,1108.45378 C195.072917,1217.29709 428.40625,1271.71875 700,1271.71875 C971.59375,1271.71875 1204.92708,1217.29709 1400,1108.45378 L1400,514 L0,514 L0,1108.45378 Z" id="Rectangle-9" fill="url(#linearGradient-1)" transform="translate(700.000000, 892.859375) scale(1, -1) rotate(-180.000000) translate(-700.000000, -892.859375) "></path>
            <g id="Group-11" transform="translate(645.000000, 603.000000)">
                <g id="Group-7" transform="translate(3.000000, 3.000000)" fill="#78BAB0" opacity="0.8">
                    <circle id="Oval-2" cx="37.25" cy="5.25" r="5.25"></circle>
                    <circle id="Oval-2-Copy" cx="19.25" cy="14.25" r="5.25"></circle>
                    <circle id="Oval-2-Copy-2" cx="5.25" cy="32.25" r="5.25"></circle>
                    <circle id="Oval-2-Copy-3" cx="5.25" cy="53.25" r="5.25"></circle>
                    <circle id="Oval-2-Copy-4" cx="25.25" cy="57.25" r="5.25"></circle>
                    <circle id="Oval-2-Copy-5" cx="41.25" cy="30.25" r="5.25"></circle>
                    <circle id="Oval-2-Copy-6" cx="68.25" cy="5.25" r="5.25"></circle>
                    <circle id="Oval-2-Copy-7" cx="91.25" cy="16.25" r="5.25"></circle>
                    <circle id="Oval-2-Copy-8" cx="73.25" cy="32.25" r="5.25"></circle>
                    <circle id="Oval-2-Copy-9" cx="66.25" cy="55.25" r="5.25"></circle>
                    <circle id="Oval-2-Copy-10" cx="105.25" cy="34.25" r="5.25"></circle>
                    <circle id="Oval-2-Copy-11" cx="105.25" cy="59.25" r="5.25"></circle>
                    <circle id="Oval-2-Copy-12" cx="84.25" cy="77.25" r="5.25"></circle>
                    <circle id="Oval-2-Copy-13" cx="57.25" cy="82.25" r="5.25"></circle>
                    <circle id="Oval-2-Copy-14" cx="32.25" cy="75.25" r="5.25"></circle>
                    <circle id="Oval-2-Copy-15" cx="57.25" cy="105.25" r="5.25"></circle>
                    <circle id="Oval-2-Copy-16" cx="84.25" cy="105.25" r="5.25"></circle>
                </g>
                <path d="M111,34.0155804 C111,31.0544346 108.590226,28.6446993 105.629032,28.6446993 C105.013161,28.6446993 104.429516,28.7700198 103.878097,28.9615813 L95.8556613,18.9341462 C96.3676935,18.1124014 96.6774194,17.1510137 96.6774194,16.1126433 C96.6774194,13.1514976 94.2676452,10.7417622 91.3064516,10.7417622 C89.8007903,10.7417622 88.4437258,11.368365 87.468,12.3673489 L73.3548871,5.85426042 C73.3692097,5.69313398 73.4032258,5.53737843 73.4032258,5.37088111 C73.4032258,2.40973533 70.9934516,0 68.0322581,0 C65.7012581,0 63.7319032,1.50205642 62.9907097,3.58058741 L42.6383226,3.58058741 C41.897129,1.50205642 39.9277742,0 37.5967742,0 C34.6355806,0 32.2258065,2.40973533 32.2258065,5.37088111 C32.2258065,5.59287753 32.2651935,5.80592249 32.2920484,6.02254802 L23.4120484,10.4624764 C22.4452742,9.53152369 21.1383387,8.95146852 19.6935484,8.95146852 C16.7323548,8.95146852 14.3225806,11.3612039 14.3225806,14.3223496 C14.3225806,15.36072 14.6323065,16.3221077 15.1443387,17.1438525 L7.12190323,27.1712876 C6.57048387,26.9797261 5.98683871,26.8544056 5.37096774,26.8544056 C2.40977419,26.8544056 0,29.2641409 0,32.2252867 C0,34.5562491 1.50208065,36.5255722 3.58064516,37.2667538 L3.58064516,48.6691344 C1.50208065,49.4085257 0,51.3778487 0,53.7088111 C0,56.6699569 2.40977419,59.0796923 5.37096774,59.0796923 C7.36001613,59.0796923 9.07872581,57.9804519 10.0079032,56.3709779 L19.7812742,58.1469492 C20.1948387,60.6999081 22.3969355,62.6602797 25.0645161,62.6602797 C25.1122581,62.6602797 26.3213226,65.5002823 28.6917097,71.1802874 C27.5745484,72.164949 26.8548387,73.5900227 26.8548387,75.1923356 C26.8548387,78.1534814 29.2646129,80.5632167 32.2258065,80.5632167 C34.026871,80.5632167 35.6148871,79.6644893 36.5888226,78.3020758 L51.953371,82.6918759 C52.0912258,84.8724537 53.5234839,86.6896018 55.5,87.3949775 L55.5,100.587652 C53.4214355,101.328833 51.9193548,103.298156 51.9193548,105.629119 C51.9193548,108.590265 54.329129,111 57.2903226,111 C60.2515161,111 62.6612903,108.590265 62.6612903,105.629119 C62.6612903,103.298156 61.1592097,101.328833 59.0806452,100.587652 L59.0806452,87.3949775 C61.1592097,86.6537959 62.6612903,84.6844728 62.6612903,82.3535104 C62.6612903,80.6384091 61.8377419,79.1256109 60.5827258,78.1409493 L62.720371,71.726327 L78.7849355,77.0810955 C78.8279032,79.3673005 80.3067097,81.2918663 82.3548387,82.0223061 L82.3548387,100.585862 C80.2762742,101.327043 78.7741935,103.296366 78.7741935,105.627329 C78.7741935,108.588474 81.1839677,110.99821 84.1451613,110.99821 C87.1063548,110.99821 89.516129,108.588474 89.516129,105.627329 C89.516129,103.296366 88.0140484,101.327043 85.9354839,100.585862 L85.9354839,82.0240964 C88.0140484,81.2829148 89.516129,79.3135917 89.516129,76.9826293 C89.516129,76.3291721 89.3818548,75.7097305 89.1670161,75.1296753 L102.904161,63.6825374 C103.704435,64.1587555 104.630032,64.4505734 105.629032,64.4505734 C108.590226,64.4505734 111,62.0408381 111,59.0796923 C111,56.7487299 109.497919,54.7794068 107.419355,54.0382252 L107.419355,39.0552572 C109.497919,38.3158659 111,36.3465428 111,34.0155804 Z M30.4247419,57.1891421 C30.4211613,56.9743069 30.3889355,56.7666328 30.3602903,56.5589587 L45.0463065,48.9448396 L49.5865645,63.57691 L30.4247419,57.1891421 Z M26.4287419,52.1154498 L23.9473548,33.0882083 L36.2146452,32.4741375 C36.9934355,34.3611071 38.8195645,35.6966662 40.964371,35.7826003 L43.9703226,45.4680892 L28.7203548,53.3758165 C28.0812097,52.7796487 27.2988387,52.3463976 26.4287419,52.1154498 Z M10.3337419,30.1843519 C10.2209516,29.9104369 10.0759355,29.6544249 9.92017742,29.4037838 L17.9426129,19.3763488 C18.1502903,19.4479605 18.3543871,19.5249431 18.5710161,19.5714908 L19.8922742,29.7063434 L10.3337419,30.1843519 Z M22.1212258,19.0863212 C23.859629,18.1965452 25.0645161,16.4062515 25.0645161,14.3223496 C25.0645161,14.1003532 25.025129,13.8873083 24.9982742,13.672473 L33.8782742,9.23254464 C34.8450484,10.1617071 36.1519839,10.7417622 37.5967742,10.7417622 C38.6960323,10.7417622 39.7183065,10.4069773 40.5705,9.83766391 L51.6866129,18.1750617 L43.6373226,25.6871341 C42.8979194,25.3022209 42.069,25.0641119 41.1774194,25.0641119 C38.7533226,25.0641119 36.7230968,26.6879083 36.0570968,28.8971307 L23.481871,29.5255238 L22.1212258,19.0863212 Z M63.1124516,7.51207239 L54.3452419,15.6937146 L42.9677419,7.16117482 L62.9907097,7.16117482 C63.0336774,7.27754391 63.0641129,7.39928388 63.1124516,7.51207239 Z M68.1056613,32.9557265 L53.6989355,40.4248319 L46.0112903,32.7355204 C46.3460806,32.0355156 46.5483871,31.2621087 46.5483871,30.434993 C46.5483871,29.6723279 46.3836774,28.9490492 46.0972258,28.2920114 L54.5976774,20.3574297 L68.3008065,30.6337156 C68.1414677,31.142159 68.0322581,31.6685053 68.0322581,32.2252867 C68.0322581,32.4759278 68.0734355,32.7140369 68.1056613,32.9557265 Z M42.9677419,30.434993 C42.9677419,31.4232351 42.1638871,32.2252867 41.1774194,32.2252867 C40.1909516,32.2252867 39.3870968,31.4232351 39.3870968,30.434993 C39.3870968,29.4467509 40.1909516,28.6446993 41.1774194,28.6446993 C42.1638871,28.6446993 42.9677419,29.4467509 42.9677419,30.434993 Z M50.3653548,42.1542556 L47.1982742,43.7959549 L45.0337742,36.8245512 L50.3653548,42.1542556 Z M48.2778387,47.270915 L53.0221935,44.8110514 L61.4098548,53.1985774 C61.0732742,53.8985823 60.8709677,54.6719892 60.8709677,55.4991049 C60.8709677,57.2142062 61.6945161,58.7287947 62.9513226,59.7116659 L60.4556129,67.1986742 L53.7705484,64.9697586 L48.2778387,47.270915 Z M66.2419355,57.2893986 C65.2554677,57.2893986 64.4516129,56.487347 64.4516129,55.4991049 C64.4516129,54.5108627 65.2554677,53.7088111 66.2419355,53.7088111 C67.2284032,53.7088111 68.0322581,54.5108627 68.0322581,55.4991049 C68.0322581,56.487347 67.2284032,57.2893986 66.2419355,57.2893986 Z M66.2419355,50.1282237 C65.4148065,50.1282237 64.6413871,50.3305269 63.941371,50.6671021 L56.3557742,43.0816277 L69.7473871,36.1370784 C70.7087903,37.0358059 71.9870806,37.5961678 73.4032258,37.5961678 C74.4022258,37.5961678 75.3260323,37.3043499 76.1280968,36.8281318 L84.2794355,43.6205061 L69.8082581,51.5139111 C68.8575968,50.6617313 67.6169032,50.1282237 66.2419355,50.1282237 Z M88.7606129,20.8121643 C89.5215,21.2275125 90.3808548,21.4835245 91.3064516,21.4835245 C91.9223226,21.4835245 92.5041774,21.3582039 93.0555968,21.1666425 L101.078032,31.1958678 C100.56779,32.0176126 100.258065,32.97721 100.258065,34.0155804 C100.258065,34.3038177 100.299242,34.5813132 100.344,34.8588087 L87.6613548,41.7765036 L78.4250806,34.080031 C78.6399194,33.4981855 78.7741935,32.8787439 78.7741935,32.2252867 C78.7741935,31.4984274 78.6255968,30.8037935 78.3624194,30.1718198 L88.7606129,20.8121643 Z M75.1935484,32.2252867 C75.1935484,33.2135288 74.3896935,34.0155804 73.4032258,34.0155804 C72.4167581,34.0155804 71.6129032,33.2135288 71.6129032,32.2252867 C71.6129032,31.2370446 72.4167581,30.434993 73.4032258,30.434993 C74.3896935,30.434993 75.1935484,31.2370446 75.1935484,32.2252867 Z M87.2388387,46.0857406 L100.0665,56.7755843 L72.2717419,54.2494798 L87.2388387,46.0857406 Z M102.904161,54.4768471 L90.6207581,44.2399477 L102.06271,37.9989839 C102.576532,38.4608797 103.17629,38.8189384 103.8405,39.0552572 L103.8405,54.0382252 C103.511081,54.1563846 103.199565,54.3013984 102.904161,54.4768471 Z M107.419355,34.0155804 C107.419355,35.0038225 106.6155,35.8058741 105.629032,35.8058741 C104.642565,35.8058741 103.83871,35.0038225 103.83871,34.0155804 C103.83871,33.0273383 104.642565,32.2252867 105.629032,32.2252867 C106.6155,32.2252867 107.419355,33.0273383 107.419355,34.0155804 Z M91.3064516,14.3223496 C92.2929194,14.3223496 93.0967742,15.1244012 93.0967742,16.1126433 C93.0967742,17.1008855 92.2929194,17.902937 91.3064516,17.902937 C90.3199839,17.902937 89.516129,17.1008855 89.516129,16.1126433 C89.516129,15.1244012 90.3199839,14.3223496 91.3064516,14.3223496 Z M85.9838226,15.6274738 C85.9695,15.7903905 85.9354839,15.946146 85.9354839,16.1126433 C85.9354839,16.8412929 86.0840806,17.5341365 86.3472581,18.1679005 L75.9490645,27.5257657 C75.1881774,27.1104176 74.3288226,26.8544056 73.4032258,26.8544056 C72.3039677,26.8544056 71.2816935,27.1891905 70.4295,27.7585039 L57.2563065,17.8778729 L65.5723548,10.1169497 C66.3117581,10.5018629 67.1406774,10.7417622 68.0322581,10.7417622 C69.5379194,10.7417622 70.8949839,10.1151594 71.8725,9.11438525 L85.9838226,15.6274738 Z M68.0322581,3.58058741 C69.0187258,3.58058741 69.8225806,4.38263899 69.8225806,5.37088111 C69.8225806,6.35912324 69.0187258,7.16117482 68.0322581,7.16117482 C67.0457903,7.16117482 66.2419355,6.35912324 66.2419355,5.37088111 C66.2419355,4.38263899 67.0457903,3.58058741 68.0322581,3.58058741 Z M37.5967742,3.58058741 C38.5832419,3.58058741 39.3870968,4.38263899 39.3870968,5.37088111 C39.3870968,6.35912324 38.5832419,7.16117482 37.5967742,7.16117482 C36.6103065,7.16117482 35.8064516,6.35912324 35.8064516,5.37088111 C35.8064516,4.38263899 36.6103065,3.58058741 37.5967742,3.58058741 Z M19.6935484,12.5320559 C20.6800161,12.5320559 21.483871,13.3341075 21.483871,14.3223496 C21.483871,15.3105918 20.6800161,16.1126433 19.6935484,16.1126433 C18.7070806,16.1126433 17.9032258,15.3105918 17.9032258,14.3223496 C17.9032258,13.3341075 18.7070806,12.5320559 19.6935484,12.5320559 Z M5.37096774,30.434993 C6.35743548,30.434993 7.16129032,31.2370446 7.16129032,32.2252867 C7.16129032,33.2135288 6.35743548,34.0155804 5.37096774,34.0155804 C4.3845,34.0155804 3.58064516,33.2135288 3.58064516,32.2252867 C3.58064516,31.2370446 4.3845,30.434993 5.37096774,30.434993 Z M5.37096774,55.4991049 C4.3845,55.4991049 3.58064516,54.6970533 3.58064516,53.7088111 C3.58064516,52.720569 4.3845,51.9185174 5.37096774,51.9185174 C6.35743548,51.9185174 7.16129032,52.720569 7.16129032,53.7088111 C7.16129032,54.6970533 6.35743548,55.4991049 5.37096774,55.4991049 Z M7.16129032,48.6673441 L7.16129032,37.2649635 C8.76004839,36.6938598 9.99895161,35.3958968 10.4912903,33.7613587 L20.3595484,33.2672376 L22.8552581,52.4054773 C21.8276129,52.872744 20.9879516,53.6551023 20.4275806,54.6272318 L10.656,52.8512605 C10.3391129,50.9016306 8.97846774,49.3154304 7.16129032,48.6673441 Z M23.2741935,57.2893986 C23.2741935,56.3011564 24.0780484,55.4991049 25.0645161,55.4991049 C26.0509839,55.4991049 26.8548387,56.3011564 26.8548387,57.2893986 C26.8548387,58.2776407 26.0509839,59.0796923 25.0645161,59.0796923 C24.0780484,59.0796923 23.2741935,58.2776407 23.2741935,57.2893986 Z M28.5986129,61.3014468 C28.8474677,61.0812406 29.0730484,60.8413413 29.2789355,60.5799584 L50.8952903,67.7858906 L54.0874355,78.0693376 C53.6452258,78.4023322 53.2513548,78.7944065 52.9290968,79.2437703 L37.5645484,74.8539701 C37.3837258,72.0521604 35.0724194,69.8214545 32.2258065,69.8214545 C32.1541935,69.8214545 32.0861613,69.8393574 32.0145484,69.842938 L28.5986129,61.3014468 Z M32.2258065,76.9826293 C31.2393387,76.9826293 30.4354839,76.1805777 30.4354839,75.1923356 C30.4354839,74.2040935 31.2393387,73.4020419 32.2258065,73.4020419 C33.2122742,73.4020419 34.016129,74.2040935 34.016129,75.1923356 C34.016129,76.1805777 33.2122742,76.9826293 32.2258065,76.9826293 Z M57.2903226,107.417622 C56.3038548,107.417622 55.5,106.615571 55.5,105.627329 C55.5,104.639086 56.3038548,103.837035 57.2903226,103.837035 C58.2767903,103.837035 59.0806452,104.639086 59.0806452,105.627329 C59.0806452,106.615571 58.2767903,107.417622 57.2903226,107.417622 Z M57.2903226,84.1438041 C56.3038548,84.1438041 55.5,83.3417526 55.5,82.3535104 C55.5,81.3652683 56.3038548,80.5632167 57.2903226,80.5632167 C58.2767903,80.5632167 59.0806452,81.3652683 59.0806452,82.3535104 C59.0806452,83.3417526 58.2767903,84.1438041 57.2903226,84.1438041 Z M57.3511935,76.5099918 L55.0756935,69.1805293 L59.3223387,70.5966517 L57.3511935,76.5099918 Z M66.3421935,60.8592442 C68.4583548,60.8198577 70.268371,59.5523298 71.1062419,57.7387623 L100.442468,60.4045096 C100.489016,60.583539 100.542726,60.7589878 100.607177,60.930856 L86.8700323,72.3779939 C86.0679677,71.9035661 85.1441613,71.6117482 84.1451613,71.6117482 C82.4300323,71.6117482 80.9154194,72.4352833 79.9325323,73.6920695 L63.8518548,68.3319301 L66.3421935,60.8592442 Z M84.1451613,107.417622 C83.1586935,107.417622 82.3548387,106.615571 82.3548387,105.627329 C82.3548387,104.639086 83.1586935,103.837035 84.1451613,103.837035 C85.131629,103.837035 85.9354839,104.639086 85.9354839,105.627329 C85.9354839,106.615571 85.131629,107.417622 84.1451613,107.417622 Z M84.1451613,78.772923 C83.1586935,78.772923 82.3548387,77.9708714 82.3548387,76.9826293 C82.3548387,75.9943872 83.1586935,75.1923356 84.1451613,75.1923356 C85.131629,75.1923356 85.9354839,75.9943872 85.9354839,76.9826293 C85.9354839,77.9708714 85.131629,78.772923 84.1451613,78.772923 Z M105.629032,60.869986 C104.642565,60.869986 103.83871,60.0679344 103.83871,59.0796923 C103.83871,58.0914501 104.642565,57.2893986 105.629032,57.2893986 C106.6155,57.2893986 107.419355,58.0914501 107.419355,59.0796923 C107.419355,60.0679344 106.6155,60.869986 105.629032,60.869986 Z" id="Brain" fill="#4F5B62" fill-rule="nonzero"></path>
            </g>
        </g>
    </g>
</svg>