<?xml version="1.0" encoding="utf-8"?>
<!-- Generator: Adobe Illustrator 22.1.0, SVG Export Plug-In . SVG Version: 6.00 Build 0)  -->
<svg version="1.1"
	 id="svg2" inkscape:version="0.48.5 r10040" sodipodi:docname="logo-light.svg" xmlns:cc="http://creativecommons.org/ns#" xmlns:dc="http://purl.org/dc/elements/1.1/" xmlns:inkscape="http://www.inkscape.org/namespaces/inkscape" xmlns:rdf="http://www.w3.org/1999/02/22-rdf-syntax-ns#" xmlns:sodipodi="http://sodipodi.sourceforge.net/DTD/sodipodi-0.dtd" xmlns:svg="http://www.w3.org/2000/svg"
	 xmlns="http://www.w3.org/2000/svg" xmlns:xlink="http://www.w3.org/1999/xlink" x="0px" y="0px" viewBox="0 0 178.8 108.4"
	 style="enable-background:new 0 0 178.8 108.4;" xml:space="preserve">
<style type="text/css">
	.st0{fill:#525960;}
</style>
<sodipodi:namedview  bordercolor="#666666" borderopacity="1" fit-margin-bottom="3" fit-margin-left="3" fit-margin-right="3" fit-margin-top="3" gridtolerance="10" guidetolerance="10" id="namedview4" inkscape:current-layer="g10" inkscape:cx="3.0082556" inkscape:cy="24.855429" inkscape:pageopacity="0" inkscape:pageshadow="2" inkscape:window-height="1048" inkscape:window-maximized="1" inkscape:window-width="1920" inkscape:window-x="1920" inkscape:window-y="0" inkscape:zoom="1.9070707" objecttolerance="10" pagecolor="#ffffff" showgrid="false">
	</sodipodi:namedview>
<g id="g10" transform="matrix(1.25,0,0,-1.25,-290.93613,570.5215)" inkscape:groupmode="layer" inkscape:label="ABR logo">
	<path id="path22" inkscape:connector-curvature="0" class="st0" d="M315.7,374.3c-4.7,0-12.4,1.7-19.7,1.7h0l0,0
		c-2.3,0-4.6-0.1-6.6-0.3l-3.2-0.3l-0.7,6.3l3.2,0.3c2.3,0.2,4.8,0.3,7.3,0.3c7.8,0,15.9-1.7,19.7-1.7c0,0,0,0,0,0c0,0,0,0,0,0h0
		c0,0,0,0,0,0c5,0.1,8.2,2.2,10.7,5.5c2.4,3.2,3.6,7.8,3.6,11.7c0,0,0,0,0,0.1c0,0,0,0,0,0c0,1.6-0.2,3-0.5,4.3
		c-1.4,5.8-7.4,11.1-9.1,12.2c-3.6,2.4-7.1,3.8-8.2,4.3c-1,0.4-2.6,1-3.3,1.2l-2.7,0.7l2.4,1.4c0.6,0.4,2.5,1.3,4.8,3.1
		c2.4,1.9,5.7,4.8,5.8,10.9v0.2c0,0,0,0.1,0,0.1c-0.1,5-1.6,7.4-3.6,9.1c-2,1.6-5,2.3-7.8,2.3l-0.1,0h0h-13.9l0-20.8l0-6.4l-0.3,0
		c0,0-1.2-0.1-1.7-0.2c-0.9-0.1-1.6-0.2-1.6-0.2l-0.2,0l-0.1,0.2l-0.3,0.6c-0.3,0.6-2.1,4.3-2.1,4.4l-0.1,0.2v28.6h3.2h17.1
		c3.9,0,8.3-0.9,11.9-3.7c3.5-2.7,5.8-7.1,6-13h0V437v-0.8v0v-0.1c0-6.4-2.4-10.9-5.6-14.1c0.1,0,0.2-0.1,0.2-0.1
		c0.9-0.5,1.9-1,2.7-1.5c4.9-3.1,10.6-8.4,12.8-16.6c0.5-1.9,0.7-3.9,0.7-6c0-5.2-1.5-10.9-4.8-15.5c-3.3-4.6-8.7-8.1-15.7-8.1h0h0
		h0L315.7,374.3 M322.5,419.9L322.5,419.9"/>
	<path id="path26" inkscape:connector-curvature="0" class="st0" d="M353.4,415.7l-1,2c1.1,0.4,2.6,0.9,3.7,1.4
		c2.7,1.1,4.5,2.1,6.9,4.7c2.4,2.6,4.5,6.5,4.7,11.7l0,0l0,0.8v0.2l0,0c0,6.3-2.4,11-6,13.8c-3.6,2.8-8,3.7-11.9,3.7h-21.1l0-36.8
		l0.4-0.3c0.7-0.7,2.1-2.2,3.2-3.7c1.1-1.4,2.3-3.8,2.3-3.8l0.5,0.1v3.1l0,35h3.2c3.6,0,8.1,0,11.5,0l0,0l0,0h0.3
		c2.8,0,5.7-0.8,7.6-2.3c2-1.6,3.5-4,3.6-8.9v0l0-0.1l0,0l0-0.1c-0.1-3.9-1.4-6.2-3-8c-2.3-2.3-5.3-4-7.5-4.6c-1.4-0.4-3-0.8-4.2-1
		c-0.6-0.1-1.1-0.2-1.5-0.3c-0.2,0-0.3-0.1-0.4-0.1c-0.1,0-0.1,0-0.1,0v0l-1.1-0.2l-0.4-0.1l0.8-1.5l3.7-7.3l18.6-40.8l7,0
		L353.4,415.7L353.4,415.7z"/>
	<path id="path110" inkscape:connector-curvature="0" class="st0" d="M235.6,372.1v0.3l0.3-0.1l-0.3,0.1V372.1h-0.4l36,81.9h1.8
		l15.5-34.2l-0.4-0.1c0,0-1.1-0.2-3-0.6c-1.9-0.4-3-0.7-3-0.7l-0.2-0.1l-0.1,0.2l-0.3,0.7c-0.7,1.6-6.9,15.1-9.3,20.5l-29.9-67.7
		H235.6L235.6,372.1z"/>
</g>
</svg>
